ISO-10303-21;
HEADER;
FILE_DESCRIPTION(('STEP AP214'),'1');
FILE_NAME('cctmp_F57A0481-0F04-415B-99B0-D5B9667C940F_2024_10_07_10_32_13_0719_58532..stp','2024-10-07T08:32:13',('KiM GmbH'),('CADClick - www.CADClick.com'),'Spatial InterOp 3D',' ','unknown authorization');
FILE_SCHEMA(('AUTOMOTIVE_DESIGN'));
ENDSEC;
DATA;
#1=PRODUCT_DEFINITION_CONTEXT('',#16,'design');
#2=APPLICATION_PROTOCOL_DEFINITION('INTERNATIONAL STANDARD','automotive_design',1994,#16);
#3=PRODUCT_CATEGORY_RELATIONSHIP('NONE','NONE',#17,#18);
#4=SHAPE_DEFINITION_REPRESENTATION(#19,#20);
#5=PRODUCT_DEFINITION_CONTEXT('',#21,'design');
#6=APPLICATION_PROTOCOL_DEFINITION('INTERNATIONAL STANDARD','automotive_design',1994,#21);
#7=PRODUCT_CATEGORY_RELATIONSHIP('NONE','NONE',#22,#23);
#8=CONTEXT_DEPENDENT_SHAPE_REPRESENTATION(#24,#25);
#9=SHAPE_DEFINITION_REPRESENTATION(#26,#27);
#10=SHAPE_REPRESENTATION_RELATIONSHIP('NONE','NONE',#27,#28);
#11=MECHANICAL_DESIGN_GEOMETRIC_PRESENTATION_REPRESENTATION(' ',(#29,#30,#31,#32,#33,#34,#35,#36,#37,#38,#39,#40,#41,#42,#43,#44,#45,#46,#47,#48,#49,#50,#51,#52,#53,#54,#55,#56,#57,#58,#59,#60,#61,#62,#63,#64,#65,#66,#67,#68,#69,#70,#71,#72,#73,#74,#75,#76,#77,#78,#79,#80,#81,#82,#83,#84),#12);
#12= (GEOMETRIC_REPRESENTATION_CONTEXT(3)GLOBAL_UNCERTAINTY_ASSIGNED_CONTEXT((#87))GLOBAL_UNIT_ASSIGNED_CONTEXT((#89,#90,#91))REPRESENTATION_CONTEXT('NONE','WORKSPACE'));
#16=APPLICATION_CONTEXT(' ');
#17=PRODUCT_CATEGORY('part','NONE');
#18=PRODUCT_RELATED_PRODUCT_CATEGORY('detail',' ',(#93));
#19=PRODUCT_DEFINITION_SHAPE('NONE','NONE',#94);
#20=SHAPE_REPRESENTATION('item_0037008_Standard-Verbindungssatz 5',(#95,#96),#97);
#21=APPLICATION_CONTEXT(' ');
#22=PRODUCT_CATEGORY('part','NONE');
#23=PRODUCT_RELATED_PRODUCT_CATEGORY('detail',' ',(#98));
#24=(REPRESENTATION_RELATIONSHIP('','',#27,#20)REPRESENTATION_RELATIONSHIP_WITH_TRANSFORMATION(#101)SHAPE_REPRESENTATION_RELATIONSHIP());
#25=PRODUCT_DEFINITION_SHAPE('NAUO-PROD-DEF','NAUO-PROD-DEF',#103);
#26=PRODUCT_DEFINITION_SHAPE('NONE','NONE',#104);
#27=SHAPE_REPRESENTATION('item_0037008_Standard-Verbindungssatz 5_1',(#95),#97);
#28=ADVANCED_BREP_SHAPE_REPRESENTATION('item_0037008_Standard-Verbindungssatz 5',(#105),#12);
#29=STYLED_ITEM('',(#106),#107);
#30=STYLED_ITEM('',(#108),#109);
#31=STYLED_ITEM('',(#110),#111);
#32=STYLED_ITEM('',(#112),#113);
#33=STYLED_ITEM('',(#114),#115);
#34=STYLED_ITEM('',(#116),#117);
#35=STYLED_ITEM('',(#118),#119);
#36=STYLED_ITEM('',(#120),#121);
#37=STYLED_ITEM('',(#122),#123);
#38=STYLED_ITEM('',(#124),#125);
#39=STYLED_ITEM('',(#126),#127);
#40=STYLED_ITEM('',(#128),#129);
#41=STYLED_ITEM('',(#130),#131);
#42=STYLED_ITEM('',(#132),#133);
#43=STYLED_ITEM('',(#134),#135);
#44=STYLED_ITEM('',(#136),#137);
#45=STYLED_ITEM('',(#138),#139);
#46=STYLED_ITEM('',(#140),#141);
#47=STYLED_ITEM('',(#142),#143);
#48=STYLED_ITEM('',(#144),#145);
#49=STYLED_ITEM('',(#146),#147);
#50=STYLED_ITEM('',(#148),#149);
#51=STYLED_ITEM('',(#150),#151);
#52=STYLED_ITEM('',(#152),#153);
#53=STYLED_ITEM('',(#154),#155);
#54=STYLED_ITEM('',(#156),#157);
#55=STYLED_ITEM('',(#158),#159);
#56=STYLED_ITEM('',(#160),#161);
#57=STYLED_ITEM('',(#162),#163);
#58=STYLED_ITEM('',(#164),#165);
#59=STYLED_ITEM('',(#166),#167);
#60=STYLED_ITEM('',(#168),#169);
#61=STYLED_ITEM('',(#170),#171);
#62=STYLED_ITEM('',(#172),#173);
#63=STYLED_ITEM('',(#174),#175);
#64=STYLED_ITEM('',(#176),#177);
#65=STYLED_ITEM('',(#178),#179);
#66=STYLED_ITEM('',(#180),#181);
#67=STYLED_ITEM('',(#182),#183);
#68=STYLED_ITEM('',(#184),#185);
#69=STYLED_ITEM('',(#186),#187);
#70=STYLED_ITEM('',(#188),#189);
#71=STYLED_ITEM('',(#190),#191);
#72=STYLED_ITEM('',(#192),#193);
#73=STYLED_ITEM('',(#194),#195);
#74=STYLED_ITEM('',(#196),#197);
#75=STYLED_ITEM('',(#198),#199);
#76=STYLED_ITEM('',(#200),#201);
#77=STYLED_ITEM('',(#202),#203);
#78=STYLED_ITEM('',(#204),#205);
#79=STYLED_ITEM('',(#206),#207);
#80=STYLED_ITEM('',(#208),#209);
#81=STYLED_ITEM('',(#210),#211);
#82=STYLED_ITEM('',(#212),#213);
#83=STYLED_ITEM('',(#214),#215);
#84=STYLED_ITEM('',(#216),#105);
#87=UNCERTAINTY_MEASURE_WITH_UNIT(LENGTH_MEASURE(1.0E-06),#89,'','');
#89= (CONVERSION_BASED_UNIT('MILLIMETRE',#219)LENGTH_UNIT()NAMED_UNIT(#222));
#90= (NAMED_UNIT(#224)PLANE_ANGLE_UNIT()SI_UNIT($,.RADIAN.));
#91= (NAMED_UNIT(#224)SOLID_ANGLE_UNIT()SI_UNIT($,.STERADIAN.));
#93=PRODUCT('item_0037008_Standard-Verbindungssatz 5','item_0037008_Standard-Verbindungssatz 5','PART--DESC',(#230));
#94=PRODUCT_DEFINITION('item_0037008_Standard-Verbindungssatz 5','item_0037008_Standard-Verbindungssatz 5',#231,#1);
#95=AXIS2_PLACEMENT_3D('',#232,#233,#234);
#96=AXIS2_PLACEMENT_3D('',#235,#236,#237);
#97= (GEOMETRIC_REPRESENTATION_CONTEXT(3)GLOBAL_UNCERTAINTY_ASSIGNED_CONTEXT((#240))GLOBAL_UNIT_ASSIGNED_CONTEXT((#242,#243,#244))REPRESENTATION_CONTEXT('NONE','WORKSPACE'));
#98=PRODUCT('item_0037008_Standard-Verbindungssatz 5_1','item_0037008_Standard-Verbindungssatz 5_1','PART-item_0037008_Standard-Verbindungssatz 5_1-DESC',(#246));
#101=ITEM_DEFINED_TRANSFORMATION('','',#95,#96);
#103=NEXT_ASSEMBLY_USAGE_OCCURRENCE('','','',#94,#104,$);
#104=PRODUCT_DEFINITION('item_0037008_Standard-Verbindungssatz 5_1','item_0037008_Standard-Verbindungssatz 5_1',#247,#5);
#105=MANIFOLD_SOLID_BREP('item_0037008_Standard-Verbindungssatz 5',#248);
#106=PRESENTATION_STYLE_ASSIGNMENT((#249));
#107=ADVANCED_FACE('',(#250),#251,.F.);
#108=PRESENTATION_STYLE_ASSIGNMENT((#252));
#109=ADVANCED_FACE('',(#253),#254,.T.);
#110=PRESENTATION_STYLE_ASSIGNMENT((#255));
#111=ADVANCED_FACE('',(#256),#257,.F.);
#112=PRESENTATION_STYLE_ASSIGNMENT((#258));
#113=ADVANCED_FACE('',(#259),#260,.T.);
#114=PRESENTATION_STYLE_ASSIGNMENT((#261));
#115=ADVANCED_FACE('',(#262),#263,.T.);
#116=PRESENTATION_STYLE_ASSIGNMENT((#264));
#117=ADVANCED_FACE('',(#265),#266,.T.);
#118=PRESENTATION_STYLE_ASSIGNMENT((#267));
#119=ADVANCED_FACE('',(#268),#269,.T.);
#120=PRESENTATION_STYLE_ASSIGNMENT((#270));
#121=ADVANCED_FACE('',(#271),#272,.F.);
#122=PRESENTATION_STYLE_ASSIGNMENT((#273));
#123=ADVANCED_FACE('',(#274),#275,.F.);
#124=PRESENTATION_STYLE_ASSIGNMENT((#276));
#125=ADVANCED_FACE('',(#277),#278,.F.);
#126=PRESENTATION_STYLE_ASSIGNMENT((#279));
#127=ADVANCED_FACE('',(#280),#281,.F.);
#128=PRESENTATION_STYLE_ASSIGNMENT((#282));
#129=ADVANCED_FACE('',(#283),#284,.F.);
#130=PRESENTATION_STYLE_ASSIGNMENT((#285));
#131=ADVANCED_FACE('',(#286),#287,.F.);
#132=PRESENTATION_STYLE_ASSIGNMENT((#288));
#133=ADVANCED_FACE('',(#289),#290,.F.);
#134=PRESENTATION_STYLE_ASSIGNMENT((#291));
#135=ADVANCED_FACE('',(#292,#293),#294,.T.);
#136=PRESENTATION_STYLE_ASSIGNMENT((#295));
#137=ADVANCED_FACE('',(#296),#297,.T.);
#138=PRESENTATION_STYLE_ASSIGNMENT((#298));
#139=ADVANCED_FACE('',(#299),#300,.T.);
#140=PRESENTATION_STYLE_ASSIGNMENT((#301));
#141=ADVANCED_FACE('',(#302),#303,.F.);
#142=PRESENTATION_STYLE_ASSIGNMENT((#304));
#143=ADVANCED_FACE('',(#305),#306,.T.);
#144=PRESENTATION_STYLE_ASSIGNMENT((#307));
#145=ADVANCED_FACE('',(#308),#309,.T.);
#146=PRESENTATION_STYLE_ASSIGNMENT((#310));
#147=ADVANCED_FACE('',(#311),#312,.F.);
#148=PRESENTATION_STYLE_ASSIGNMENT((#313));
#149=ADVANCED_FACE('',(#314),#315,.F.);
#150=PRESENTATION_STYLE_ASSIGNMENT((#316));
#151=ADVANCED_FACE('',(#317),#318,.T.);
#152=PRESENTATION_STYLE_ASSIGNMENT((#319));
#153=ADVANCED_FACE('',(#320),#321,.T.);
#154=PRESENTATION_STYLE_ASSIGNMENT((#322));
#155=ADVANCED_FACE('',(#323),#324,.T.);
#156=PRESENTATION_STYLE_ASSIGNMENT((#325));
#157=ADVANCED_FACE('',(#326),#327,.T.);
#158=PRESENTATION_STYLE_ASSIGNMENT((#328));
#159=ADVANCED_FACE('',(#329),#330,.T.);
#160=PRESENTATION_STYLE_ASSIGNMENT((#331));
#161=ADVANCED_FACE('',(#332),#333,.T.);
#162=PRESENTATION_STYLE_ASSIGNMENT((#334));
#163=ADVANCED_FACE('',(#335),#336,.T.);
#164=PRESENTATION_STYLE_ASSIGNMENT((#337));
#165=ADVANCED_FACE('',(#338),#339,.F.);
#166=PRESENTATION_STYLE_ASSIGNMENT((#340));
#167=ADVANCED_FACE('',(#341),#342,.T.);
#168=PRESENTATION_STYLE_ASSIGNMENT((#343));
#169=ADVANCED_FACE('',(#344),#345,.T.);
#170=PRESENTATION_STYLE_ASSIGNMENT((#346));
#171=ADVANCED_FACE('',(#347,#348),#349,.F.);
#172=PRESENTATION_STYLE_ASSIGNMENT((#350));
#173=ADVANCED_FACE('',(#351),#352,.T.);
#174=PRESENTATION_STYLE_ASSIGNMENT((#353));
#175=ADVANCED_FACE('',(#354),#355,.F.);
#176=PRESENTATION_STYLE_ASSIGNMENT((#356));
#177=ADVANCED_FACE('',(#357),#358,.T.);
#178=PRESENTATION_STYLE_ASSIGNMENT((#359));
#179=ADVANCED_FACE('',(#360),#361,.T.);
#180=PRESENTATION_STYLE_ASSIGNMENT((#362));
#181=ADVANCED_FACE('',(#363),#364,.T.);
#182=PRESENTATION_STYLE_ASSIGNMENT((#365));
#183=ADVANCED_FACE('',(#366),#367,.T.);
#184=PRESENTATION_STYLE_ASSIGNMENT((#368));
#185=ADVANCED_FACE('',(#369),#370,.T.);
#186=PRESENTATION_STYLE_ASSIGNMENT((#371));
#187=ADVANCED_FACE('',(#372),#373,.T.);
#188=PRESENTATION_STYLE_ASSIGNMENT((#374));
#189=ADVANCED_FACE('',(#375),#376,.T.);
#190=PRESENTATION_STYLE_ASSIGNMENT((#377));
#191=ADVANCED_FACE('',(#378),#379,.F.);
#192=PRESENTATION_STYLE_ASSIGNMENT((#380));
#193=ADVANCED_FACE('',(#381),#382,.T.);
#194=PRESENTATION_STYLE_ASSIGNMENT((#383));
#195=ADVANCED_FACE('',(#384),#385,.T.);
#196=PRESENTATION_STYLE_ASSIGNMENT((#386));
#197=ADVANCED_FACE('',(#387),#388,.T.);
#198=PRESENTATION_STYLE_ASSIGNMENT((#389));
#199=ADVANCED_FACE('',(#390),#391,.T.);
#200=PRESENTATION_STYLE_ASSIGNMENT((#392));
#201=ADVANCED_FACE('',(#393),#394,.T.);
#202=PRESENTATION_STYLE_ASSIGNMENT((#395));
#203=ADVANCED_FACE('',(#396),#397,.T.);
#204=PRESENTATION_STYLE_ASSIGNMENT((#398));
#205=ADVANCED_FACE('',(#399),#400,.T.);
#206=PRESENTATION_STYLE_ASSIGNMENT((#401));
#207=ADVANCED_FACE('',(#402),#403,.T.);
#208=PRESENTATION_STYLE_ASSIGNMENT((#404));
#209=ADVANCED_FACE('',(#405),#406,.T.);
#210=PRESENTATION_STYLE_ASSIGNMENT((#407));
#211=ADVANCED_FACE('',(#408),#409,.T.);
#212=PRESENTATION_STYLE_ASSIGNMENT((#410));
#213=ADVANCED_FACE('',(#411),#412,.T.);
#214=PRESENTATION_STYLE_ASSIGNMENT((#413));
#215=ADVANCED_FACE('',(#414,#415),#416,.T.);
#216=PRESENTATION_STYLE_ASSIGNMENT((#417));
#219=LENGTH_MEASURE_WITH_UNIT(LENGTH_MEASURE(1.0),#418);
#222=DIMENSIONAL_EXPONENTS(1.0,0.0,0.0,0.0,0.0,0.0,0.0);
#224=DIMENSIONAL_EXPONENTS(0.0,0.0,0.0,0.0,0.0,0.0,0.0);
#230=PRODUCT_CONTEXT('',#16,'mechanical');
#231=PRODUCT_DEFINITION_FORMATION_WITH_SPECIFIED_SOURCE(' ','NONE',#93,.NOT_KNOWN.);
#232=CARTESIAN_POINT('',(0.0,0.0,0.0));
#233=DIRECTION('',(0.0,0.0,1.0));
#234=DIRECTION('',(1.0,0.0,0.0));
#235=CARTESIAN_POINT('',(0.0,0.0,0.0));
#236=DIRECTION('',(0.0,0.0,1.0));
#237=DIRECTION('',(1.0,0.0,0.0));
#240=UNCERTAINTY_MEASURE_WITH_UNIT(LENGTH_MEASURE(1.0E-06),#242,'','');
#242= (CONVERSION_BASED_UNIT('MILLIMETRE',#421)LENGTH_UNIT()NAMED_UNIT(#424));
#243= (NAMED_UNIT(#426)PLANE_ANGLE_UNIT()SI_UNIT($,.RADIAN.));
#244= (NAMED_UNIT(#426)SOLID_ANGLE_UNIT()SI_UNIT($,.STERADIAN.));
#246=PRODUCT_CONTEXT('',#21,'mechanical');
#247=PRODUCT_DEFINITION_FORMATION_WITH_SPECIFIED_SOURCE(' ','NONE',#98,.NOT_KNOWN.);
#248=CLOSED_SHELL('',(#107,#109,#111,#113,#115,#117,#119,#121,#123,#125,#127,#129,#131,#133,#135,#137,#139,#141,#143,#145,#147,#149,#151,#153,#155,#157,#159,#161,#163,#165,#167,#169,#171,#173,#175,#177,#179,#181,#183,#185,#187,#189,#191,#193,#195,#197,#199,#201,#203,#205,#207,#209,#211,#213,#215));
#249=SURFACE_STYLE_USAGE(.BOTH.,#432);
#250=FACE_OUTER_BOUND('',#433,.T.);
#251=CYLINDRICAL_SURFACE('',#434,2.6);
#252=SURFACE_STYLE_USAGE(.BOTH.,#435);
#253=FACE_OUTER_BOUND('',#436,.T.);
#254=CYLINDRICAL_SURFACE('',#437,2.5);
#255=SURFACE_STYLE_USAGE(.BOTH.,#438);
#256=FACE_OUTER_BOUND('',#439,.T.);
#257=TOROIDAL_SURFACE('',#440,2.7,0.2);
#258=SURFACE_STYLE_USAGE(.BOTH.,#441);
#259=FACE_OUTER_BOUND('',#442,.T.);
#260=CYLINDRICAL_SURFACE('',#443,4.75);
#261=SURFACE_STYLE_USAGE(.BOTH.,#444);
#262=FACE_OUTER_BOUND('',#445,.T.);
#263=TOROIDAL_SURFACE('',#446,1.42411293065508,3.53933509296191);
#264=SURFACE_STYLE_USAGE(.BOTH.,#447);
#265=FACE_OUTER_BOUND('',#448,.T.);
#266=CONICAL_SURFACE('',#449,2.254625,0.785398163397448);
#267=SURFACE_STYLE_USAGE(.BOTH.,#450);
#268=FACE_OUTER_BOUND('',#451,.T.);
#269=CONICAL_SURFACE('',#452,2.254625,0.785398163397448);
#270=SURFACE_STYLE_USAGE(.BOTH.,#453);
#271=FACE_OUTER_BOUND('',#454,.T.);
#272=PLANE('',#455);
#273=SURFACE_STYLE_USAGE(.BOTH.,#456);
#274=FACE_OUTER_BOUND('',#457,.T.);
#275=PLANE('',#458);
#276=SURFACE_STYLE_USAGE(.BOTH.,#459);
#277=FACE_OUTER_BOUND('',#460,.T.);
#278=PLANE('',#461);
#279=SURFACE_STYLE_USAGE(.BOTH.,#462);
#280=FACE_OUTER_BOUND('',#463,.T.);
#281=PLANE('',#464);
#282=SURFACE_STYLE_USAGE(.BOTH.,#465);
#283=FACE_OUTER_BOUND('',#466,.T.);
#284=PLANE('',#467);
#285=SURFACE_STYLE_USAGE(.BOTH.,#468);
#286=FACE_OUTER_BOUND('',#469,.T.);
#287=PLANE('',#470);
#288=SURFACE_STYLE_USAGE(.BOTH.,#471);
#289=FACE_OUTER_BOUND('',#472,.T.);
#290=PLANE('',#473);
#291=SURFACE_STYLE_USAGE(.BOTH.,#474);
#292=FACE_BOUND('',#475,.T.);
#293=FACE_OUTER_BOUND('',#476,.T.);
#294=PLANE('',#477);
#295=SURFACE_STYLE_USAGE(.BOTH.,#478);
#296=FACE_OUTER_BOUND('',#479,.T.);
#297=TOROIDAL_SURFACE('',#480,1.42411293065508,3.53933509296191);
#298=SURFACE_STYLE_USAGE(.BOTH.,#481);
#299=FACE_OUTER_BOUND('',#482,.T.);
#300=CYLINDRICAL_SURFACE('',#483,4.75);
#301=SURFACE_STYLE_USAGE(.BOTH.,#484);
#302=FACE_OUTER_BOUND('',#485,.T.);
#303=TOROIDAL_SURFACE('',#486,2.7,0.2);
#304=SURFACE_STYLE_USAGE(.BOTH.,#487);
#305=FACE_OUTER_BOUND('',#488,.T.);
#306=CYLINDRICAL_SURFACE('',#489,2.5);
#307=SURFACE_STYLE_USAGE(.BOTH.,#490);
#308=FACE_OUTER_BOUND('',#491,.T.);
#309=PLANE('',#492);
#310=SURFACE_STYLE_USAGE(.BOTH.,#493);
#311=FACE_OUTER_BOUND('',#494,.T.);
#312=CYLINDRICAL_SURFACE('',#495,2.6);
#313=SURFACE_STYLE_USAGE(.BOTH.,#496);
#314=FACE_OUTER_BOUND('',#497,.T.);
#315=PLANE('',#498);
#316=SURFACE_STYLE_USAGE(.BOTH.,#499);
#317=FACE_OUTER_BOUND('',#500,.T.);
#318=CYLINDRICAL_SURFACE('',#501,1.3);
#319=SURFACE_STYLE_USAGE(.BOTH.,#502);
#320=FACE_OUTER_BOUND('',#503,.T.);
#321=PLANE('',#504);
#322=SURFACE_STYLE_USAGE(.BOTH.,#505);
#323=FACE_OUTER_BOUND('',#506,.T.);
#324=CYLINDRICAL_SURFACE('',#507,1.50000000607669);
#325=SURFACE_STYLE_USAGE(.BOTH.,#508);
#326=FACE_OUTER_BOUND('',#509,.T.);
#327=PLANE('',#510);
#328=SURFACE_STYLE_USAGE(.BOTH.,#511);
#329=FACE_OUTER_BOUND('',#512,.T.);
#330=PLANE('',#513);
#331=SURFACE_STYLE_USAGE(.BOTH.,#514);
#332=FACE_OUTER_BOUND('',#515,.T.);
#333=PLANE('',#516);
#334=SURFACE_STYLE_USAGE(.BOTH.,#517);
#335=FACE_OUTER_BOUND('',#518,.T.);
#336=PLANE('',#519);
#337=SURFACE_STYLE_USAGE(.BOTH.,#520);
#338=FACE_OUTER_BOUND('',#521,.T.);
#339=CYLINDRICAL_SURFACE('',#522,0.49999999543737);
#340=SURFACE_STYLE_USAGE(.BOTH.,#523);
#341=FACE_OUTER_BOUND('',#524,.T.);
#342=PLANE('',#525);
#343=SURFACE_STYLE_USAGE(.BOTH.,#526);
#344=FACE_OUTER_BOUND('',#527,.T.);
#345=PLANE('',#528);
#346=SURFACE_STYLE_USAGE(.BOTH.,#529);
#347=FACE_BOUND('',#530,.T.);
#348=FACE_OUTER_BOUND('',#531,.T.);
#349=PLANE('',#532);
#350=SURFACE_STYLE_USAGE(.BOTH.,#533);
#351=FACE_OUTER_BOUND('',#534,.T.);
#352=PLANE('',#535);
#353=SURFACE_STYLE_USAGE(.BOTH.,#536);
#354=FACE_OUTER_BOUND('',#537,.T.);
#355=PLANE('',#538);
#356=SURFACE_STYLE_USAGE(.BOTH.,#539);
#357=FACE_OUTER_BOUND('',#540,.T.);
#358=CYLINDRICAL_SURFACE('',#541,1.3);
#359=SURFACE_STYLE_USAGE(.BOTH.,#542);
#360=FACE_OUTER_BOUND('',#543,.T.);
#361=PLANE('',#544);
#362=SURFACE_STYLE_USAGE(.BOTH.,#545);
#363=FACE_OUTER_BOUND('',#546,.T.);
#364=CYLINDRICAL_SURFACE('',#547,1.50000000607669);
#365=SURFACE_STYLE_USAGE(.BOTH.,#548);
#366=FACE_OUTER_BOUND('',#549,.T.);
#367=PLANE('',#550);
#368=SURFACE_STYLE_USAGE(.BOTH.,#551);
#369=FACE_OUTER_BOUND('',#552,.T.);
#370=PLANE('',#553);
#371=SURFACE_STYLE_USAGE(.BOTH.,#554);
#372=FACE_OUTER_BOUND('',#555,.T.);
#373=PLANE('',#556);
#374=SURFACE_STYLE_USAGE(.BOTH.,#557);
#375=FACE_OUTER_BOUND('',#558,.T.);
#376=PLANE('',#559);
#377=SURFACE_STYLE_USAGE(.BOTH.,#560);
#378=FACE_OUTER_BOUND('',#561,.T.);
#379=CYLINDRICAL_SURFACE('',#562,0.49999999543737);
#380=SURFACE_STYLE_USAGE(.BOTH.,#563);
#381=FACE_OUTER_BOUND('',#564,.T.);
#382=PLANE('',#565);
#383=SURFACE_STYLE_USAGE(.BOTH.,#566);
#384=FACE_OUTER_BOUND('',#567,.T.);
#385=PLANE('',#568);
#386=SURFACE_STYLE_USAGE(.BOTH.,#569);
#387=FACE_OUTER_BOUND('',#570,.T.);
#388=PLANE('',#571);
#389=SURFACE_STYLE_USAGE(.BOTH.,#572);
#390=FACE_OUTER_BOUND('',#573,.T.);
#391=PLANE('',#574);
#392=SURFACE_STYLE_USAGE(.BOTH.,#575);
#393=FACE_OUTER_BOUND('',#576,.T.);
#394=CYLINDRICAL_SURFACE('',#577,1.0);
#395=SURFACE_STYLE_USAGE(.BOTH.,#578);
#396=FACE_OUTER_BOUND('',#579,.T.);
#397=PLANE('',#580);
#398=SURFACE_STYLE_USAGE(.BOTH.,#581);
#399=FACE_OUTER_BOUND('',#582,.T.);
#400=CYLINDRICAL_SURFACE('',#583,1.0);
#401=SURFACE_STYLE_USAGE(.BOTH.,#584);
#402=FACE_OUTER_BOUND('',#585,.T.);
#403=PLANE('',#586);
#404=SURFACE_STYLE_USAGE(.BOTH.,#587);
#405=FACE_OUTER_BOUND('',#588,.T.);
#406=CYLINDRICAL_SURFACE('',#589,1.0);
#407=SURFACE_STYLE_USAGE(.BOTH.,#590);
#408=FACE_OUTER_BOUND('',#591,.T.);
#409=PLANE('',#592);
#410=SURFACE_STYLE_USAGE(.BOTH.,#593);
#411=FACE_OUTER_BOUND('',#594,.T.);
#412=CYLINDRICAL_SURFACE('',#595,1.0);
#413=SURFACE_STYLE_USAGE(.BOTH.,#596);
#414=FACE_BOUND('',#597,.T.);
#415=FACE_OUTER_BOUND('',#598,.T.);
#416=PLANE('',#599);
#417=SURFACE_STYLE_USAGE(.BOTH.,#600);
#418= (NAMED_UNIT(#222)LENGTH_UNIT()SI_UNIT(.MILLI.,.METRE.));
#421=LENGTH_MEASURE_WITH_UNIT(LENGTH_MEASURE(1.0),#602);
#424=DIMENSIONAL_EXPONENTS(1.0,0.0,0.0,0.0,0.0,0.0,0.0);
#426=DIMENSIONAL_EXPONENTS(0.0,0.0,0.0,0.0,0.0,0.0,0.0);
#432=SURFACE_SIDE_STYLE('',(#603));
#433=EDGE_LOOP('',(#604,#605,#606,#607));
#434=AXIS2_PLACEMENT_3D('',#608,#609,#610);
#435=SURFACE_SIDE_STYLE('',(#611));
#436=EDGE_LOOP('',(#612,#613,#614,#615));
#437=AXIS2_PLACEMENT_3D('',#616,#617,#618);
#438=SURFACE_SIDE_STYLE('',(#619));
#439=EDGE_LOOP('',(#620,#621,#622,#623));
#440=AXIS2_PLACEMENT_3D('',#624,#625,#626);
#441=SURFACE_SIDE_STYLE('',(#627));
#442=EDGE_LOOP('',(#628,#629,#630,#631));
#443=AXIS2_PLACEMENT_3D('',#632,#633,#634);
#444=SURFACE_SIDE_STYLE('',(#635));
#445=EDGE_LOOP('',(#636,#637,#638,#639));
#446=AXIS2_PLACEMENT_3D('',#640,#641,#642);
#447=SURFACE_SIDE_STYLE('',(#643));
#448=EDGE_LOOP('',(#644,#645,#646,#647));
#449=AXIS2_PLACEMENT_3D('',#648,#649,#650);
#450=SURFACE_SIDE_STYLE('',(#651));
#451=EDGE_LOOP('',(#652,#653,#654,#655));
#452=AXIS2_PLACEMENT_3D('',#656,#657,#658);
#453=SURFACE_SIDE_STYLE('',(#659));
#454=EDGE_LOOP('',(#660,#661,#662,#663));
#455=AXIS2_PLACEMENT_3D('',#664,#665,#666);
#456=SURFACE_SIDE_STYLE('',(#667));
#457=EDGE_LOOP('',(#668,#669,#670,#671));
#458=AXIS2_PLACEMENT_3D('',#672,#673,#674);
#459=SURFACE_SIDE_STYLE('',(#675));
#460=EDGE_LOOP('',(#676,#677,#678,#679));
#461=AXIS2_PLACEMENT_3D('',#680,#681,#682);
#462=SURFACE_SIDE_STYLE('',(#683));
#463=EDGE_LOOP('',(#684,#685,#686,#687));
#464=AXIS2_PLACEMENT_3D('',#688,#689,#690);
#465=SURFACE_SIDE_STYLE('',(#691));
#466=EDGE_LOOP('',(#692,#693,#694,#695));
#467=AXIS2_PLACEMENT_3D('',#696,#697,#698);
#468=SURFACE_SIDE_STYLE('',(#699));
#469=EDGE_LOOP('',(#700,#701,#702,#703));
#470=AXIS2_PLACEMENT_3D('',#704,#705,#706);
#471=SURFACE_SIDE_STYLE('',(#707));
#472=EDGE_LOOP('',(#708,#709,#710,#711,#712,#713));
#473=AXIS2_PLACEMENT_3D('',#714,#715,#716);
#474=SURFACE_SIDE_STYLE('',(#717));
#475=EDGE_LOOP('',(#718,#719,#720,#721,#722,#723));
#476=EDGE_LOOP('',(#724,#725));
#477=AXIS2_PLACEMENT_3D('',#726,#727,#728);
#478=SURFACE_SIDE_STYLE('',(#729));
#479=EDGE_LOOP('',(#730,#731,#732,#733));
#480=AXIS2_PLACEMENT_3D('',#734,#735,#736);
#481=SURFACE_SIDE_STYLE('',(#737));
#482=EDGE_LOOP('',(#738,#739,#740,#741));
#483=AXIS2_PLACEMENT_3D('',#742,#743,#744);
#484=SURFACE_SIDE_STYLE('',(#745));
#485=EDGE_LOOP('',(#746,#747,#748,#749));
#486=AXIS2_PLACEMENT_3D('',#750,#751,#752);
#487=SURFACE_SIDE_STYLE('',(#753));
#488=EDGE_LOOP('',(#754,#755,#756,#757));
#489=AXIS2_PLACEMENT_3D('',#758,#759,#760);
#490=SURFACE_SIDE_STYLE('',(#761));
#491=EDGE_LOOP('',(#762,#763));
#492=AXIS2_PLACEMENT_3D('',#764,#765,#766);
#493=SURFACE_SIDE_STYLE('',(#767));
#494=EDGE_LOOP('',(#768,#769,#770,#771));
#495=AXIS2_PLACEMENT_3D('',#772,#773,#774);
#496=SURFACE_SIDE_STYLE('',(#775));
#497=EDGE_LOOP('',(#776,#777,#778,#779,#780,#781,#782,#783,#784,#785));
#498=AXIS2_PLACEMENT_3D('',#786,#787,#788);
#499=SURFACE_SIDE_STYLE('',(#789));
#500=EDGE_LOOP('',(#790,#791,#792,#793));
#501=AXIS2_PLACEMENT_3D('',#794,#795,#796);
#502=SURFACE_SIDE_STYLE('',(#797));
#503=EDGE_LOOP('',(#798,#799,#800,#801));
#504=AXIS2_PLACEMENT_3D('',#802,#803,#804);
#505=SURFACE_SIDE_STYLE('',(#805));
#506=EDGE_LOOP('',(#806,#807,#808,#809));
#507=AXIS2_PLACEMENT_3D('',#810,#811,#812);
#508=SURFACE_SIDE_STYLE('',(#813));
#509=EDGE_LOOP('',(#814,#815,#816,#817));
#510=AXIS2_PLACEMENT_3D('',#818,#819,#820);
#511=SURFACE_SIDE_STYLE('',(#821));
#512=EDGE_LOOP('',(#822,#823,#824,#825));
#513=AXIS2_PLACEMENT_3D('',#826,#827,#828);
#514=SURFACE_SIDE_STYLE('',(#829));
#515=EDGE_LOOP('',(#830,#831,#832,#833));
#516=AXIS2_PLACEMENT_3D('',#834,#835,#836);
#517=SURFACE_SIDE_STYLE('',(#837));
#518=EDGE_LOOP('',(#838,#839,#840,#841));
#519=AXIS2_PLACEMENT_3D('',#842,#843,#844);
#520=SURFACE_SIDE_STYLE('',(#845));
#521=EDGE_LOOP('',(#846,#847,#848,#849));
#522=AXIS2_PLACEMENT_3D('',#850,#851,#852);
#523=SURFACE_SIDE_STYLE('',(#853));
#524=EDGE_LOOP('',(#854,#855,#856,#857));
#525=AXIS2_PLACEMENT_3D('',#858,#859,#860);
#526=SURFACE_SIDE_STYLE('',(#861));
#527=EDGE_LOOP('',(#862,#863,#864,#865,#866,#867,#868,#869,#870,#871));
#528=AXIS2_PLACEMENT_3D('',#872,#873,#874);
#529=SURFACE_SIDE_STYLE('',(#875));
#530=EDGE_LOOP('',(#876,#877));
#531=EDGE_LOOP('',(#878,#879,#880,#881,#882,#883,#884,#885,#886,#887,#888,#889));
#532=AXIS2_PLACEMENT_3D('',#890,#891,#892);
#533=SURFACE_SIDE_STYLE('',(#893));
#534=EDGE_LOOP('',(#894,#895,#896,#897));
#535=AXIS2_PLACEMENT_3D('',#898,#899,#900);
#536=SURFACE_SIDE_STYLE('',(#901));
#537=EDGE_LOOP('',(#902,#903,#904,#905,#906,#907,#908,#909,#910,#911));
#538=AXIS2_PLACEMENT_3D('',#912,#913,#914);
#539=SURFACE_SIDE_STYLE('',(#915));
#540=EDGE_LOOP('',(#916,#917,#918,#919));
#541=AXIS2_PLACEMENT_3D('',#920,#921,#922);
#542=SURFACE_SIDE_STYLE('',(#923));
#543=EDGE_LOOP('',(#924,#925,#926,#927));
#544=AXIS2_PLACEMENT_3D('',#928,#929,#930);
#545=SURFACE_SIDE_STYLE('',(#931));
#546=EDGE_LOOP('',(#932,#933,#934,#935));
#547=AXIS2_PLACEMENT_3D('',#936,#937,#938);
#548=SURFACE_SIDE_STYLE('',(#939));
#549=EDGE_LOOP('',(#940,#941,#942,#943));
#550=AXIS2_PLACEMENT_3D('',#944,#945,#946);
#551=SURFACE_SIDE_STYLE('',(#947));
#552=EDGE_LOOP('',(#948,#949,#950,#951));
#553=AXIS2_PLACEMENT_3D('',#952,#953,#954);
#554=SURFACE_SIDE_STYLE('',(#955));
#555=EDGE_LOOP('',(#956,#957,#958,#959));
#556=AXIS2_PLACEMENT_3D('',#960,#961,#962);
#557=SURFACE_SIDE_STYLE('',(#963));
#558=EDGE_LOOP('',(#964,#965,#966,#967));
#559=AXIS2_PLACEMENT_3D('',#968,#969,#970);
#560=SURFACE_SIDE_STYLE('',(#971));
#561=EDGE_LOOP('',(#972,#973,#974,#975));
#562=AXIS2_PLACEMENT_3D('',#976,#977,#978);
#563=SURFACE_SIDE_STYLE('',(#979));
#564=EDGE_LOOP('',(#980,#981,#982,#983));
#565=AXIS2_PLACEMENT_3D('',#984,#985,#986);
#566=SURFACE_SIDE_STYLE('',(#987));
#567=EDGE_LOOP('',(#988,#989,#990,#991,#992,#993,#994,#995,#996,#997));
#568=AXIS2_PLACEMENT_3D('',#998,#999,#1000);
#569=SURFACE_SIDE_STYLE('',(#1001));
#570=EDGE_LOOP('',(#1002,#1003,#1004,#1005));
#571=AXIS2_PLACEMENT_3D('',#1006,#1007,#1008);
#572=SURFACE_SIDE_STYLE('',(#1009));
#573=EDGE_LOOP('',(#1010,#1011,#1012,#1013));
#574=AXIS2_PLACEMENT_3D('',#1014,#1015,#1016);
#575=SURFACE_SIDE_STYLE('',(#1017));
#576=EDGE_LOOP('',(#1018,#1019,#1020,#1021));
#577=AXIS2_PLACEMENT_3D('',#1022,#1023,#1024);
#578=SURFACE_SIDE_STYLE('',(#1025));
#579=EDGE_LOOP('',(#1026,#1027,#1028,#1029));
#580=AXIS2_PLACEMENT_3D('',#1030,#1031,#1032);
#581=SURFACE_SIDE_STYLE('',(#1033));
#582=EDGE_LOOP('',(#1034,#1035,#1036,#1037));
#583=AXIS2_PLACEMENT_3D('',#1038,#1039,#1040);
#584=SURFACE_SIDE_STYLE('',(#1041));
#585=EDGE_LOOP('',(#1042,#1043,#1044,#1045));
#586=AXIS2_PLACEMENT_3D('',#1046,#1047,#1048);
#587=SURFACE_SIDE_STYLE('',(#1049));
#588=EDGE_LOOP('',(#1050,#1051,#1052,#1053));
#589=AXIS2_PLACEMENT_3D('',#1054,#1055,#1056);
#590=SURFACE_SIDE_STYLE('',(#1057));
#591=EDGE_LOOP('',(#1058,#1059,#1060,#1061));
#592=AXIS2_PLACEMENT_3D('',#1062,#1063,#1064);
#593=SURFACE_SIDE_STYLE('',(#1065));
#594=EDGE_LOOP('',(#1066,#1067,#1068,#1069));
#595=AXIS2_PLACEMENT_3D('',#1070,#1071,#1072);
#596=SURFACE_SIDE_STYLE('',(#1073));
#597=EDGE_LOOP('',(#1074,#1075));
#598=EDGE_LOOP('',(#1076,#1077,#1078,#1079,#1080,#1081,#1082,#1083,#1084,#1085,#1086,#1087));
#599=AXIS2_PLACEMENT_3D('',#1088,#1089,#1090);
#600=SURFACE_SIDE_STYLE('',(#1091));
#602= (NAMED_UNIT(#424)LENGTH_UNIT()SI_UNIT(.MILLI.,.METRE.));
#603=SURFACE_STYLE_FILL_AREA(#1093);
#604=ORIENTED_EDGE('',*,*,#1094,.F.);
#605=ORIENTED_EDGE('',*,*,#1095,.T.);
#606=ORIENTED_EDGE('',*,*,#1096,.F.);
#607=ORIENTED_EDGE('',*,*,#1097,.F.);
#608=CARTESIAN_POINT('',(0.0,0.0,2.35));
#609=DIRECTION('',(0.0,0.0,1.0));
#610=DIRECTION('',(1.0,0.0,0.0));
#611=SURFACE_STYLE_FILL_AREA(#1098);
#612=ORIENTED_EDGE('',*,*,#1099,.F.);
#613=ORIENTED_EDGE('',*,*,#1100,.T.);
#614=ORIENTED_EDGE('',*,*,#1101,.F.);
#615=ORIENTED_EDGE('',*,*,#1102,.T.);
#616=CARTESIAN_POINT('',(0.0,0.0,-3.2));
#617=DIRECTION('',(0.0,0.0,-1.0));
#618=DIRECTION('',(1.0,0.0,0.0));
#619=SURFACE_STYLE_FILL_AREA(#1103);
#620=ORIENTED_EDGE('',*,*,#1104,.F.);
#621=ORIENTED_EDGE('',*,*,#1105,.F.);
#622=ORIENTED_EDGE('',*,*,#1106,.F.);
#623=ORIENTED_EDGE('',*,*,#1100,.F.);
#624=CARTESIAN_POINT('',(0.0,0.0,2.7));
#625=DIRECTION('',(0.0,0.0,-1.0));
#626=DIRECTION('',(-1.0,0.0,0.0));
#627=SURFACE_STYLE_FILL_AREA(#1107);
#628=ORIENTED_EDGE('',*,*,#1108,.F.);
#629=ORIENTED_EDGE('',*,*,#1109,.T.);
#630=ORIENTED_EDGE('',*,*,#1110,.F.);
#631=ORIENTED_EDGE('',*,*,#1111,.F.);
#632=CARTESIAN_POINT('',(0.0,0.0,3.15));
#633=DIRECTION('',(0.0,0.0,-1.0));
#634=DIRECTION('',(1.0,0.0,0.0));
#635=SURFACE_STYLE_FILL_AREA(#1112);
#636=ORIENTED_EDGE('',*,*,#1113,.F.);
#637=ORIENTED_EDGE('',*,*,#1114,.T.);
#638=ORIENTED_EDGE('',*,*,#1115,.F.);
#639=ORIENTED_EDGE('',*,*,#1116,.F.);
#640=CARTESIAN_POINT('',(0.0,0.0,2.1894761042276));
#641=DIRECTION('',(0.0,0.0,-1.0));
#642=DIRECTION('',(-1.0,0.0,0.0));
#643=SURFACE_STYLE_FILL_AREA(#1117);
#644=ORIENTED_EDGE('',*,*,#1118,.F.);
#645=ORIENTED_EDGE('',*,*,#1119,.F.);
#646=ORIENTED_EDGE('',*,*,#1120,.F.);
#647=ORIENTED_EDGE('',*,*,#1102,.F.);
#648=CARTESIAN_POINT('',(0.0,0.0,-8.854625));
#649=DIRECTION('',(-0.0,-0.0,1.0));
#650=DIRECTION('',(-1.0,0.0,0.0));
#651=SURFACE_STYLE_FILL_AREA(#1121);
#652=ORIENTED_EDGE('',*,*,#1118,.T.);
#653=ORIENTED_EDGE('',*,*,#1122,.F.);
#654=ORIENTED_EDGE('',*,*,#1120,.T.);
#655=ORIENTED_EDGE('',*,*,#1123,.F.);
#656=CARTESIAN_POINT('',(0.0,0.0,-8.854625));
#657=DIRECTION('',(-0.0,-0.0,1.0));
#658=DIRECTION('',(-1.0,0.0,0.0));
#659=SURFACE_STYLE_FILL_AREA(#1124);
#660=ORIENTED_EDGE('',*,*,#1125,.F.);
#661=ORIENTED_EDGE('',*,*,#1126,.F.);
#662=ORIENTED_EDGE('',*,*,#1127,.F.);
#663=ORIENTED_EDGE('',*,*,#1128,.T.);
#664=CARTESIAN_POINT('',(1.5,0.0,5.65));
#665=DIRECTION('',(1.0,0.0,0.0));
#666=DIRECTION('',(0.0,-1.0,0.0));
#667=SURFACE_STYLE_FILL_AREA(#1129);
#668=ORIENTED_EDGE('',*,*,#1130,.F.);
#669=ORIENTED_EDGE('',*,*,#1128,.F.);
#670=ORIENTED_EDGE('',*,*,#1131,.F.);
#671=ORIENTED_EDGE('',*,*,#1132,.T.);
#672=CARTESIAN_POINT('',(0.75,1.2990381057,5.65));
#673=DIRECTION('',(0.500000000006738,0.866025403780548,0.0));
#674=DIRECTION('',(0.866025403780548,-0.500000000006738,-0.0));
#675=SURFACE_STYLE_FILL_AREA(#1133);
#676=ORIENTED_EDGE('',*,*,#1134,.F.);
#677=ORIENTED_EDGE('',*,*,#1132,.F.);
#678=ORIENTED_EDGE('',*,*,#1135,.F.);
#679=ORIENTED_EDGE('',*,*,#1136,.T.);
#680=CARTESIAN_POINT('',(-0.75,1.2990381057,5.65));
#681=DIRECTION('',(-0.500000000006738,0.866025403780548,0.0));
#682=DIRECTION('',(0.866025403780548,0.500000000006738,0.0));
#683=SURFACE_STYLE_FILL_AREA(#1137);
#684=ORIENTED_EDGE('',*,*,#1138,.F.);
#685=ORIENTED_EDGE('',*,*,#1136,.F.);
#686=ORIENTED_EDGE('',*,*,#1139,.F.);
#687=ORIENTED_EDGE('',*,*,#1140,.T.);
#688=CARTESIAN_POINT('',(-1.5,-0.4330127019,5.65));
#689=DIRECTION('',(-1.0,0.0,0.0));
#690=DIRECTION('',(0.0,1.0,0.0));
#691=SURFACE_STYLE_FILL_AREA(#1141);
#692=ORIENTED_EDGE('',*,*,#1142,.F.);
#693=ORIENTED_EDGE('',*,*,#1140,.F.);
#694=ORIENTED_EDGE('',*,*,#1143,.F.);
#695=ORIENTED_EDGE('',*,*,#1144,.T.);
#696=CARTESIAN_POINT('',(-0.75,-1.2990381057,5.65));
#697=DIRECTION('',(-0.500000000006738,-0.866025403780548,0.0));
#698=DIRECTION('',(-0.866025403780548,0.500000000006738,0.0));
#699=SURFACE_STYLE_FILL_AREA(#1145);
#700=ORIENTED_EDGE('',*,*,#1146,.F.);
#701=ORIENTED_EDGE('',*,*,#1144,.F.);
#702=ORIENTED_EDGE('',*,*,#1147,.F.);
#703=ORIENTED_EDGE('',*,*,#1126,.T.);
#704=CARTESIAN_POINT('',(0.75,-1.2990381057,5.65));
#705=DIRECTION('',(0.500000000006738,-0.866025403780548,-0.0));
#706=DIRECTION('',(-0.866025403780548,-0.500000000006738,0.0));
#707=SURFACE_STYLE_FILL_AREA(#1148);
#708=ORIENTED_EDGE('',*,*,#1125,.T.);
#709=ORIENTED_EDGE('',*,*,#1130,.T.);
#710=ORIENTED_EDGE('',*,*,#1134,.T.);
#711=ORIENTED_EDGE('',*,*,#1138,.T.);
#712=ORIENTED_EDGE('',*,*,#1142,.T.);
#713=ORIENTED_EDGE('',*,*,#1146,.T.);
#714=CARTESIAN_POINT('',(0.0,-3.36431219586403E-18,3.65));
#715=DIRECTION('',(0.0,0.0,-1.0));
#716=DIRECTION('',(-1.0,0.0,0.0));
#717=SURFACE_STYLE_FILL_AREA(#1149);
#718=ORIENTED_EDGE('',*,*,#1127,.T.);
#719=ORIENTED_EDGE('',*,*,#1147,.T.);
#720=ORIENTED_EDGE('',*,*,#1143,.T.);
#721=ORIENTED_EDGE('',*,*,#1139,.T.);
#722=ORIENTED_EDGE('',*,*,#1135,.T.);
#723=ORIENTED_EDGE('',*,*,#1131,.T.);
#724=ORIENTED_EDGE('',*,*,#1150,.F.);
#725=ORIENTED_EDGE('',*,*,#1114,.F.);
#726=CARTESIAN_POINT('',(1.943428,0.0,5.65));
#727=DIRECTION('',(3.97523327291174E-15,0.0,1.0));
#728=DIRECTION('',(-1.0,0.0,3.97523327291174E-15));
#729=SURFACE_STYLE_FILL_AREA(#1151);
#730=ORIENTED_EDGE('',*,*,#1113,.T.);
#731=ORIENTED_EDGE('',*,*,#1109,.F.);
#732=ORIENTED_EDGE('',*,*,#1115,.T.);
#733=ORIENTED_EDGE('',*,*,#1150,.T.);
#734=CARTESIAN_POINT('',(0.0,0.0,2.1894761042276));
#735=DIRECTION('',(0.0,0.0,-1.0));
#736=DIRECTION('',(-1.0,0.0,0.0));
#737=SURFACE_STYLE_FILL_AREA(#1152);
#738=ORIENTED_EDGE('',*,*,#1108,.T.);
#739=ORIENTED_EDGE('',*,*,#1153,.F.);
#740=ORIENTED_EDGE('',*,*,#1110,.T.);
#741=ORIENTED_EDGE('',*,*,#1116,.T.);
#742=CARTESIAN_POINT('',(0.0,0.0,3.15));
#743=DIRECTION('',(0.0,0.0,-1.0));
#744=DIRECTION('',(1.0,0.0,0.0));
#745=SURFACE_STYLE_FILL_AREA(#1154);
#746=ORIENTED_EDGE('',*,*,#1104,.T.);
#747=ORIENTED_EDGE('',*,*,#1155,.F.);
#748=ORIENTED_EDGE('',*,*,#1106,.T.);
#749=ORIENTED_EDGE('',*,*,#1095,.F.);
#750=CARTESIAN_POINT('',(0.0,0.0,2.7));
#751=DIRECTION('',(0.0,0.0,-1.0));
#752=DIRECTION('',(-1.0,0.0,0.0));
#753=SURFACE_STYLE_FILL_AREA(#1156);
#754=ORIENTED_EDGE('',*,*,#1099,.T.);
#755=ORIENTED_EDGE('',*,*,#1122,.T.);
#756=ORIENTED_EDGE('',*,*,#1101,.T.);
#757=ORIENTED_EDGE('',*,*,#1155,.T.);
#758=CARTESIAN_POINT('',(0.0,0.0,-3.2));
#759=DIRECTION('',(0.0,0.0,-1.0));
#760=DIRECTION('',(1.0,0.0,0.0));
#761=SURFACE_STYLE_FILL_AREA(#1157);
#762=ORIENTED_EDGE('',*,*,#1123,.T.);
#763=ORIENTED_EDGE('',*,*,#1119,.T.);
#764=CARTESIAN_POINT('',(1.25,0.0,-9.1));
#765=DIRECTION('',(0.0,0.0,-1.0));
#766=DIRECTION('',(1.0,0.0,0.0));
#767=SURFACE_STYLE_FILL_AREA(#1158);
#768=ORIENTED_EDGE('',*,*,#1094,.T.);
#769=ORIENTED_EDGE('',*,*,#1159,.F.);
#770=ORIENTED_EDGE('',*,*,#1096,.T.);
#771=ORIENTED_EDGE('',*,*,#1105,.T.);
#772=CARTESIAN_POINT('',(0.0,0.0,2.35));
#773=DIRECTION('',(0.0,0.0,1.0));
#774=DIRECTION('',(1.0,0.0,0.0));
#775=SURFACE_STYLE_FILL_AREA(#1160);
#776=ORIENTED_EDGE('',*,*,#1161,.F.);
#777=ORIENTED_EDGE('',*,*,#1162,.F.);
#778=ORIENTED_EDGE('',*,*,#1163,.T.);
#779=ORIENTED_EDGE('',*,*,#1164,.F.);
#780=ORIENTED_EDGE('',*,*,#1165,.T.);
#781=ORIENTED_EDGE('',*,*,#1166,.T.);
#782=ORIENTED_EDGE('',*,*,#1167,.T.);
#783=ORIENTED_EDGE('',*,*,#1168,.T.);
#784=ORIENTED_EDGE('',*,*,#1169,.T.);
#785=ORIENTED_EDGE('',*,*,#1170,.T.);
#786=CARTESIAN_POINT('',(2.5,-5.38983804710152,1.10026419608411));
#787=DIRECTION('',(-1.0,0.0,0.0));
#788=DIRECTION('',(0.0,-1.0,0.0));
#789=SURFACE_STYLE_FILL_AREA(#1171);
#790=ORIENTED_EDGE('',*,*,#1172,.T.);
#791=ORIENTED_EDGE('',*,*,#1173,.F.);
#792=ORIENTED_EDGE('',*,*,#1162,.T.);
#793=ORIENTED_EDGE('',*,*,#1174,.T.);
#794=CARTESIAN_POINT('',(2.5,-8.1999999999,1.5999999999));
#795=DIRECTION('',(-1.0,0.0,0.0));
#796=DIRECTION('',(0.0,-1.0,7.69227630310791E-11));
#797=SURFACE_STYLE_FILL_AREA(#1175);
#798=ORIENTED_EDGE('',*,*,#1176,.T.);
#799=ORIENTED_EDGE('',*,*,#1177,.F.);
#800=ORIENTED_EDGE('',*,*,#1163,.F.);
#801=ORIENTED_EDGE('',*,*,#1173,.T.);
#802=CARTESIAN_POINT('',(2.5,-9.5,0.7));
#803=DIRECTION('',(0.0,-1.0,0.0));
#804=DIRECTION('',(0.0,0.0,1.0));
#805=SURFACE_STYLE_FILL_AREA(#1178);
#806=ORIENTED_EDGE('',*,*,#1179,.T.);
#807=ORIENTED_EDGE('',*,*,#1180,.F.);
#808=ORIENTED_EDGE('',*,*,#1164,.T.);
#809=ORIENTED_EDGE('',*,*,#1177,.T.);
#810=CARTESIAN_POINT('',(2.5,-7.99999999392331,-0.19999999392331));
#811=DIRECTION('',(-1.0,-0.0,0.0));
#812=DIRECTION('',(0.0,-4.05112682498253E-09,-1.0));
#813=SURFACE_STYLE_FILL_AREA(#1181);
#814=ORIENTED_EDGE('',*,*,#1182,.T.);
#815=ORIENTED_EDGE('',*,*,#1183,.F.);
#816=ORIENTED_EDGE('',*,*,#1165,.F.);
#817=ORIENTED_EDGE('',*,*,#1180,.T.);
#818=CARTESIAN_POINT('',(2.5,-7.88123086,-1.7));
#819=DIRECTION('',(0.0,0.0,-1.0));
#820=DIRECTION('',(0.0,-1.0,0.0));
#821=SURFACE_STYLE_FILL_AREA(#1184);
#822=ORIENTED_EDGE('',*,*,#1185,.T.);
#823=ORIENTED_EDGE('',*,*,#1186,.F.);
#824=ORIENTED_EDGE('',*,*,#1166,.F.);
#825=ORIENTED_EDGE('',*,*,#1183,.T.);
#826=CARTESIAN_POINT('',(2.5,-5.23123086,-0.962213485));
#827=DIRECTION('',(-0.0,0.279829014196682,-0.960049854337634));
#828=DIRECTION('',(0.0,-0.960049854337634,-0.279829014196682));
#829=SURFACE_STYLE_FILL_AREA(#1187);
#830=ORIENTED_EDGE('',*,*,#1188,.T.);
#831=ORIENTED_EDGE('',*,*,#1189,.F.);
#832=ORIENTED_EDGE('',*,*,#1167,.F.);
#833=ORIENTED_EDGE('',*,*,#1186,.T.);
#834=CARTESIAN_POINT('',(2.5,-2.85390596,0.30360045));
#835=DIRECTION('',(0.0,0.960049853283302,0.279829017813934));
#836=DIRECTION('',(0.0,0.279829017813934,-0.960049853283302));
#837=SURFACE_STYLE_FILL_AREA(#1190);
#838=ORIENTED_EDGE('',*,*,#1191,.T.);
#839=ORIENTED_EDGE('',*,*,#1192,.F.);
#840=ORIENTED_EDGE('',*,*,#1168,.F.);
#841=ORIENTED_EDGE('',*,*,#1189,.T.);
#842=CARTESIAN_POINT('',(2.5,-5.28394871,0.168194495));
#843=DIRECTION('',(0.0,-0.279829014564761,0.960049854230349));
#844=DIRECTION('',(0.0,0.960049854230349,0.279829014564761));
#845=SURFACE_STYLE_FILL_AREA(#1193);
#846=ORIENTED_EDGE('',*,*,#1194,.T.);
#847=ORIENTED_EDGE('',*,*,#1195,.F.);
#848=ORIENTED_EDGE('',*,*,#1169,.F.);
#849=ORIENTED_EDGE('',*,*,#1192,.T.);
#850=CARTESIAN_POINT('',(2.5,-7.70000001456263,-0.0152139597593179));
#851=DIRECTION('',(-1.0,0.0,0.0));
#852=DIRECTION('',(0.0,0.279829031678775,-0.960049849242069));
#853=SURFACE_STYLE_FILL_AREA(#1196);
#854=ORIENTED_EDGE('',*,*,#1197,.T.);
#855=ORIENTED_EDGE('',*,*,#1198,.T.);
#856=ORIENTED_EDGE('',*,*,#1170,.F.);
#857=ORIENTED_EDGE('',*,*,#1195,.T.);
#858=CARTESIAN_POINT('',(2.5,-8.20000001,0.892393025));
#859=DIRECTION('',(0.0,1.0,0.0));
#860=DIRECTION('',(0.0,0.0,-1.0));
#861=SURFACE_STYLE_FILL_AREA(#1199);
#862=ORIENTED_EDGE('',*,*,#1200,.F.);
#863=ORIENTED_EDGE('',*,*,#1197,.F.);
#864=ORIENTED_EDGE('',*,*,#1194,.F.);
#865=ORIENTED_EDGE('',*,*,#1191,.F.);
#866=ORIENTED_EDGE('',*,*,#1188,.F.);
#867=ORIENTED_EDGE('',*,*,#1185,.F.);
#868=ORIENTED_EDGE('',*,*,#1182,.F.);
#869=ORIENTED_EDGE('',*,*,#1179,.F.);
#870=ORIENTED_EDGE('',*,*,#1176,.F.);
#871=ORIENTED_EDGE('',*,*,#1172,.F.);
#872=CARTESIAN_POINT('',(-2.5,-5.38983804710152,1.10026419608411));
#873=DIRECTION('',(-1.0,0.0,0.0));
#874=DIRECTION('',(0.0,-1.0,0.0));
#875=SURFACE_STYLE_FILL_AREA(#1201);
#876=ORIENTED_EDGE('',*,*,#1159,.T.);
#877=ORIENTED_EDGE('',*,*,#1097,.T.);
#878=ORIENTED_EDGE('',*,*,#1202,.F.);
#879=ORIENTED_EDGE('',*,*,#1198,.F.);
#880=ORIENTED_EDGE('',*,*,#1203,.F.);
#881=ORIENTED_EDGE('',*,*,#1204,.F.);
#882=ORIENTED_EDGE('',*,*,#1205,.F.);
#883=ORIENTED_EDGE('',*,*,#1206,.F.);
#884=ORIENTED_EDGE('',*,*,#1207,.F.);
#885=ORIENTED_EDGE('',*,*,#1208,.F.);
#886=ORIENTED_EDGE('',*,*,#1209,.F.);
#887=ORIENTED_EDGE('',*,*,#1210,.F.);
#888=ORIENTED_EDGE('',*,*,#1211,.F.);
#889=ORIENTED_EDGE('',*,*,#1212,.F.);
#890=CARTESIAN_POINT('',(-2.95131844937009E-16,0.0,1.8));
#891=DIRECTION('',(0.0,0.0,1.0));
#892=DIRECTION('',(1.0,0.0,0.0));
#893=SURFACE_STYLE_FILL_AREA(#1213);
#894=ORIENTED_EDGE('',*,*,#1200,.T.);
#895=ORIENTED_EDGE('',*,*,#1214,.T.);
#896=ORIENTED_EDGE('',*,*,#1215,.F.);
#897=ORIENTED_EDGE('',*,*,#1203,.T.);
#898=CARTESIAN_POINT('',(0.0,-8.2,1.8));
#899=DIRECTION('',(0.0,-1.0,0.0));
#900=DIRECTION('',(1.0,0.0,0.0));
#901=SURFACE_STYLE_FILL_AREA(#1216);
#902=ORIENTED_EDGE('',*,*,#1217,.F.);
#903=ORIENTED_EDGE('',*,*,#1218,.F.);
#904=ORIENTED_EDGE('',*,*,#1219,.T.);
#905=ORIENTED_EDGE('',*,*,#1220,.F.);
#906=ORIENTED_EDGE('',*,*,#1221,.T.);
#907=ORIENTED_EDGE('',*,*,#1222,.T.);
#908=ORIENTED_EDGE('',*,*,#1223,.T.);
#909=ORIENTED_EDGE('',*,*,#1224,.T.);
#910=ORIENTED_EDGE('',*,*,#1225,.T.);
#911=ORIENTED_EDGE('',*,*,#1226,.T.);
#912=CARTESIAN_POINT('',(-2.5,5.38983804710152,1.10026419608411));
#913=DIRECTION('',(1.0,0.0,0.0));
#914=DIRECTION('',(0.0,1.0,0.0));
#915=SURFACE_STYLE_FILL_AREA(#1227);
#916=ORIENTED_EDGE('',*,*,#1228,.T.);
#917=ORIENTED_EDGE('',*,*,#1229,.F.);
#918=ORIENTED_EDGE('',*,*,#1218,.T.);
#919=ORIENTED_EDGE('',*,*,#1230,.T.);
#920=CARTESIAN_POINT('',(-2.5,8.1999999999,1.5999999999));
#921=DIRECTION('',(1.0,0.0,-0.0));
#922=DIRECTION('',(0.0,1.0,7.69227630310791E-11));
#923=SURFACE_STYLE_FILL_AREA(#1231);
#924=ORIENTED_EDGE('',*,*,#1232,.T.);
#925=ORIENTED_EDGE('',*,*,#1233,.F.);
#926=ORIENTED_EDGE('',*,*,#1219,.F.);
#927=ORIENTED_EDGE('',*,*,#1229,.T.);
#928=CARTESIAN_POINT('',(-2.5,9.5,0.7));
#929=DIRECTION('',(0.0,1.0,0.0));
#930=DIRECTION('',(0.0,0.0,1.0));
#931=SURFACE_STYLE_FILL_AREA(#1234);
#932=ORIENTED_EDGE('',*,*,#1235,.T.);
#933=ORIENTED_EDGE('',*,*,#1236,.F.);
#934=ORIENTED_EDGE('',*,*,#1220,.T.);
#935=ORIENTED_EDGE('',*,*,#1233,.T.);
#936=CARTESIAN_POINT('',(-2.5,7.99999999392331,-0.19999999392331));
#937=DIRECTION('',(1.0,0.0,0.0));
#938=DIRECTION('',(0.0,4.05112682498253E-09,-1.0));
#939=SURFACE_STYLE_FILL_AREA(#1237);
#940=ORIENTED_EDGE('',*,*,#1238,.T.);
#941=ORIENTED_EDGE('',*,*,#1239,.F.);
#942=ORIENTED_EDGE('',*,*,#1221,.F.);
#943=ORIENTED_EDGE('',*,*,#1236,.T.);
#944=CARTESIAN_POINT('',(-2.5,7.88123086,-1.7));
#945=DIRECTION('',(0.0,0.0,-1.0));
#946=DIRECTION('',(0.0,1.0,0.0));
#947=SURFACE_STYLE_FILL_AREA(#1240);
#948=ORIENTED_EDGE('',*,*,#1241,.T.);
#949=ORIENTED_EDGE('',*,*,#1242,.F.);
#950=ORIENTED_EDGE('',*,*,#1222,.F.);
#951=ORIENTED_EDGE('',*,*,#1239,.T.);
#952=CARTESIAN_POINT('',(-2.5,5.23123086,-0.962213485));
#953=DIRECTION('',(0.0,-0.279829014196682,-0.960049854337634));
#954=DIRECTION('',(0.0,0.960049854337634,-0.279829014196682));
#955=SURFACE_STYLE_FILL_AREA(#1243);
#956=ORIENTED_EDGE('',*,*,#1244,.T.);
#957=ORIENTED_EDGE('',*,*,#1245,.F.);
#958=ORIENTED_EDGE('',*,*,#1223,.F.);
#959=ORIENTED_EDGE('',*,*,#1242,.T.);
#960=CARTESIAN_POINT('',(-2.5,2.85390596,0.30360045));
#961=DIRECTION('',(0.0,-0.960049853283302,0.279829017813934));
#962=DIRECTION('',(-0.0,-0.279829017813934,-0.960049853283302));
#963=SURFACE_STYLE_FILL_AREA(#1246);
#964=ORIENTED_EDGE('',*,*,#1247,.T.);
#965=ORIENTED_EDGE('',*,*,#1248,.F.);
#966=ORIENTED_EDGE('',*,*,#1224,.F.);
#967=ORIENTED_EDGE('',*,*,#1245,.T.);
#968=CARTESIAN_POINT('',(-2.5,5.28394871,0.168194495));
#969=DIRECTION('',(0.0,0.279829014564761,0.960049854230349));
#970=DIRECTION('',(0.0,-0.960049854230349,0.279829014564761));
#971=SURFACE_STYLE_FILL_AREA(#1249);
#972=ORIENTED_EDGE('',*,*,#1250,.T.);
#973=ORIENTED_EDGE('',*,*,#1251,.F.);
#974=ORIENTED_EDGE('',*,*,#1225,.F.);
#975=ORIENTED_EDGE('',*,*,#1248,.T.);
#976=CARTESIAN_POINT('',(-2.5,7.70000001456263,-0.0152139597593179));
#977=DIRECTION('',(1.0,0.0,0.0));
#978=DIRECTION('',(0.0,-0.279829031678775,-0.960049849242069));
#979=SURFACE_STYLE_FILL_AREA(#1252);
#980=ORIENTED_EDGE('',*,*,#1253,.T.);
#981=ORIENTED_EDGE('',*,*,#1208,.T.);
#982=ORIENTED_EDGE('',*,*,#1226,.F.);
#983=ORIENTED_EDGE('',*,*,#1251,.T.);
#984=CARTESIAN_POINT('',(-2.5,8.20000001,0.892393025));
#985=DIRECTION('',(0.0,-1.0,-0.0));
#986=DIRECTION('',(-0.0,0.0,-1.0));
#987=SURFACE_STYLE_FILL_AREA(#1254);
#988=ORIENTED_EDGE('',*,*,#1255,.F.);
#989=ORIENTED_EDGE('',*,*,#1253,.F.);
#990=ORIENTED_EDGE('',*,*,#1250,.F.);
#991=ORIENTED_EDGE('',*,*,#1247,.F.);
#992=ORIENTED_EDGE('',*,*,#1244,.F.);
#993=ORIENTED_EDGE('',*,*,#1241,.F.);
#994=ORIENTED_EDGE('',*,*,#1238,.F.);
#995=ORIENTED_EDGE('',*,*,#1235,.F.);
#996=ORIENTED_EDGE('',*,*,#1232,.F.);
#997=ORIENTED_EDGE('',*,*,#1228,.F.);
#998=CARTESIAN_POINT('',(2.5,5.38983804710152,1.10026419608411));
#999=DIRECTION('',(1.0,0.0,0.0));
#1000=DIRECTION('',(0.0,1.0,0.0));
#1001=SURFACE_STYLE_FILL_AREA(#1256);
#1002=ORIENTED_EDGE('',*,*,#1255,.T.);
#1003=ORIENTED_EDGE('',*,*,#1257,.T.);
#1004=ORIENTED_EDGE('',*,*,#1258,.F.);
#1005=ORIENTED_EDGE('',*,*,#1209,.T.);
#1006=CARTESIAN_POINT('',(0.0,8.2,1.8));
#1007=DIRECTION('',(0.0,1.0,0.0));
#1008=DIRECTION('',(-1.0,0.0,0.0));
#1009=SURFACE_STYLE_FILL_AREA(#1259);
#1010=ORIENTED_EDGE('',*,*,#1260,.T.);
#1011=ORIENTED_EDGE('',*,*,#1261,.F.);
#1012=ORIENTED_EDGE('',*,*,#1205,.T.);
#1013=ORIENTED_EDGE('',*,*,#1262,.T.);
#1014=CARTESIAN_POINT('',(-5.0,8.88178419700125E-16,1.8));
#1015=DIRECTION('',(-1.0,0.0,0.0));
#1016=DIRECTION('',(0.0,-1.0,0.0));
#1017=SURFACE_STYLE_FILL_AREA(#1263);
#1018=ORIENTED_EDGE('',*,*,#1264,.T.);
#1019=ORIENTED_EDGE('',*,*,#1265,.F.);
#1020=ORIENTED_EDGE('',*,*,#1206,.T.);
#1021=ORIENTED_EDGE('',*,*,#1261,.T.);
#1022=CARTESIAN_POINT('',(-4.0,7.2,1.8));
#1023=DIRECTION('',(0.0,0.0,1.0));
#1024=DIRECTION('',(-8.88178419700124E-16,1.0,0.0));
#1025=SURFACE_STYLE_FILL_AREA(#1266);
#1026=ORIENTED_EDGE('',*,*,#1217,.T.);
#1027=ORIENTED_EDGE('',*,*,#1207,.T.);
#1028=ORIENTED_EDGE('',*,*,#1265,.T.);
#1029=ORIENTED_EDGE('',*,*,#1267,.T.);
#1030=CARTESIAN_POINT('',(0.0,8.2,1.8));
#1031=DIRECTION('',(0.0,1.0,0.0));
#1032=DIRECTION('',(-1.0,0.0,0.0));
#1033=SURFACE_STYLE_FILL_AREA(#1268);
#1034=ORIENTED_EDGE('',*,*,#1269,.T.);
#1035=ORIENTED_EDGE('',*,*,#1270,.F.);
#1036=ORIENTED_EDGE('',*,*,#1210,.T.);
#1037=ORIENTED_EDGE('',*,*,#1258,.T.);
#1038=CARTESIAN_POINT('',(4.0,7.2,1.8));
#1039=DIRECTION('',(0.0,-0.0,1.0));
#1040=DIRECTION('',(1.0,1.77635683940025E-15,0.0));
#1041=SURFACE_STYLE_FILL_AREA(#1271);
#1042=ORIENTED_EDGE('',*,*,#1272,.T.);
#1043=ORIENTED_EDGE('',*,*,#1273,.F.);
#1044=ORIENTED_EDGE('',*,*,#1211,.T.);
#1045=ORIENTED_EDGE('',*,*,#1270,.T.);
#1046=CARTESIAN_POINT('',(5.0,8.88178419700125E-16,1.8));
#1047=DIRECTION('',(1.0,0.0,0.0));
#1048=DIRECTION('',(0.0,1.0,0.0));
#1049=SURFACE_STYLE_FILL_AREA(#1274);
#1050=ORIENTED_EDGE('',*,*,#1275,.T.);
#1051=ORIENTED_EDGE('',*,*,#1276,.F.);
#1052=ORIENTED_EDGE('',*,*,#1212,.T.);
#1053=ORIENTED_EDGE('',*,*,#1273,.T.);
#1054=CARTESIAN_POINT('',(4.0,-7.2,1.8));
#1055=DIRECTION('',(0.0,0.0,1.0));
#1056=DIRECTION('',(1.77635683940025E-15,-1.0,0.0));
#1057=SURFACE_STYLE_FILL_AREA(#1277);
#1058=ORIENTED_EDGE('',*,*,#1161,.T.);
#1059=ORIENTED_EDGE('',*,*,#1202,.T.);
#1060=ORIENTED_EDGE('',*,*,#1276,.T.);
#1061=ORIENTED_EDGE('',*,*,#1278,.T.);
#1062=CARTESIAN_POINT('',(0.0,-8.2,1.8));
#1063=DIRECTION('',(0.0,-1.0,0.0));
#1064=DIRECTION('',(1.0,0.0,0.0));
#1065=SURFACE_STYLE_FILL_AREA(#1279);
#1066=ORIENTED_EDGE('',*,*,#1280,.T.);
#1067=ORIENTED_EDGE('',*,*,#1262,.F.);
#1068=ORIENTED_EDGE('',*,*,#1204,.T.);
#1069=ORIENTED_EDGE('',*,*,#1215,.T.);
#1070=CARTESIAN_POINT('',(-4.0,-7.2,1.8));
#1071=DIRECTION('',(0.0,0.0,1.0));
#1072=DIRECTION('',(-1.0,-1.77635683940025E-15,0.0));
#1073=SURFACE_STYLE_FILL_AREA(#1281);
#1074=ORIENTED_EDGE('',*,*,#1111,.T.);
#1075=ORIENTED_EDGE('',*,*,#1153,.T.);
#1076=ORIENTED_EDGE('',*,*,#1174,.F.);
#1077=ORIENTED_EDGE('',*,*,#1278,.F.);
#1078=ORIENTED_EDGE('',*,*,#1275,.F.);
#1079=ORIENTED_EDGE('',*,*,#1272,.F.);
#1080=ORIENTED_EDGE('',*,*,#1269,.F.);
#1081=ORIENTED_EDGE('',*,*,#1257,.F.);
#1082=ORIENTED_EDGE('',*,*,#1230,.F.);
#1083=ORIENTED_EDGE('',*,*,#1267,.F.);
#1084=ORIENTED_EDGE('',*,*,#1264,.F.);
#1085=ORIENTED_EDGE('',*,*,#1260,.F.);
#1086=ORIENTED_EDGE('',*,*,#1280,.F.);
#1087=ORIENTED_EDGE('',*,*,#1214,.F.);
#1088=CARTESIAN_POINT('',(-2.22044604925031E-16,-5.56576977819793E-18,2.9));
#1089=DIRECTION('',(0.0,0.0,1.0));
#1090=DIRECTION('',(1.0,0.0,0.0));
#1091=SURFACE_STYLE_FILL_AREA(#1282);
#1093=FILL_AREA_STYLE('',(#1283));
#1094=EDGE_CURVE('',#1284,#1285,#1286,.T.);
#1095=EDGE_CURVE('',#1284,#1287,#1288,.T.);
#1096=EDGE_CURVE('',#1289,#1287,#1290,.T.);
#1097=EDGE_CURVE('',#1285,#1289,#1291,.T.);
#1098=FILL_AREA_STYLE('',(#1292));
#1099=EDGE_CURVE('',#1293,#1294,#1295,.T.);
#1100=EDGE_CURVE('',#1293,#1296,#1297,.T.);
#1101=EDGE_CURVE('',#1298,#1296,#1299,.T.);
#1102=EDGE_CURVE('',#1298,#1294,#1300,.T.);
#1103=FILL_AREA_STYLE('',(#1301));
#1104=EDGE_CURVE('',#1284,#1293,#1302,.T.);
#1105=EDGE_CURVE('',#1287,#1284,#1303,.T.);
#1106=EDGE_CURVE('',#1296,#1287,#1304,.T.);
#1107=FILL_AREA_STYLE('',(#1305));
#1108=EDGE_CURVE('',#1306,#1307,#1308,.T.);
#1109=EDGE_CURVE('',#1306,#1309,#1310,.T.);
#1110=EDGE_CURVE('',#1311,#1309,#1312,.T.);
#1111=EDGE_CURVE('',#1307,#1311,#1313,.T.);
#1112=FILL_AREA_STYLE('',(#1314));
#1113=EDGE_CURVE('',#1315,#1309,#1316,.T.);
#1114=EDGE_CURVE('',#1315,#1317,#1318,.T.);
#1115=EDGE_CURVE('',#1306,#1317,#1319,.T.);
#1116=EDGE_CURVE('',#1309,#1306,#1320,.T.);
#1117=FILL_AREA_STYLE('',(#1321));
#1118=EDGE_CURVE('',#1322,#1298,#1323,.T.);
#1119=EDGE_CURVE('',#1324,#1322,#1325,.T.);
#1120=EDGE_CURVE('',#1294,#1324,#1326,.T.);
#1121=FILL_AREA_STYLE('',(#1327));
#1122=EDGE_CURVE('',#1294,#1298,#1328,.T.);
#1123=EDGE_CURVE('',#1322,#1324,#1329,.T.);
#1124=FILL_AREA_STYLE('',(#1330));
#1125=EDGE_CURVE('',#1331,#1332,#1333,.T.);
#1126=EDGE_CURVE('',#1334,#1331,#1335,.T.);
#1127=EDGE_CURVE('',#1336,#1334,#1337,.T.);
#1128=EDGE_CURVE('',#1336,#1332,#1338,.T.);
#1129=FILL_AREA_STYLE('',(#1339));
#1130=EDGE_CURVE('',#1332,#1340,#1341,.T.);
#1131=EDGE_CURVE('',#1342,#1336,#1343,.T.);
#1132=EDGE_CURVE('',#1342,#1340,#1344,.T.);
#1133=FILL_AREA_STYLE('',(#1345));
#1134=EDGE_CURVE('',#1340,#1346,#1347,.T.);
#1135=EDGE_CURVE('',#1348,#1342,#1349,.T.);
#1136=EDGE_CURVE('',#1348,#1346,#1350,.T.);
#1137=FILL_AREA_STYLE('',(#1351));
#1138=EDGE_CURVE('',#1346,#1352,#1353,.T.);
#1139=EDGE_CURVE('',#1354,#1348,#1355,.T.);
#1140=EDGE_CURVE('',#1354,#1352,#1356,.T.);
#1141=FILL_AREA_STYLE('',(#1357));
#1142=EDGE_CURVE('',#1352,#1358,#1359,.T.);
#1143=EDGE_CURVE('',#1360,#1354,#1361,.T.);
#1144=EDGE_CURVE('',#1360,#1358,#1362,.T.);
#1145=FILL_AREA_STYLE('',(#1363));
#1146=EDGE_CURVE('',#1358,#1331,#1364,.T.);
#1147=EDGE_CURVE('',#1334,#1360,#1365,.T.);
#1148=FILL_AREA_STYLE('',(#1366));
#1149=FILL_AREA_STYLE('',(#1367));
#1150=EDGE_CURVE('',#1317,#1315,#1368,.T.);
#1151=FILL_AREA_STYLE('',(#1369));
#1152=FILL_AREA_STYLE('',(#1370));
#1153=EDGE_CURVE('',#1311,#1307,#1371,.T.);
#1154=FILL_AREA_STYLE('',(#1372));
#1155=EDGE_CURVE('',#1296,#1293,#1373,.T.);
#1156=FILL_AREA_STYLE('',(#1374));
#1157=FILL_AREA_STYLE('',(#1375));
#1158=FILL_AREA_STYLE('',(#1376));
#1159=EDGE_CURVE('',#1289,#1285,#1377,.T.);
#1160=FILL_AREA_STYLE('',(#1378));
#1161=EDGE_CURVE('',#1379,#1380,#1381,.T.);
#1162=EDGE_CURVE('',#1382,#1379,#1383,.T.);
#1163=EDGE_CURVE('',#1382,#1384,#1385,.T.);
#1164=EDGE_CURVE('',#1386,#1384,#1387,.T.);
#1165=EDGE_CURVE('',#1386,#1388,#1389,.T.);
#1166=EDGE_CURVE('',#1388,#1390,#1391,.T.);
#1167=EDGE_CURVE('',#1390,#1392,#1393,.T.);
#1168=EDGE_CURVE('',#1392,#1394,#1395,.T.);
#1169=EDGE_CURVE('',#1394,#1396,#1397,.T.);
#1170=EDGE_CURVE('',#1396,#1380,#1398,.T.);
#1171=FILL_AREA_STYLE('',(#1399));
#1172=EDGE_CURVE('',#1400,#1401,#1402,.T.);
#1173=EDGE_CURVE('',#1382,#1401,#1403,.T.);
#1174=EDGE_CURVE('',#1379,#1400,#1404,.T.);
#1175=FILL_AREA_STYLE('',(#1405));
#1176=EDGE_CURVE('',#1401,#1406,#1407,.T.);
#1177=EDGE_CURVE('',#1384,#1406,#1408,.T.);
#1178=FILL_AREA_STYLE('',(#1409));
#1179=EDGE_CURVE('',#1406,#1410,#1411,.T.);
#1180=EDGE_CURVE('',#1386,#1410,#1412,.T.);
#1181=FILL_AREA_STYLE('',(#1413));
#1182=EDGE_CURVE('',#1410,#1414,#1415,.T.);
#1183=EDGE_CURVE('',#1388,#1414,#1416,.T.);
#1184=FILL_AREA_STYLE('',(#1417));
#1185=EDGE_CURVE('',#1414,#1418,#1419,.T.);
#1186=EDGE_CURVE('',#1390,#1418,#1420,.T.);
#1187=FILL_AREA_STYLE('',(#1421));
#1188=EDGE_CURVE('',#1418,#1422,#1423,.T.);
#1189=EDGE_CURVE('',#1392,#1422,#1424,.T.);
#1190=FILL_AREA_STYLE('',(#1425));
#1191=EDGE_CURVE('',#1422,#1426,#1427,.T.);
#1192=EDGE_CURVE('',#1394,#1426,#1428,.T.);
#1193=FILL_AREA_STYLE('',(#1429));
#1194=EDGE_CURVE('',#1426,#1430,#1431,.T.);
#1195=EDGE_CURVE('',#1396,#1430,#1432,.T.);
#1196=FILL_AREA_STYLE('',(#1433));
#1197=EDGE_CURVE('',#1430,#1434,#1435,.T.);
#1198=EDGE_CURVE('',#1434,#1380,#1436,.T.);
#1199=FILL_AREA_STYLE('',(#1437));
#1200=EDGE_CURVE('',#1434,#1400,#1438,.T.);
#1201=FILL_AREA_STYLE('',(#1439));
#1202=EDGE_CURVE('',#1380,#1440,#1441,.T.);
#1203=EDGE_CURVE('',#1442,#1434,#1443,.T.);
#1204=EDGE_CURVE('',#1444,#1442,#1445,.T.);
#1205=EDGE_CURVE('',#1446,#1444,#1447,.T.);
#1206=EDGE_CURVE('',#1448,#1446,#1449,.T.);
#1207=EDGE_CURVE('',#1450,#1448,#1451,.T.);
#1208=EDGE_CURVE('',#1452,#1450,#1453,.T.);
#1209=EDGE_CURVE('',#1454,#1452,#1455,.T.);
#1210=EDGE_CURVE('',#1456,#1454,#1457,.T.);
#1211=EDGE_CURVE('',#1458,#1456,#1459,.T.);
#1212=EDGE_CURVE('',#1440,#1458,#1460,.T.);
#1213=FILL_AREA_STYLE('',(#1461));
#1214=EDGE_CURVE('',#1400,#1462,#1463,.T.);
#1215=EDGE_CURVE('',#1442,#1462,#1464,.T.);
#1216=FILL_AREA_STYLE('',(#1465));
#1217=EDGE_CURVE('',#1466,#1450,#1467,.T.);
#1218=EDGE_CURVE('',#1468,#1466,#1469,.T.);
#1219=EDGE_CURVE('',#1468,#1470,#1471,.T.);
#1220=EDGE_CURVE('',#1472,#1470,#1473,.T.);
#1221=EDGE_CURVE('',#1472,#1474,#1475,.T.);
#1222=EDGE_CURVE('',#1474,#1476,#1477,.T.);
#1223=EDGE_CURVE('',#1476,#1478,#1479,.T.);
#1224=EDGE_CURVE('',#1478,#1480,#1481,.T.);
#1225=EDGE_CURVE('',#1480,#1482,#1483,.T.);
#1226=EDGE_CURVE('',#1482,#1450,#1484,.T.);
#1227=FILL_AREA_STYLE('',(#1485));
#1228=EDGE_CURVE('',#1486,#1487,#1488,.T.);
#1229=EDGE_CURVE('',#1468,#1487,#1489,.T.);
#1230=EDGE_CURVE('',#1466,#1486,#1490,.T.);
#1231=FILL_AREA_STYLE('',(#1491));
#1232=EDGE_CURVE('',#1487,#1492,#1493,.T.);
#1233=EDGE_CURVE('',#1470,#1492,#1494,.T.);
#1234=FILL_AREA_STYLE('',(#1495));
#1235=EDGE_CURVE('',#1492,#1496,#1497,.T.);
#1236=EDGE_CURVE('',#1472,#1496,#1498,.T.);
#1237=FILL_AREA_STYLE('',(#1499));
#1238=EDGE_CURVE('',#1496,#1500,#1501,.T.);
#1239=EDGE_CURVE('',#1474,#1500,#1502,.T.);
#1240=FILL_AREA_STYLE('',(#1503));
#1241=EDGE_CURVE('',#1500,#1504,#1505,.T.);
#1242=EDGE_CURVE('',#1476,#1504,#1506,.T.);
#1243=FILL_AREA_STYLE('',(#1507));
#1244=EDGE_CURVE('',#1504,#1508,#1509,.T.);
#1245=EDGE_CURVE('',#1478,#1508,#1510,.T.);
#1246=FILL_AREA_STYLE('',(#1511));
#1247=EDGE_CURVE('',#1508,#1512,#1513,.T.);
#1248=EDGE_CURVE('',#1480,#1512,#1514,.T.);
#1249=FILL_AREA_STYLE('',(#1515));
#1250=EDGE_CURVE('',#1512,#1516,#1517,.T.);
#1251=EDGE_CURVE('',#1482,#1516,#1518,.T.);
#1252=FILL_AREA_STYLE('',(#1519));
#1253=EDGE_CURVE('',#1516,#1452,#1520,.T.);
#1254=FILL_AREA_STYLE('',(#1521));
#1255=EDGE_CURVE('',#1452,#1486,#1522,.T.);
#1256=FILL_AREA_STYLE('',(#1523));
#1257=EDGE_CURVE('',#1486,#1524,#1525,.T.);
#1258=EDGE_CURVE('',#1454,#1524,#1526,.T.);
#1259=FILL_AREA_STYLE('',(#1527));
#1260=EDGE_CURVE('',#1528,#1529,#1530,.T.);
#1261=EDGE_CURVE('',#1446,#1529,#1531,.T.);
#1262=EDGE_CURVE('',#1444,#1528,#1532,.T.);
#1263=FILL_AREA_STYLE('',(#1533));
#1264=EDGE_CURVE('',#1529,#1534,#1535,.T.);
#1265=EDGE_CURVE('',#1448,#1534,#1536,.T.);
#1266=FILL_AREA_STYLE('',(#1537));
#1267=EDGE_CURVE('',#1534,#1466,#1538,.T.);
#1268=FILL_AREA_STYLE('',(#1539));
#1269=EDGE_CURVE('',#1524,#1540,#1541,.T.);
#1270=EDGE_CURVE('',#1456,#1540,#1542,.T.);
#1271=FILL_AREA_STYLE('',(#1543));
#1272=EDGE_CURVE('',#1540,#1544,#1545,.T.);
#1273=EDGE_CURVE('',#1458,#1544,#1546,.T.);
#1274=FILL_AREA_STYLE('',(#1547));
#1275=EDGE_CURVE('',#1544,#1548,#1549,.T.);
#1276=EDGE_CURVE('',#1440,#1548,#1550,.T.);
#1277=FILL_AREA_STYLE('',(#1551));
#1278=EDGE_CURVE('',#1548,#1379,#1552,.T.);
#1279=FILL_AREA_STYLE('',(#1553));
#1280=EDGE_CURVE('',#1462,#1528,#1554,.T.);
#1281=FILL_AREA_STYLE('',(#1555));
#1282=FILL_AREA_STYLE('',(#1556));
#1283=FILL_AREA_STYLE_COLOUR('',#1557);
#1284=VERTEX_POINT('',#1558);
#1285=VERTEX_POINT('',#1559);
#1286=LINE('',#1560,#1561);
#1287=VERTEX_POINT('',#1562);
#1288=CIRCLE('',#1563,2.6);
#1289=VERTEX_POINT('',#1564);
#1290=LINE('',#1565,#1566);
#1291=CIRCLE('',#1567,2.6);
#1292=FILL_AREA_STYLE_COLOUR('',#1568);
#1293=VERTEX_POINT('',#1569);
#1294=VERTEX_POINT('',#1570);
#1295=LINE('',#1571,#1572);
#1296=VERTEX_POINT('',#1573);
#1297=CIRCLE('',#1574,2.5);
#1298=VERTEX_POINT('',#1575);
#1299=LINE('',#1576,#1577);
#1300=CIRCLE('',#1578,2.5);
#1301=FILL_AREA_STYLE_COLOUR('',#1579);
#1302=CIRCLE('',#1580,0.2);
#1303=CIRCLE('',#1581,2.6);
#1304=CIRCLE('',#1582,0.2);
#1305=FILL_AREA_STYLE_COLOUR('',#1583);
#1306=VERTEX_POINT('',#1584);
#1307=VERTEX_POINT('',#1585);
#1308=LINE('',#1586,#1587);
#1309=VERTEX_POINT('',#1588);
#1310=CIRCLE('',#1589,4.75);
#1311=VERTEX_POINT('',#1590);
#1312=LINE('',#1591,#1592);
#1313=CIRCLE('',#1593,4.75);
#1314=FILL_AREA_STYLE_COLOUR('',#1594);
#1315=VERTEX_POINT('',#1595);
#1316=CIRCLE('',#1596,3.53933509296191);
#1317=VERTEX_POINT('',#1597);
#1318=CIRCLE('',#1598,2.166856);
#1319=CIRCLE('',#1599,3.53933509296191);
#1320=CIRCLE('',#1600,4.75);
#1321=FILL_AREA_STYLE_COLOUR('',#1601);
#1322=VERTEX_POINT('',#1602);
#1323=LINE('',#1603,#1604);
#1324=VERTEX_POINT('',#1605);
#1325=CIRCLE('',#1606,2.00925);
#1326=LINE('',#1607,#1608);
#1327=FILL_AREA_STYLE_COLOUR('',#1609);
#1328=CIRCLE('',#1610,2.5);
#1329=CIRCLE('',#1611,2.00925);
#1330=FILL_AREA_STYLE_COLOUR('',#1612);
#1331=VERTEX_POINT('',#1613);
#1332=VERTEX_POINT('',#1614);
#1333=LINE('',#1615,#1616);
#1334=VERTEX_POINT('',#1617);
#1335=LINE('',#1618,#1619);
#1336=VERTEX_POINT('',#1620);
#1337=LINE('',#1621,#1622);
#1338=LINE('',#1623,#1624);
#1339=FILL_AREA_STYLE_COLOUR('',#1625);
#1340=VERTEX_POINT('',#1626);
#1341=LINE('',#1627,#1628);
#1342=VERTEX_POINT('',#1629);
#1343=LINE('',#1630,#1631);
#1344=LINE('',#1632,#1633);
#1345=FILL_AREA_STYLE_COLOUR('',#1634);
#1346=VERTEX_POINT('',#1635);
#1347=LINE('',#1636,#1637);
#1348=VERTEX_POINT('',#1638);
#1349=LINE('',#1639,#1640);
#1350=LINE('',#1641,#1642);
#1351=FILL_AREA_STYLE_COLOUR('',#1643);
#1352=VERTEX_POINT('',#1644);
#1353=LINE('',#1645,#1646);
#1354=VERTEX_POINT('',#1647);
#1355=LINE('',#1648,#1649);
#1356=LINE('',#1650,#1651);
#1357=FILL_AREA_STYLE_COLOUR('',#1652);
#1358=VERTEX_POINT('',#1653);
#1359=LINE('',#1654,#1655);
#1360=VERTEX_POINT('',#1656);
#1361=LINE('',#1657,#1658);
#1362=LINE('',#1659,#1660);
#1363=FILL_AREA_STYLE_COLOUR('',#1661);
#1364=LINE('',#1662,#1663);
#1365=LINE('',#1664,#1665);
#1366=FILL_AREA_STYLE_COLOUR('',#1666);
#1367=FILL_AREA_STYLE_COLOUR('',#1667);
#1368=CIRCLE('',#1668,2.166856);
#1369=FILL_AREA_STYLE_COLOUR('',#1669);
#1370=FILL_AREA_STYLE_COLOUR('',#1670);
#1371=CIRCLE('',#1671,4.75);
#1372=FILL_AREA_STYLE_COLOUR('',#1672);
#1373=CIRCLE('',#1673,2.5);
#1374=FILL_AREA_STYLE_COLOUR('',#1674);
#1375=FILL_AREA_STYLE_COLOUR('',#1675);
#1376=FILL_AREA_STYLE_COLOUR('',#1676);
#1377=CIRCLE('',#1677,2.6);
#1378=FILL_AREA_STYLE_COLOUR('',#1678);
#1379=VERTEX_POINT('',#1679);
#1380=VERTEX_POINT('',#1680);
#1381=LINE('',#1681,#1682);
#1382=VERTEX_POINT('',#1683);
#1383=CIRCLE('',#1684,1.3);
#1384=VERTEX_POINT('',#1685);
#1385=LINE('',#1686,#1687);
#1386=VERTEX_POINT('',#1688);
#1387=CIRCLE('',#1689,1.50000000607669);
#1388=VERTEX_POINT('',#1690);
#1389=LINE('',#1691,#1692);
#1390=VERTEX_POINT('',#1693);
#1391=LINE('',#1694,#1695);
#1392=VERTEX_POINT('',#1696);
#1393=LINE('',#1697,#1698);
#1394=VERTEX_POINT('',#1699);
#1395=LINE('',#1700,#1701);
#1396=VERTEX_POINT('',#1702);
#1397=CIRCLE('',#1703,0.49999999543737);
#1398=LINE('',#1704,#1705);
#1399=FILL_AREA_STYLE_COLOUR('',#1706);
#1400=VERTEX_POINT('',#1707);
#1401=VERTEX_POINT('',#1708);
#1402=CIRCLE('',#1709,1.3);
#1403=LINE('',#1710,#1711);
#1404=LINE('',#1712,#1713);
#1405=FILL_AREA_STYLE_COLOUR('',#1714);
#1406=VERTEX_POINT('',#1715);
#1407=LINE('',#1716,#1717);
#1408=LINE('',#1718,#1719);
#1409=FILL_AREA_STYLE_COLOUR('',#1720);
#1410=VERTEX_POINT('',#1721);
#1411=CIRCLE('',#1722,1.50000000607669);
#1412=LINE('',#1723,#1724);
#1413=FILL_AREA_STYLE_COLOUR('',#1725);
#1414=VERTEX_POINT('',#1726);
#1415=LINE('',#1727,#1728);
#1416=LINE('',#1729,#1730);
#1417=FILL_AREA_STYLE_COLOUR('',#1731);
#1418=VERTEX_POINT('',#1732);
#1419=LINE('',#1733,#1734);
#1420=LINE('',#1735,#1736);
#1421=FILL_AREA_STYLE_COLOUR('',#1737);
#1422=VERTEX_POINT('',#1738);
#1423=LINE('',#1739,#1740);
#1424=LINE('',#1741,#1742);
#1425=FILL_AREA_STYLE_COLOUR('',#1743);
#1426=VERTEX_POINT('',#1744);
#1427=LINE('',#1745,#1746);
#1428=LINE('',#1747,#1748);
#1429=FILL_AREA_STYLE_COLOUR('',#1749);
#1430=VERTEX_POINT('',#1750);
#1431=CIRCLE('',#1751,0.49999999543737);
#1432=LINE('',#1752,#1753);
#1433=FILL_AREA_STYLE_COLOUR('',#1754);
#1434=VERTEX_POINT('',#1755);
#1435=LINE('',#1756,#1757);
#1436=LINE('',#1758,#1759);
#1437=FILL_AREA_STYLE_COLOUR('',#1760);
#1438=LINE('',#1761,#1762);
#1439=FILL_AREA_STYLE_COLOUR('',#1763);
#1440=VERTEX_POINT('',#1764);
#1441=LINE('',#1765,#1766);
#1442=VERTEX_POINT('',#1767);
#1443=LINE('',#1768,#1769);
#1444=VERTEX_POINT('',#1770);
#1445=CIRCLE('',#1771,1.0);
#1446=VERTEX_POINT('',#1772);
#1447=LINE('',#1773,#1774);
#1448=VERTEX_POINT('',#1775);
#1449=CIRCLE('',#1776,1.0);
#1450=VERTEX_POINT('',#1777);
#1451=LINE('',#1778,#1779);
#1452=VERTEX_POINT('',#1780);
#1453=LINE('',#1781,#1782);
#1454=VERTEX_POINT('',#1783);
#1455=LINE('',#1784,#1785);
#1456=VERTEX_POINT('',#1786);
#1457=CIRCLE('',#1787,1.0);
#1458=VERTEX_POINT('',#1788);
#1459=LINE('',#1789,#1790);
#1460=CIRCLE('',#1791,1.0);
#1461=FILL_AREA_STYLE_COLOUR('',#1792);
#1462=VERTEX_POINT('',#1793);
#1463=LINE('',#1794,#1795);
#1464=LINE('',#1796,#1797);
#1465=FILL_AREA_STYLE_COLOUR('',#1798);
#1466=VERTEX_POINT('',#1799);
#1467=LINE('',#1800,#1801);
#1468=VERTEX_POINT('',#1802);
#1469=CIRCLE('',#1803,1.3);
#1470=VERTEX_POINT('',#1804);
#1471=LINE('',#1805,#1806);
#1472=VERTEX_POINT('',#1807);
#1473=CIRCLE('',#1808,1.50000000607669);
#1474=VERTEX_POINT('',#1809);
#1475=LINE('',#1810,#1811);
#1476=VERTEX_POINT('',#1812);
#1477=LINE('',#1813,#1814);
#1478=VERTEX_POINT('',#1815);
#1479=LINE('',#1816,#1817);
#1480=VERTEX_POINT('',#1818);
#1481=LINE('',#1819,#1820);
#1482=VERTEX_POINT('',#1821);
#1483=CIRCLE('',#1822,0.49999999543737);
#1484=LINE('',#1823,#1824);
#1485=FILL_AREA_STYLE_COLOUR('',#1825);
#1486=VERTEX_POINT('',#1826);
#1487=VERTEX_POINT('',#1827);
#1488=CIRCLE('',#1828,1.3);
#1489=LINE('',#1829,#1830);
#1490=LINE('',#1831,#1832);
#1491=FILL_AREA_STYLE_COLOUR('',#1833);
#1492=VERTEX_POINT('',#1834);
#1493=LINE('',#1835,#1836);
#1494=LINE('',#1837,#1838);
#1495=FILL_AREA_STYLE_COLOUR('',#1839);
#1496=VERTEX_POINT('',#1840);
#1497=CIRCLE('',#1841,1.50000000607669);
#1498=LINE('',#1842,#1843);
#1499=FILL_AREA_STYLE_COLOUR('',#1844);
#1500=VERTEX_POINT('',#1845);
#1501=LINE('',#1846,#1847);
#1502=LINE('',#1848,#1849);
#1503=FILL_AREA_STYLE_COLOUR('',#1850);
#1504=VERTEX_POINT('',#1851);
#1505=LINE('',#1852,#1853);
#1506=LINE('',#1854,#1855);
#1507=FILL_AREA_STYLE_COLOUR('',#1856);
#1508=VERTEX_POINT('',#1857);
#1509=LINE('',#1858,#1859);
#1510=LINE('',#1860,#1861);
#1511=FILL_AREA_STYLE_COLOUR('',#1862);
#1512=VERTEX_POINT('',#1863);
#1513=LINE('',#1864,#1865);
#1514=LINE('',#1866,#1867);
#1515=FILL_AREA_STYLE_COLOUR('',#1868);
#1516=VERTEX_POINT('',#1869);
#1517=CIRCLE('',#1870,0.49999999543737);
#1518=LINE('',#1871,#1872);
#1519=FILL_AREA_STYLE_COLOUR('',#1873);
#1520=LINE('',#1874,#1875);
#1521=FILL_AREA_STYLE_COLOUR('',#1876);
#1522=LINE('',#1877,#1878);
#1523=FILL_AREA_STYLE_COLOUR('',#1879);
#1524=VERTEX_POINT('',#1880);
#1525=LINE('',#1881,#1882);
#1526=LINE('',#1883,#1884);
#1527=FILL_AREA_STYLE_COLOUR('',#1885);
#1528=VERTEX_POINT('',#1886);
#1529=VERTEX_POINT('',#1887);
#1530=LINE('',#1888,#1889);
#1531=LINE('',#1890,#1891);
#1532=LINE('',#1892,#1893);
#1533=FILL_AREA_STYLE_COLOUR('',#1894);
#1534=VERTEX_POINT('',#1895);
#1535=CIRCLE('',#1896,1.0);
#1536=LINE('',#1897,#1898);
#1537=FILL_AREA_STYLE_COLOUR('',#1899);
#1538=LINE('',#1900,#1901);
#1539=FILL_AREA_STYLE_COLOUR('',#1902);
#1540=VERTEX_POINT('',#1903);
#1541=CIRCLE('',#1904,1.0);
#1542=LINE('',#1905,#1906);
#1543=FILL_AREA_STYLE_COLOUR('',#1907);
#1544=VERTEX_POINT('',#1908);
#1545=LINE('',#1909,#1910);
#1546=LINE('',#1911,#1912);
#1547=FILL_AREA_STYLE_COLOUR('',#1913);
#1548=VERTEX_POINT('',#1914);
#1549=CIRCLE('',#1915,1.0);
#1550=LINE('',#1916,#1917);
#1551=FILL_AREA_STYLE_COLOUR('',#1918);
#1552=LINE('',#1919,#1920);
#1553=FILL_AREA_STYLE_COLOUR('',#1921);
#1554=CIRCLE('',#1922,1.0);
#1555=FILL_AREA_STYLE_COLOUR('',#1923);
#1556=FILL_AREA_STYLE_COLOUR('',#1924);
#1557=COLOUR_RGB('',0.792156875133514,0.882352948188782,1.0);
#1558=CARTESIAN_POINT('',(2.6,3.18408167778312E-16,2.87320508075689));
#1559=CARTESIAN_POINT('',(2.6,-3.18408167778312E-16,1.8));
#1560=CARTESIAN_POINT('',(2.6,-3.18408167778312E-16,2.35));
#1561=VECTOR('',#1925,1.0);
#1562=CARTESIAN_POINT('',(-2.6,-3.18408167778312E-16,2.87320508075689));
#1563=AXIS2_PLACEMENT_3D('',#1926,#1927,#1928);
#1564=CARTESIAN_POINT('',(-2.6,-3.18408167778312E-16,1.8));
#1565=CARTESIAN_POINT('',(-2.6,3.18408167778312E-16,2.35));
#1566=VECTOR('',#1929,1.0);
#1567=AXIS2_PLACEMENT_3D('',#1930,#1931,#1932);
#1568=COLOUR_RGB('',0.792156875133514,0.882352948188782,1.0);
#1569=CARTESIAN_POINT('',(2.5,0.0,2.7));
#1570=CARTESIAN_POINT('',(2.5,3.06161699786838E-16,-8.60925));
#1571=CARTESIAN_POINT('',(2.5,3.06161699786838E-16,-3.2));
#1572=VECTOR('',#1933,1.0);
#1573=CARTESIAN_POINT('',(-2.5,-3.06161699786838E-16,2.7));
#1574=AXIS2_PLACEMENT_3D('',#1934,#1935,#1936);
#1575=CARTESIAN_POINT('',(-2.5,0.0,-8.60925));
#1576=CARTESIAN_POINT('',(-2.5,-3.06161699786838E-16,-3.2));
#1577=VECTOR('',#1937,1.0);
#1578=AXIS2_PLACEMENT_3D('',#1938,#1939,#1940);
#1579=COLOUR_RGB('',0.792156875133514,0.882352948188782,1.0);
#1580=AXIS2_PLACEMENT_3D('',#1941,#1942,#1943);
#1581=AXIS2_PLACEMENT_3D('',#1944,#1945,#1946);
#1582=AXIS2_PLACEMENT_3D('',#1947,#1948,#1949);
#1583=COLOUR_RGB('',0.792156875133514,0.882352948188782,1.0);
#1584=CARTESIAN_POINT('',(4.75,0.0,3.4));
#1585=CARTESIAN_POINT('',(4.75,0.0,2.9));
#1586=CARTESIAN_POINT('',(4.75,5.81707229594993E-16,3.15));
#1587=VECTOR('',#1950,1.0);
#1588=CARTESIAN_POINT('',(-4.75,-5.81707229594993E-16,3.4));
#1589=AXIS2_PLACEMENT_3D('',#1951,#1952,#1953);
#1590=CARTESIAN_POINT('',(-4.75,-5.81707229594993E-16,2.9));
#1591=CARTESIAN_POINT('',(-4.75,-5.81707229594993E-16,3.15));
#1592=VECTOR('',#1954,1.0);
#1593=AXIS2_PLACEMENT_3D('',#1955,#1956,#1957);
#1594=COLOUR_RGB('',0.792156875133514,0.882352948188782,1.0);
#1595=CARTESIAN_POINT('',(-2.166856,-2.65363326461324E-16,5.65));
#1596=AXIS2_PLACEMENT_3D('',#1958,#1959,#1960);
#1597=CARTESIAN_POINT('',(2.166856,0.0,5.65));
#1598=AXIS2_PLACEMENT_3D('',#1961,#1962,#1963);
#1599=AXIS2_PLACEMENT_3D('',#1964,#1965,#1966);
#1600=AXIS2_PLACEMENT_3D('',#1967,#1968,#1969);
#1601=COLOUR_RGB('',0.792156875133514,0.882352948188782,1.0);
#1602=CARTESIAN_POINT('',(-2.00925,0.0,-9.1));
#1603=CARTESIAN_POINT('',(-2.254625,-2.7611192895276E-16,-8.854625));
#1604=VECTOR('',#1970,1.0);
#1605=CARTESIAN_POINT('',(2.00925,2.46062158118682E-16,-9.1));
#1606=AXIS2_PLACEMENT_3D('',#1971,#1972,#1973);
#1607=CARTESIAN_POINT('',(2.254625,2.7611192895276E-16,-8.854625));
#1608=VECTOR('',#1974,1.0);
#1609=COLOUR_RGB('',0.792156875133514,0.882352948188782,1.0);
#1610=AXIS2_PLACEMENT_3D('',#1975,#1976,#1977);
#1611=AXIS2_PLACEMENT_3D('',#1978,#1979,#1980);
#1612=COLOUR_RGB('',0.792156875133514,0.882352948188782,1.0);
#1613=CARTESIAN_POINT('',(1.5,-0.8660254038,3.65));
#1614=CARTESIAN_POINT('',(1.5,0.8660254038,3.65));
#1615=CARTESIAN_POINT('',(1.5,0.8660254038,3.65));
#1616=VECTOR('',#1981,1.0);
#1617=CARTESIAN_POINT('',(1.5,-0.8660254038,5.65));
#1618=CARTESIAN_POINT('',(1.5,-0.8660254038,5.65));
#1619=VECTOR('',#1982,1.0);
#1620=CARTESIAN_POINT('',(1.5,0.8660254038,5.65));
#1621=CARTESIAN_POINT('',(1.5,0.0,5.65));
#1622=VECTOR('',#1983,1.0);
#1623=CARTESIAN_POINT('',(1.5,0.8660254038,5.65));
#1624=VECTOR('',#1984,1.0);
#1625=COLOUR_RGB('',0.792156875133514,0.882352948188782,1.0);
#1626=CARTESIAN_POINT('',(0.0,1.7320508076,3.65));
#1627=CARTESIAN_POINT('',(0.0,1.7320508076,3.65));
#1628=VECTOR('',#1985,1.0);
#1629=CARTESIAN_POINT('',(0.0,1.7320508076,5.65));
#1630=CARTESIAN_POINT('',(1.47878550000356,0.878273601083888,5.65));
#1631=VECTOR('',#1986,1.0);
#1632=CARTESIAN_POINT('',(0.0,1.7320508076,5.65));
#1633=VECTOR('',#1987,1.0);
#1634=COLOUR_RGB('',0.792156875133514,0.882352948188782,1.0);
#1635=CARTESIAN_POINT('',(-1.5,0.8660254038,3.65));
#1636=CARTESIAN_POINT('',(-1.5,0.8660254038,3.65));
#1637=VECTOR('',#1988,1.0);
#1638=CARTESIAN_POINT('',(-1.5,0.8660254038,5.65));
#1639=CARTESIAN_POINT('',(-0.0212145000166549,1.71980261030444,5.65000000000001));
#1640=VECTOR('',#1989,1.0);
#1641=CARTESIAN_POINT('',(-1.5,0.8660254038,5.65));
#1642=VECTOR('',#1990,1.0);
#1643=COLOUR_RGB('',0.792156875133514,0.882352948188782,1.0);
#1644=CARTESIAN_POINT('',(-1.5,-0.8660254038,3.65));
#1645=CARTESIAN_POINT('',(-1.5,0.0,3.65));
#1646=VECTOR('',#1991,1.0);
#1647=CARTESIAN_POINT('',(-1.5,-0.8660254038,5.65));
#1648=CARTESIAN_POINT('',(-1.5,-0.21650635095,5.65));
#1649=VECTOR('',#1992,1.0);
#1650=CARTESIAN_POINT('',(-1.5,-0.8660254038,5.65));
#1651=VECTOR('',#1993,1.0);
#1652=COLOUR_RGB('',0.792156875133514,0.882352948188782,1.0);
#1653=CARTESIAN_POINT('',(0.0,-1.7320508076,3.65));
#1654=CARTESIAN_POINT('',(0.0,-1.7320508076,3.65));
#1655=VECTOR('',#1994,1.0);
#1656=CARTESIAN_POINT('',(0.0,-1.7320508076,5.65));
#1657=CARTESIAN_POINT('',(-0.0212145000166549,-1.71980261030444,5.65000000000001));
#1658=VECTOR('',#1995,1.0);
#1659=CARTESIAN_POINT('',(0.0,-1.7320508076,5.65));
#1660=VECTOR('',#1996,1.0);
#1661=COLOUR_RGB('',0.792156875133514,0.882352948188782,1.0);
#1662=CARTESIAN_POINT('',(1.5,-0.8660254038,3.65));
#1663=VECTOR('',#1997,1.0);
#1664=CARTESIAN_POINT('',(1.47878550000356,-0.878273601083888,5.65));
#1665=VECTOR('',#1998,1.0);
#1666=COLOUR_RGB('',0.792156875133514,0.882352948188782,1.0);
#1667=COLOUR_RGB('',0.792156875133514,0.882352948188782,1.0);
#1668=AXIS2_PLACEMENT_3D('',#1999,#2000,#2001);
#1669=COLOUR_RGB('',0.792156875133514,0.882352948188782,1.0);
#1670=COLOUR_RGB('',0.792156875133514,0.882352948188782,1.0);
#1671=AXIS2_PLACEMENT_3D('',#2002,#2003,#2004);
#1672=COLOUR_RGB('',0.792156875133514,0.882352948188782,1.0);
#1673=AXIS2_PLACEMENT_3D('',#2005,#2006,#2007);
#1674=COLOUR_RGB('',0.792156875133514,0.882352948188782,1.0);
#1675=COLOUR_RGB('',0.792156875133514,0.882352948188782,1.0);
#1676=COLOUR_RGB('',0.792156875133514,0.882352948188782,1.0);
#1677=AXIS2_PLACEMENT_3D('',#2008,#2009,#2010);
#1678=COLOUR_RGB('',0.792156875133514,0.882352948188782,1.0);
#1679=CARTESIAN_POINT('',(2.5,-8.2,2.9));
#1680=CARTESIAN_POINT('',(2.5,-8.20000001,1.8));
#1681=CARTESIAN_POINT('',(2.5,-8.20000001,1.45013209804206));
#1682=VECTOR('',#2011,1.0);
#1683=CARTESIAN_POINT('',(2.5,-9.4999999999,1.6));
#1684=AXIS2_PLACEMENT_3D('',#2012,#2013,#2014);
#1685=CARTESIAN_POINT('',(2.5,-9.5,-0.2));
#1686=CARTESIAN_POINT('',(2.5,-9.5,1.6));
#1687=VECTOR('',#2015,1.0);
#1688=CARTESIAN_POINT('',(2.5,-8.0,-1.7));
#1689=AXIS2_PLACEMENT_3D('',#2016,#2017,#2018);
#1690=CARTESIAN_POINT('',(2.5,-7.76246172,-1.7));
#1691=CARTESIAN_POINT('',(2.5,-8.0,-1.7));
#1692=VECTOR('',#2019,1.0);
#1693=CARTESIAN_POINT('',(2.5,-2.7,-0.22442697));
#1694=CARTESIAN_POINT('',(2.5,-7.76246172,-1.7));
#1695=VECTOR('',#2020,1.0);
#1696=CARTESIAN_POINT('',(2.5,-3.00781192,0.83162787));
#1697=CARTESIAN_POINT('',(2.5,-2.7,-0.22442697));
#1698=VECTOR('',#2021,1.0);
#1699=CARTESIAN_POINT('',(2.5,-7.5600855,-0.49523888));
#1700=CARTESIAN_POINT('',(2.5,-3.00781192,0.83162787));
#1701=VECTOR('',#2022,1.0);
#1702=CARTESIAN_POINT('',(2.5,-8.20000001,-0.0152139499999999));
#1703=AXIS2_PLACEMENT_3D('',#2023,#2024,#2025);
#1704=CARTESIAN_POINT('',(2.5,-8.20000001,-0.0152139499999999));
#1705=VECTOR('',#2026,1.0);
#1706=COLOUR_RGB('',0.792156875133514,0.882352948188782,1.0);
#1707=CARTESIAN_POINT('',(-2.5,-8.2,2.9));
#1708=CARTESIAN_POINT('',(-2.5,-9.4999999999,1.6));
#1709=AXIS2_PLACEMENT_3D('',#2027,#2028,#2029);
#1710=CARTESIAN_POINT('',(2.5,-9.4999999999,1.6));
#1711=VECTOR('',#2030,1.0);
#1712=CARTESIAN_POINT('',(-4.0,-8.2,2.9));
#1713=VECTOR('',#2031,1.0);
#1714=COLOUR_RGB('',0.792156875133514,0.882352948188782,1.0);
#1715=CARTESIAN_POINT('',(-2.5,-9.5,-0.2));
#1716=CARTESIAN_POINT('',(-2.5,-9.5,1.6));
#1717=VECTOR('',#2032,1.0);
#1718=CARTESIAN_POINT('',(2.5,-9.5,-0.2));
#1719=VECTOR('',#2033,1.0);
#1720=COLOUR_RGB('',0.792156875133514,0.882352948188782,1.0);
#1721=CARTESIAN_POINT('',(-2.5,-8.0,-1.7));
#1722=AXIS2_PLACEMENT_3D('',#2034,#2035,#2036);
#1723=CARTESIAN_POINT('',(2.5,-8.0,-1.7));
#1724=VECTOR('',#2037,1.0);
#1725=COLOUR_RGB('',0.792156875133514,0.882352948188782,1.0);
#1726=CARTESIAN_POINT('',(-2.5,-7.76246172,-1.7));
#1727=CARTESIAN_POINT('',(-2.5,-8.0,-1.7));
#1728=VECTOR('',#2038,1.0);
#1729=CARTESIAN_POINT('',(2.5,-7.76246172,-1.7));
#1730=VECTOR('',#2039,1.0);
#1731=COLOUR_RGB('',0.792156875133514,0.882352948188782,1.0);
#1732=CARTESIAN_POINT('',(-2.5,-2.7,-0.22442697));
#1733=CARTESIAN_POINT('',(-2.5,-7.76246172,-1.7));
#1734=VECTOR('',#2040,1.0);
#1735=CARTESIAN_POINT('',(2.5,-2.7,-0.22442697));
#1736=VECTOR('',#2041,1.0);
#1737=COLOUR_RGB('',0.792156875133514,0.882352948188782,1.0);
#1738=CARTESIAN_POINT('',(-2.5,-3.00781192,0.83162787));
#1739=CARTESIAN_POINT('',(-2.5,-2.7,-0.22442697));
#1740=VECTOR('',#2042,1.0);
#1741=CARTESIAN_POINT('',(2.5,-3.00781192,0.83162787));
#1742=VECTOR('',#2043,1.0);
#1743=COLOUR_RGB('',0.792156875133514,0.882352948188782,1.0);
#1744=CARTESIAN_POINT('',(-2.5,-7.5600855,-0.49523888));
#1745=CARTESIAN_POINT('',(-2.5,-3.00781192,0.83162787));
#1746=VECTOR('',#2044,1.0);
#1747=CARTESIAN_POINT('',(2.5,-7.5600855,-0.49523888));
#1748=VECTOR('',#2045,1.0);
#1749=COLOUR_RGB('',0.792156875133514,0.882352948188782,1.0);
#1750=CARTESIAN_POINT('',(-2.5,-8.20000001,-0.0152139499999999));
#1751=AXIS2_PLACEMENT_3D('',#2046,#2047,#2048);
#1752=CARTESIAN_POINT('',(2.5,-8.20000001,-0.0152139499999999));
#1753=VECTOR('',#2049,1.0);
#1754=COLOUR_RGB('',0.792156875133514,0.882352948188782,1.0);
#1755=CARTESIAN_POINT('',(-2.5,-8.20000001,1.8));
#1756=CARTESIAN_POINT('',(-2.5,-8.20000001,-0.0152139499999999));
#1757=VECTOR('',#2050,1.0);
#1758=CARTESIAN_POINT('',(-4.0,-8.2,1.8));
#1759=VECTOR('',#2051,1.0);
#1760=COLOUR_RGB('',0.792156875133514,0.882352948188782,1.0);
#1761=CARTESIAN_POINT('',(-2.5,-8.20000001,1.45013209804206));
#1762=VECTOR('',#2052,1.0);
#1763=COLOUR_RGB('',0.792156875133514,0.882352948188782,1.0);
#1764=CARTESIAN_POINT('',(4.0,-8.2,1.8));
#1765=CARTESIAN_POINT('',(-4.0,-8.2,1.8));
#1766=VECTOR('',#2053,1.0);
#1767=CARTESIAN_POINT('',(-4.0,-8.2,1.8));
#1768=CARTESIAN_POINT('',(-4.0,-8.2,1.8));
#1769=VECTOR('',#2054,1.0);
#1770=CARTESIAN_POINT('',(-5.0,-7.2,1.8));
#1771=AXIS2_PLACEMENT_3D('',#2055,#2056,#2057);
#1772=CARTESIAN_POINT('',(-5.0,7.2,1.8));
#1773=CARTESIAN_POINT('',(-5.0,7.2,1.8));
#1774=VECTOR('',#2058,1.0);
#1775=CARTESIAN_POINT('',(-4.0,8.2,1.8));
#1776=AXIS2_PLACEMENT_3D('',#2059,#2060,#2061);
#1777=CARTESIAN_POINT('',(-2.5,8.20000001,1.8));
#1778=CARTESIAN_POINT('',(4.0,8.2,1.8));
#1779=VECTOR('',#2062,1.0);
#1780=CARTESIAN_POINT('',(2.5,8.20000001,1.8));
#1781=CARTESIAN_POINT('',(4.0,8.2,1.8));
#1782=VECTOR('',#2063,1.0);
#1783=CARTESIAN_POINT('',(4.0,8.2,1.8));
#1784=CARTESIAN_POINT('',(4.0,8.2,1.8));
#1785=VECTOR('',#2064,1.0);
#1786=CARTESIAN_POINT('',(5.0,7.2,1.8));
#1787=AXIS2_PLACEMENT_3D('',#2065,#2066,#2067);
#1788=CARTESIAN_POINT('',(5.0,-7.2,1.8));
#1789=CARTESIAN_POINT('',(5.0,-7.2,1.8));
#1790=VECTOR('',#2068,1.0);
#1791=AXIS2_PLACEMENT_3D('',#2069,#2070,#2071);
#1792=COLOUR_RGB('',0.792156875133514,0.882352948188782,1.0);
#1793=CARTESIAN_POINT('',(-4.0,-8.2,2.9));
#1794=CARTESIAN_POINT('',(-4.0,-8.2,2.9));
#1795=VECTOR('',#2072,1.0);
#1796=CARTESIAN_POINT('',(-4.0,-8.2,1.8));
#1797=VECTOR('',#2073,1.0);
#1798=COLOUR_RGB('',0.792156875133514,0.882352948188782,1.0);
#1799=CARTESIAN_POINT('',(-2.5,8.2,2.9));
#1800=CARTESIAN_POINT('',(-2.5,8.20000001,1.45013209804206));
#1801=VECTOR('',#2074,1.0);
#1802=CARTESIAN_POINT('',(-2.5,9.4999999999,1.6));
#1803=AXIS2_PLACEMENT_3D('',#2075,#2076,#2077);
#1804=CARTESIAN_POINT('',(-2.5,9.5,-0.2));
#1805=CARTESIAN_POINT('',(-2.5,9.5,1.6));
#1806=VECTOR('',#2078,1.0);
#1807=CARTESIAN_POINT('',(-2.5,8.0,-1.7));
#1808=AXIS2_PLACEMENT_3D('',#2079,#2080,#2081);
#1809=CARTESIAN_POINT('',(-2.5,7.76246172,-1.7));
#1810=CARTESIAN_POINT('',(-2.5,8.0,-1.7));
#1811=VECTOR('',#2082,1.0);
#1812=CARTESIAN_POINT('',(-2.5,2.7,-0.22442697));
#1813=CARTESIAN_POINT('',(-2.5,7.76246172,-1.7));
#1814=VECTOR('',#2083,1.0);
#1815=CARTESIAN_POINT('',(-2.5,3.00781192,0.83162787));
#1816=CARTESIAN_POINT('',(-2.5,2.7,-0.22442697));
#1817=VECTOR('',#2084,1.0);
#1818=CARTESIAN_POINT('',(-2.5,7.5600855,-0.49523888));
#1819=CARTESIAN_POINT('',(-2.5,3.00781192,0.83162787));
#1820=VECTOR('',#2085,1.0);
#1821=CARTESIAN_POINT('',(-2.5,8.20000001,-0.0152139499999999));
#1822=AXIS2_PLACEMENT_3D('',#2086,#2087,#2088);
#1823=CARTESIAN_POINT('',(-2.5,8.20000001,-0.0152139499999999));
#1824=VECTOR('',#2089,1.0);
#1825=COLOUR_RGB('',0.792156875133514,0.882352948188782,1.0);
#1826=CARTESIAN_POINT('',(2.5,8.2,2.9));
#1827=CARTESIAN_POINT('',(2.5,9.4999999999,1.6));
#1828=AXIS2_PLACEMENT_3D('',#2090,#2091,#2092);
#1829=CARTESIAN_POINT('',(-2.5,9.4999999999,1.6));
#1830=VECTOR('',#2093,1.0);
#1831=CARTESIAN_POINT('',(4.0,8.2,2.9));
#1832=VECTOR('',#2094,1.0);
#1833=COLOUR_RGB('',0.792156875133514,0.882352948188782,1.0);
#1834=CARTESIAN_POINT('',(2.5,9.5,-0.2));
#1835=CARTESIAN_POINT('',(2.5,9.5,1.6));
#1836=VECTOR('',#2095,1.0);
#1837=CARTESIAN_POINT('',(-2.5,9.5,-0.2));
#1838=VECTOR('',#2096,1.0);
#1839=COLOUR_RGB('',0.792156875133514,0.882352948188782,1.0);
#1840=CARTESIAN_POINT('',(2.5,8.0,-1.7));
#1841=AXIS2_PLACEMENT_3D('',#2097,#2098,#2099);
#1842=CARTESIAN_POINT('',(-2.5,8.0,-1.7));
#1843=VECTOR('',#2100,1.0);
#1844=COLOUR_RGB('',0.792156875133514,0.882352948188782,1.0);
#1845=CARTESIAN_POINT('',(2.5,7.76246172,-1.7));
#1846=CARTESIAN_POINT('',(2.5,8.0,-1.7));
#1847=VECTOR('',#2101,1.0);
#1848=CARTESIAN_POINT('',(-2.5,7.76246172,-1.7));
#1849=VECTOR('',#2102,1.0);
#1850=COLOUR_RGB('',0.792156875133514,0.882352948188782,1.0);
#1851=CARTESIAN_POINT('',(2.5,2.7,-0.22442697));
#1852=CARTESIAN_POINT('',(2.5,7.76246172,-1.7));
#1853=VECTOR('',#2103,1.0);
#1854=CARTESIAN_POINT('',(-2.5,2.7,-0.22442697));
#1855=VECTOR('',#2104,1.0);
#1856=COLOUR_RGB('',0.792156875133514,0.882352948188782,1.0);
#1857=CARTESIAN_POINT('',(2.5,3.00781192,0.83162787));
#1858=CARTESIAN_POINT('',(2.5,2.7,-0.22442697));
#1859=VECTOR('',#2105,1.0);
#1860=CARTESIAN_POINT('',(-2.5,3.00781192,0.83162787));
#1861=VECTOR('',#2106,1.0);
#1862=COLOUR_RGB('',0.792156875133514,0.882352948188782,1.0);
#1863=CARTESIAN_POINT('',(2.5,7.5600855,-0.49523888));
#1864=CARTESIAN_POINT('',(2.5,3.00781192,0.83162787));
#1865=VECTOR('',#2107,1.0);
#1866=CARTESIAN_POINT('',(-2.5,7.5600855,-0.49523888));
#1867=VECTOR('',#2108,1.0);
#1868=COLOUR_RGB('',0.792156875133514,0.882352948188782,1.0);
#1869=CARTESIAN_POINT('',(2.5,8.20000001,-0.0152139499999999));
#1870=AXIS2_PLACEMENT_3D('',#2109,#2110,#2111);
#1871=CARTESIAN_POINT('',(-2.5,8.20000001,-0.0152139499999999));
#1872=VECTOR('',#2112,1.0);
#1873=COLOUR_RGB('',0.792156875133514,0.882352948188782,1.0);
#1874=CARTESIAN_POINT('',(2.5,8.20000001,-0.0152139499999999));
#1875=VECTOR('',#2113,1.0);
#1876=COLOUR_RGB('',0.792156875133514,0.882352948188782,1.0);
#1877=CARTESIAN_POINT('',(2.5,8.20000001,1.45013209804206));
#1878=VECTOR('',#2114,1.0);
#1879=COLOUR_RGB('',0.792156875133514,0.882352948188782,1.0);
#1880=CARTESIAN_POINT('',(4.0,8.2,2.9));
#1881=CARTESIAN_POINT('',(4.0,8.2,2.9));
#1882=VECTOR('',#2115,1.0);
#1883=CARTESIAN_POINT('',(4.0,8.2,1.8));
#1884=VECTOR('',#2116,1.0);
#1885=COLOUR_RGB('',0.792156875133514,0.882352948188782,1.0);
#1886=CARTESIAN_POINT('',(-5.0,-7.2,2.9));
#1887=CARTESIAN_POINT('',(-5.0,7.2,2.9));
#1888=CARTESIAN_POINT('',(-5.0,7.2,2.9));
#1889=VECTOR('',#2117,1.0);
#1890=CARTESIAN_POINT('',(-5.0,7.2,1.8));
#1891=VECTOR('',#2118,1.0);
#1892=CARTESIAN_POINT('',(-5.0,-7.2,1.8));
#1893=VECTOR('',#2119,1.0);
#1894=COLOUR_RGB('',0.792156875133514,0.882352948188782,1.0);
#1895=CARTESIAN_POINT('',(-4.0,8.2,2.9));
#1896=AXIS2_PLACEMENT_3D('',#2120,#2121,#2122);
#1897=CARTESIAN_POINT('',(-4.0,8.2,1.8));
#1898=VECTOR('',#2123,1.0);
#1899=COLOUR_RGB('',0.792156875133514,0.882352948188782,1.0);
#1900=CARTESIAN_POINT('',(4.0,8.2,2.9));
#1901=VECTOR('',#2124,1.0);
#1902=COLOUR_RGB('',0.792156875133514,0.882352948188782,1.0);
#1903=CARTESIAN_POINT('',(5.0,7.2,2.9));
#1904=AXIS2_PLACEMENT_3D('',#2125,#2126,#2127);
#1905=CARTESIAN_POINT('',(5.0,7.2,1.8));
#1906=VECTOR('',#2128,1.0);
#1907=COLOUR_RGB('',0.792156875133514,0.882352948188782,1.0);
#1908=CARTESIAN_POINT('',(5.0,-7.2,2.9));
#1909=CARTESIAN_POINT('',(5.0,-7.2,2.9));
#1910=VECTOR('',#2129,1.0);
#1911=CARTESIAN_POINT('',(5.0,-7.2,1.8));
#1912=VECTOR('',#2130,1.0);
#1913=COLOUR_RGB('',0.792156875133514,0.882352948188782,1.0);
#1914=CARTESIAN_POINT('',(4.0,-8.2,2.9));
#1915=AXIS2_PLACEMENT_3D('',#2131,#2132,#2133);
#1916=CARTESIAN_POINT('',(4.0,-8.2,1.8));
#1917=VECTOR('',#2134,1.0);
#1918=COLOUR_RGB('',0.792156875133514,0.882352948188782,1.0);
#1919=CARTESIAN_POINT('',(-4.0,-8.2,2.9));
#1920=VECTOR('',#2135,1.0);
#1921=COLOUR_RGB('',0.792156875133514,0.882352948188782,1.0);
#1922=AXIS2_PLACEMENT_3D('',#2136,#2137,#2138);
#1923=COLOUR_RGB('',0.792156875133514,0.882352948188782,1.0);
#1924=COLOUR_RGB('',0.792156875133514,0.882352948188782,1.0);
#1925=DIRECTION('',(-0.0,0.0,-1.0));
#1926=CARTESIAN_POINT('',(0.0,0.0,2.87320508075689));
#1927=DIRECTION('',(0.0,0.0,1.0));
#1928=DIRECTION('',(1.0,0.0,0.0));
#1929=DIRECTION('',(-0.0,0.0,1.0));
#1930=CARTESIAN_POINT('',(0.0,0.0,1.8));
#1931=DIRECTION('',(0.0,0.0,1.0));
#1932=DIRECTION('',(1.0,0.0,0.0));
#1933=DIRECTION('',(0.0,0.0,-1.0));
#1934=CARTESIAN_POINT('',(0.0,0.0,2.7));
#1935=DIRECTION('',(0.0,0.0,-1.0));
#1936=DIRECTION('',(1.0,0.0,0.0));
#1937=DIRECTION('',(-0.0,-0.0,1.0));
#1938=CARTESIAN_POINT('',(0.0,0.0,-8.60925));
#1939=DIRECTION('',(-5.55111512312578E-17,0.0,1.0));
#1940=DIRECTION('',(1.0,0.0,5.55111512312578E-17));
#1941=CARTESIAN_POINT('',(2.7,3.30654635769785E-16,2.7));
#1942=DIRECTION('',(1.22464679914735E-16,-1.0,-0.0));
#1943=DIRECTION('',(1.0,1.22464679914735E-16,0.0));
#1944=CARTESIAN_POINT('',(0.0,0.0,2.87320508075689));
#1945=DIRECTION('',(0.0,0.0,1.0));
#1946=DIRECTION('',(1.0,0.0,0.0));
#1947=CARTESIAN_POINT('',(-2.7,-3.30654635769785E-16,2.7));
#1948=DIRECTION('',(1.22464679914735E-16,-1.0,-0.0));
#1949=DIRECTION('',(-1.0,-1.22464679914735E-16,0.0));
#1950=DIRECTION('',(0.0,0.0,-1.0));
#1951=CARTESIAN_POINT('',(0.0,0.0,3.4));
#1952=DIRECTION('',(0.0,0.0,-1.0));
#1953=DIRECTION('',(1.0,0.0,0.0));
#1954=DIRECTION('',(-0.0,-0.0,1.0));
#1955=CARTESIAN_POINT('',(0.0,0.0,2.9));
#1956=DIRECTION('',(0.0,0.0,-1.0));
#1957=DIRECTION('',(1.0,0.0,0.0));
#1958=CARTESIAN_POINT('',(-1.42411293065508,-1.74403534215111E-16,2.1894761042276));
#1959=DIRECTION('',(1.22464679914735E-16,-1.0,-0.0));
#1960=DIRECTION('',(-1.0,-1.22464679914735E-16,0.0));
#1961=CARTESIAN_POINT('',(0.0,0.0,5.65));
#1962=DIRECTION('',(0.0,0.0,-1.0));
#1963=DIRECTION('',(1.0,0.0,0.0));
#1964=CARTESIAN_POINT('',(1.42411293065508,1.74403534215111E-16,2.1894761042276));
#1965=DIRECTION('',(1.22464679914735E-16,-1.0,-0.0));
#1966=DIRECTION('',(1.0,1.22464679914735E-16,0.0));
#1967=CARTESIAN_POINT('',(0.0,0.0,3.4));
#1968=DIRECTION('',(0.0,0.0,-1.0));
#1969=DIRECTION('',(1.0,0.0,0.0));
#1970=DIRECTION('',(-0.707106781186547,-8.65956056235493E-17,0.707106781186548));
#1971=CARTESIAN_POINT('',(0.0,0.0,-9.1));
#1972=DIRECTION('',(0.0,0.0,-1.0));
#1973=DIRECTION('',(-1.0,0.0,0.0));
#1974=DIRECTION('',(-0.707106781186547,-8.65956056235493E-17,-0.707106781186548));
#1975=CARTESIAN_POINT('',(0.0,0.0,-8.60925));
#1976=DIRECTION('',(-5.55111512312578E-17,0.0,1.0));
#1977=DIRECTION('',(1.0,0.0,5.55111512312578E-17));
#1978=CARTESIAN_POINT('',(0.0,0.0,-9.1));
#1979=DIRECTION('',(0.0,0.0,-1.0));
#1980=DIRECTION('',(-1.0,0.0,0.0));
#1981=DIRECTION('',(0.0,1.0,0.0));
#1982=DIRECTION('',(0.0,0.0,-1.0));
#1983=DIRECTION('',(0.0,-1.0,0.0));
#1984=DIRECTION('',(0.0,0.0,-1.0));
#1985=DIRECTION('',(-0.866025403780548,0.500000000006738,0.0));
#1986=DIRECTION('',(0.866025403780548,-0.500000000006738,-3.44265300029526E-15));
#1987=DIRECTION('',(0.0,0.0,-1.0));
#1988=DIRECTION('',(-0.866025403780548,-0.500000000006738,0.0));
#1989=DIRECTION('',(0.866025403780548,0.500000000006738,-3.44265300029526E-15));
#1990=DIRECTION('',(0.0,0.0,-1.0));
#1991=DIRECTION('',(0.0,-1.0,0.0));
#1992=DIRECTION('',(0.0,1.0,-0.0));
#1993=DIRECTION('',(0.0,0.0,-1.0));
#1994=DIRECTION('',(0.866025403780548,-0.500000000006738,0.0));
#1995=DIRECTION('',(-0.866025403780548,0.500000000006738,3.44265300029526E-15));
#1996=DIRECTION('',(0.0,0.0,-1.0));
#1997=DIRECTION('',(0.866025403780548,0.500000000006738,0.0));
#1998=DIRECTION('',(-0.866025403780548,-0.500000000006738,3.44265300029526E-15));
#1999=CARTESIAN_POINT('',(0.0,0.0,5.65));
#2000=DIRECTION('',(0.0,0.0,-1.0));
#2001=DIRECTION('',(1.0,0.0,0.0));
#2002=CARTESIAN_POINT('',(0.0,0.0,2.9));
#2003=DIRECTION('',(0.0,0.0,-1.0));
#2004=DIRECTION('',(1.0,0.0,0.0));
#2005=CARTESIAN_POINT('',(0.0,0.0,2.7));
#2006=DIRECTION('',(0.0,0.0,-1.0));
#2007=DIRECTION('',(1.0,0.0,0.0));
#2008=CARTESIAN_POINT('',(0.0,0.0,1.8));
#2009=DIRECTION('',(0.0,0.0,1.0));
#2010=DIRECTION('',(1.0,0.0,0.0));
#2011=DIRECTION('',(-0.0,-0.0,-1.0));
#2012=CARTESIAN_POINT('',(2.5,-8.1999999999,1.5999999999));
#2013=DIRECTION('',(-1.0,0.0,0.0));
#2014=DIRECTION('',(0.0,-1.0,7.69227630310791E-11));
#2015=DIRECTION('',(0.0,0.0,-1.0));
#2016=CARTESIAN_POINT('',(2.5,-7.99999999392331,-0.19999999392331));
#2017=DIRECTION('',(-1.0,-0.0,0.0));
#2018=DIRECTION('',(0.0,-4.05112682498253E-09,-1.0));
#2019=DIRECTION('',(0.0,1.0,0.0));
#2020=DIRECTION('',(0.0,0.960049854337634,0.279829014196682));
#2021=DIRECTION('',(0.0,-0.279829017813934,0.960049853283302));
#2022=DIRECTION('',(0.0,-0.960049854230349,-0.279829014564761));
#2023=CARTESIAN_POINT('',(2.5,-7.70000001456263,-0.0152139597593179));
#2024=DIRECTION('',(-1.0,0.0,0.0));
#2025=DIRECTION('',(0.0,0.279829031678775,-0.960049849242069));
#2026=DIRECTION('',(0.0,0.0,1.0));
#2027=CARTESIAN_POINT('',(-2.5,-8.1999999999,1.5999999999));
#2028=DIRECTION('',(1.0,0.0,0.0));
#2029=DIRECTION('',(0.0,-1.0,7.69227630310791E-11));
#2030=DIRECTION('',(-1.0,0.0,0.0));
#2031=DIRECTION('',(-1.0,-0.0,-0.0));
#2032=DIRECTION('',(0.0,0.0,-1.0));
#2033=DIRECTION('',(-1.0,0.0,0.0));
#2034=CARTESIAN_POINT('',(-2.5,-7.99999999392331,-0.19999999392331));
#2035=DIRECTION('',(1.0,0.0,0.0));
#2036=DIRECTION('',(0.0,-4.05112682498253E-09,-1.0));
#2037=DIRECTION('',(-1.0,0.0,0.0));
#2038=DIRECTION('',(0.0,1.0,0.0));
#2039=DIRECTION('',(-1.0,0.0,0.0));
#2040=DIRECTION('',(0.0,0.960049854337634,0.279829014196682));
#2041=DIRECTION('',(-1.0,0.0,0.0));
#2042=DIRECTION('',(0.0,-0.279829017813934,0.960049853283302));
#2043=DIRECTION('',(-1.0,0.0,0.0));
#2044=DIRECTION('',(0.0,-0.960049854230349,-0.279829014564761));
#2045=DIRECTION('',(-1.0,0.0,0.0));
#2046=CARTESIAN_POINT('',(-2.5,-7.70000001456263,-0.0152139597593179));
#2047=DIRECTION('',(-1.0,0.0,0.0));
#2048=DIRECTION('',(0.0,0.279829031678775,-0.960049849242069));
#2049=DIRECTION('',(-1.0,0.0,0.0));
#2050=DIRECTION('',(0.0,0.0,1.0));
#2051=DIRECTION('',(1.0,0.0,0.0));
#2052=DIRECTION('',(0.0,0.0,1.0));
#2053=DIRECTION('',(1.0,0.0,0.0));
#2054=DIRECTION('',(1.0,0.0,0.0));
#2055=CARTESIAN_POINT('',(-4.0,-7.2,1.8));
#2056=DIRECTION('',(0.0,0.0,1.0));
#2057=DIRECTION('',(-1.0,-1.77635683940025E-15,0.0));
#2058=DIRECTION('',(0.0,-1.0,0.0));
#2059=CARTESIAN_POINT('',(-4.0,7.2,1.8));
#2060=DIRECTION('',(0.0,0.0,1.0));
#2061=DIRECTION('',(-8.88178419700124E-16,1.0,0.0));
#2062=DIRECTION('',(-1.0,0.0,0.0));
#2063=DIRECTION('',(-1.0,0.0,0.0));
#2064=DIRECTION('',(-1.0,0.0,0.0));
#2065=CARTESIAN_POINT('',(4.0,7.2,1.8));
#2066=DIRECTION('',(0.0,-0.0,1.0));
#2067=DIRECTION('',(1.0,1.77635683940025E-15,0.0));
#2068=DIRECTION('',(0.0,1.0,0.0));
#2069=CARTESIAN_POINT('',(4.0,-7.2,1.8));
#2070=DIRECTION('',(0.0,0.0,1.0));
#2071=DIRECTION('',(1.77635683940025E-15,-1.0,0.0));
#2072=DIRECTION('',(-1.0,-0.0,-0.0));
#2073=DIRECTION('',(0.0,0.0,1.0));
#2074=DIRECTION('',(0.0,0.0,-1.0));
#2075=CARTESIAN_POINT('',(-2.5,8.1999999999,1.5999999999));
#2076=DIRECTION('',(1.0,0.0,-0.0));
#2077=DIRECTION('',(0.0,1.0,7.69227630310791E-11));
#2078=DIRECTION('',(0.0,0.0,-1.0));
#2079=CARTESIAN_POINT('',(-2.5,7.99999999392331,-0.19999999392331));
#2080=DIRECTION('',(1.0,0.0,0.0));
#2081=DIRECTION('',(0.0,4.05112682498253E-09,-1.0));
#2082=DIRECTION('',(0.0,-1.0,0.0));
#2083=DIRECTION('',(0.0,-0.960049854337634,0.279829014196682));
#2084=DIRECTION('',(0.0,0.279829017813934,0.960049853283302));
#2085=DIRECTION('',(0.0,0.960049854230349,-0.279829014564761));
#2086=CARTESIAN_POINT('',(-2.5,7.70000001456263,-0.0152139597593179));
#2087=DIRECTION('',(1.0,0.0,0.0));
#2088=DIRECTION('',(0.0,-0.279829031678775,-0.960049849242069));
#2089=DIRECTION('',(0.0,0.0,1.0));
#2090=CARTESIAN_POINT('',(2.5,8.1999999999,1.5999999999));
#2091=DIRECTION('',(-1.0,0.0,0.0));
#2092=DIRECTION('',(0.0,1.0,7.69227630310791E-11));
#2093=DIRECTION('',(1.0,0.0,0.0));
#2094=DIRECTION('',(1.0,0.0,0.0));
#2095=DIRECTION('',(0.0,0.0,-1.0));
#2096=DIRECTION('',(1.0,0.0,0.0));
#2097=CARTESIAN_POINT('',(2.5,7.99999999392331,-0.19999999392331));
#2098=DIRECTION('',(-1.0,0.0,-0.0));
#2099=DIRECTION('',(0.0,4.05112682498253E-09,-1.0));
#2100=DIRECTION('',(1.0,0.0,0.0));
#2101=DIRECTION('',(0.0,-1.0,0.0));
#2102=DIRECTION('',(1.0,0.0,0.0));
#2103=DIRECTION('',(0.0,-0.960049854337634,0.279829014196682));
#2104=DIRECTION('',(1.0,0.0,0.0));
#2105=DIRECTION('',(0.0,0.279829017813934,0.960049853283302));
#2106=DIRECTION('',(1.0,0.0,0.0));
#2107=DIRECTION('',(0.0,0.960049854230349,-0.279829014564761));
#2108=DIRECTION('',(1.0,0.0,0.0));
#2109=CARTESIAN_POINT('',(2.5,7.70000001456263,-0.0152139597593179));
#2110=DIRECTION('',(1.0,0.0,0.0));
#2111=DIRECTION('',(0.0,-0.279829031678775,-0.960049849242069));
#2112=DIRECTION('',(1.0,0.0,0.0));
#2113=DIRECTION('',(0.0,0.0,1.0));
#2114=DIRECTION('',(0.0,0.0,1.0));
#2115=DIRECTION('',(1.0,0.0,0.0));
#2116=DIRECTION('',(0.0,0.0,1.0));
#2117=DIRECTION('',(0.0,1.0,0.0));
#2118=DIRECTION('',(0.0,0.0,1.0));
#2119=DIRECTION('',(0.0,0.0,1.0));
#2120=CARTESIAN_POINT('',(-4.0,7.2,2.9));
#2121=DIRECTION('',(-0.0,0.0,-1.0));
#2122=DIRECTION('',(-8.88178419700124E-16,1.0,0.0));
#2123=DIRECTION('',(0.0,0.0,1.0));
#2124=DIRECTION('',(1.0,0.0,0.0));
#2125=CARTESIAN_POINT('',(4.0,7.2,2.9));
#2126=DIRECTION('',(0.0,0.0,-1.0));
#2127=DIRECTION('',(1.0,1.77635683940025E-15,0.0));
#2128=DIRECTION('',(0.0,0.0,1.0));
#2129=DIRECTION('',(-0.0,-1.0,-0.0));
#2130=DIRECTION('',(0.0,0.0,1.0));
#2131=CARTESIAN_POINT('',(4.0,-7.2,2.9));
#2132=DIRECTION('',(0.0,-0.0,-1.0));
#2133=DIRECTION('',(1.77635683940025E-15,-1.0,0.0));
#2134=DIRECTION('',(0.0,0.0,1.0));
#2135=DIRECTION('',(-1.0,-0.0,-0.0));
#2136=CARTESIAN_POINT('',(-4.0,-7.2,2.9));
#2137=DIRECTION('',(-0.0,0.0,-1.0));
#2138=DIRECTION('',(-1.0,-1.77635683940025E-15,0.0));
ENDSEC;
END-ISO-10303-21;
