ISO-10303-21;
HEADER;
/* Generated by software containing ST-Developer
 * from STEP Tools, Inc. (www.steptools.com) 
 */

FILE_DESCRIPTION(
/* description */ ('STEP AP214'),
/* implementation_level */ '2;1');

FILE_NAME(
/* name */ 'Aruco_Marker_Clamp.stp',
/* time_stamp */ '2025-02-16T12:01:04+01:00',
/* author */ ('Aldi'),
/* organization */ ('CADClick - www.CADClick.com'),
/* preprocessor_version */ 'ST-DEVELOPER v20',
/* originating_system */ 'Autodesk Inventor 2025',
/* authorisation */ 'unknown authorization');

FILE_SCHEMA (('AUTOMOTIVE_DESIGN { 1 0 10303 214 3 1 1 }'));
ENDSEC;

DATA;
#10=MECHANICAL_DESIGN_GEOMETRIC_PRESENTATION_REPRESENTATION('',(#13),#744);
#11=SHAPE_REPRESENTATION_RELATIONSHIP('SRR','None',#751,#12);
#12=ADVANCED_BREP_SHAPE_REPRESENTATION('',(#14),#743);
#13=STYLED_ITEM('',(#760),#14);
#14=MANIFOLD_SOLID_BREP('Volumenk\X\F6rper2',#419);
#15=PLANE('',#445);
#16=PLANE('',#457);
#17=PLANE('',#466);
#18=PLANE('',#469);
#19=PLANE('',#472);
#20=PLANE('',#475);
#21=PLANE('',#482);
#22=PLANE('',#485);
#23=PLANE('',#486);
#24=PLANE('',#487);
#25=FACE_OUTER_BOUND('',#47,.T.);
#26=FACE_OUTER_BOUND('',#48,.T.);
#27=FACE_OUTER_BOUND('',#49,.T.);
#28=FACE_OUTER_BOUND('',#50,.T.);
#29=FACE_OUTER_BOUND('',#51,.T.);
#30=FACE_OUTER_BOUND('',#52,.T.);
#31=FACE_OUTER_BOUND('',#53,.T.);
#32=FACE_OUTER_BOUND('',#54,.T.);
#33=FACE_OUTER_BOUND('',#55,.T.);
#34=FACE_OUTER_BOUND('',#56,.T.);
#35=FACE_OUTER_BOUND('',#57,.T.);
#36=FACE_OUTER_BOUND('',#58,.T.);
#37=FACE_OUTER_BOUND('',#59,.T.);
#38=FACE_OUTER_BOUND('',#60,.T.);
#39=FACE_OUTER_BOUND('',#61,.T.);
#40=FACE_OUTER_BOUND('',#62,.T.);
#41=FACE_OUTER_BOUND('',#63,.T.);
#42=FACE_OUTER_BOUND('',#64,.T.);
#43=FACE_OUTER_BOUND('',#65,.T.);
#44=FACE_OUTER_BOUND('',#66,.T.);
#45=FACE_OUTER_BOUND('',#67,.T.);
#46=FACE_OUTER_BOUND('',#68,.T.);
#47=EDGE_LOOP('',(#265,#266,#267,#268));
#48=EDGE_LOOP('',(#269,#270,#271,#272,#273,#274,#275,#276,#277,#278,#279,
#280,#281,#282,#283,#284,#285,#286,#287,#288));
#49=EDGE_LOOP('',(#289,#290,#291,#292));
#50=EDGE_LOOP('',(#293,#294,#295,#296));
#51=EDGE_LOOP('',(#297,#298,#299,#300));
#52=EDGE_LOOP('',(#301,#302,#303,#304));
#53=EDGE_LOOP('',(#305,#306,#307,#308));
#54=EDGE_LOOP('',(#309,#310,#311,#312));
#55=EDGE_LOOP('',(#313,#314,#315,#316));
#56=EDGE_LOOP('',(#317,#318,#319,#320));
#57=EDGE_LOOP('',(#321,#322,#323,#324));
#58=EDGE_LOOP('',(#325,#326,#327,#328));
#59=EDGE_LOOP('',(#329,#330,#331,#332));
#60=EDGE_LOOP('',(#333,#334,#335,#336));
#61=EDGE_LOOP('',(#337,#338,#339,#340));
#62=EDGE_LOOP('',(#341,#342,#343,#344));
#63=EDGE_LOOP('',(#345,#346,#347,#348));
#64=EDGE_LOOP('',(#349,#350,#351,#352));
#65=EDGE_LOOP('',(#353,#354,#355,#356));
#66=EDGE_LOOP('',(#357,#358,#359,#360));
#67=EDGE_LOOP('',(#361,#362,#363,#364));
#68=EDGE_LOOP('',(#365,#366,#367,#368,#369,#370,#371,#372,#373,#374,#375,
#376,#377,#378,#379,#380,#381,#382,#383,#384));
#69=LINE('',#624,#105);
#70=LINE('',#627,#106);
#71=LINE('',#630,#107);
#72=LINE('',#634,#108);
#73=LINE('',#638,#109);
#74=LINE('',#642,#110);
#75=LINE('',#646,#111);
#76=LINE('',#650,#112);
#77=LINE('',#658,#113);
#78=LINE('',#665,#114);
#79=LINE('',#668,#115);
#80=LINE('',#669,#116);
#81=LINE('',#673,#117);
#82=LINE('',#678,#118);
#83=LINE('',#679,#119);
#84=LINE('',#682,#120);
#85=LINE('',#686,#121);
#86=LINE('',#689,#122);
#87=LINE('',#692,#123);
#88=LINE('',#693,#124);
#89=LINE('',#696,#125);
#90=LINE('',#700,#126);
#91=LINE('',#701,#127);
#92=LINE('',#704,#128);
#93=LINE('',#707,#129);
#94=LINE('',#709,#130);
#95=LINE('',#713,#131);
#96=LINE('',#716,#132);
#97=LINE('',#717,#133);
#98=LINE('',#721,#134);
#99=LINE('',#727,#135);
#100=LINE('',#730,#136);
#101=LINE('',#731,#137);
#102=LINE('',#735,#138);
#103=LINE('',#737,#139);
#104=LINE('',#739,#140);
#105=VECTOR('',#494,10.);
#106=VECTOR('',#497,10.);
#107=VECTOR('',#500,10.);
#108=VECTOR('',#503,10.);
#109=VECTOR('',#506,10.);
#110=VECTOR('',#509,10.);
#111=VECTOR('',#512,10.);
#112=VECTOR('',#515,10.);
#113=VECTOR('',#522,10.);
#114=VECTOR('',#529,10.);
#115=VECTOR('',#532,10.);
#116=VECTOR('',#533,10.);
#117=VECTOR('',#538,10.);
#118=VECTOR('',#543,10.);
#119=VECTOR('',#544,10.);
#120=VECTOR('',#547,10.);
#121=VECTOR('',#552,10.);
#122=VECTOR('',#555,10.);
#123=VECTOR('',#558,10.);
#124=VECTOR('',#559,10.);
#125=VECTOR('',#562,10.);
#126=VECTOR('',#567,10.);
#127=VECTOR('',#568,10.);
#128=VECTOR('',#571,10.);
#129=VECTOR('',#574,10.);
#130=VECTOR('',#577,10.);
#131=VECTOR('',#582,10.);
#132=VECTOR('',#585,10.);
#133=VECTOR('',#586,10.);
#134=VECTOR('',#591,10.);
#135=VECTOR('',#600,10.);
#136=VECTOR('',#603,10.);
#137=VECTOR('',#604,10.);
#138=VECTOR('',#609,10.);
#139=VECTOR('',#612,10.);
#140=VECTOR('',#615,10.);
#141=CIRCLE('',#443,1.79);
#142=CIRCLE('',#444,1.79);
#143=CIRCLE('',#446,1.79);
#144=CIRCLE('',#447,0.5);
#145=CIRCLE('',#448,0.5);
#146=CIRCLE('',#449,0.5);
#147=CIRCLE('',#450,0.5);
#148=CIRCLE('',#451,0.5);
#149=CIRCLE('',#452,3.2);
#150=CIRCLE('',#453,0.5);
#151=CIRCLE('',#454,0.5);
#152=CIRCLE('',#455,1.91);
#153=CIRCLE('',#456,1.79);
#154=CIRCLE('',#459,1.79);
#155=CIRCLE('',#461,1.79);
#156=CIRCLE('',#463,1.91);
#157=CIRCLE('',#465,0.5);
#158=CIRCLE('',#468,0.5);
#159=CIRCLE('',#471,0.5);
#160=CIRCLE('',#474,0.5);
#161=CIRCLE('',#477,0.5);
#162=CIRCLE('',#479,3.2);
#163=CIRCLE('',#481,0.5);
#164=CIRCLE('',#484,0.5);
#165=VERTEX_POINT('',#620);
#166=VERTEX_POINT('',#621);
#167=VERTEX_POINT('',#623);
#168=VERTEX_POINT('',#625);
#169=VERTEX_POINT('',#629);
#170=VERTEX_POINT('',#631);
#171=VERTEX_POINT('',#633);
#172=VERTEX_POINT('',#635);
#173=VERTEX_POINT('',#637);
#174=VERTEX_POINT('',#639);
#175=VERTEX_POINT('',#641);
#176=VERTEX_POINT('',#643);
#177=VERTEX_POINT('',#645);
#178=VERTEX_POINT('',#647);
#179=VERTEX_POINT('',#649);
#180=VERTEX_POINT('',#651);
#181=VERTEX_POINT('',#653);
#182=VERTEX_POINT('',#655);
#183=VERTEX_POINT('',#657);
#184=VERTEX_POINT('',#659);
#185=VERTEX_POINT('',#661);
#186=VERTEX_POINT('',#663);
#187=VERTEX_POINT('',#667);
#188=VERTEX_POINT('',#671);
#189=VERTEX_POINT('',#675);
#190=VERTEX_POINT('',#676);
#191=VERTEX_POINT('',#681);
#192=VERTEX_POINT('',#685);
#193=VERTEX_POINT('',#687);
#194=VERTEX_POINT('',#691);
#195=VERTEX_POINT('',#695);
#196=VERTEX_POINT('',#699);
#197=VERTEX_POINT('',#703);
#198=VERTEX_POINT('',#705);
#199=VERTEX_POINT('',#711);
#200=VERTEX_POINT('',#715);
#201=VERTEX_POINT('',#719);
#202=VERTEX_POINT('',#725);
#203=VERTEX_POINT('',#729);
#204=VERTEX_POINT('',#733);
#205=EDGE_CURVE('',#165,#166,#141,.T.);
#206=EDGE_CURVE('',#166,#167,#69,.T.);
#207=EDGE_CURVE('',#167,#168,#142,.T.);
#208=EDGE_CURVE('',#168,#165,#70,.T.);
#209=EDGE_CURVE('',#169,#167,#71,.T.);
#210=EDGE_CURVE('',#170,#169,#143,.T.);
#211=EDGE_CURVE('',#171,#170,#72,.T.);
#212=EDGE_CURVE('',#172,#171,#144,.T.);
#213=EDGE_CURVE('',#173,#172,#73,.T.);
#214=EDGE_CURVE('',#174,#173,#145,.T.);
#215=EDGE_CURVE('',#175,#174,#74,.T.);
#216=EDGE_CURVE('',#176,#175,#146,.T.);
#217=EDGE_CURVE('',#177,#176,#75,.T.);
#218=EDGE_CURVE('',#178,#177,#147,.T.);
#219=EDGE_CURVE('',#179,#178,#76,.T.);
#220=EDGE_CURVE('',#180,#179,#148,.T.);
#221=EDGE_CURVE('',#181,#180,#149,.T.);
#222=EDGE_CURVE('',#182,#181,#150,.T.);
#223=EDGE_CURVE('',#183,#182,#77,.T.);
#224=EDGE_CURVE('',#184,#183,#151,.T.);
#225=EDGE_CURVE('',#185,#184,#152,.T.);
#226=EDGE_CURVE('',#186,#185,#153,.T.);
#227=EDGE_CURVE('',#168,#186,#78,.T.);
#228=EDGE_CURVE('',#187,#166,#79,.T.);
#229=EDGE_CURVE('',#169,#187,#80,.T.);
#230=EDGE_CURVE('',#187,#188,#154,.T.);
#231=EDGE_CURVE('',#188,#170,#81,.T.);
#232=EDGE_CURVE('',#189,#190,#155,.T.);
#233=EDGE_CURVE('',#190,#186,#82,.T.);
#234=EDGE_CURVE('',#185,#189,#83,.T.);
#235=EDGE_CURVE('',#191,#184,#84,.T.);
#236=EDGE_CURVE('',#189,#191,#156,.T.);
#237=EDGE_CURVE('',#177,#192,#85,.T.);
#238=EDGE_CURVE('',#192,#193,#157,.T.);
#239=EDGE_CURVE('',#193,#178,#86,.T.);
#240=EDGE_CURVE('',#194,#176,#87,.T.);
#241=EDGE_CURVE('',#192,#194,#88,.T.);
#242=EDGE_CURVE('',#175,#195,#89,.T.);
#243=EDGE_CURVE('',#195,#194,#158,.T.);
#244=EDGE_CURVE('',#196,#174,#90,.T.);
#245=EDGE_CURVE('',#195,#196,#91,.T.);
#246=EDGE_CURVE('',#179,#197,#92,.T.);
#247=EDGE_CURVE('',#197,#198,#159,.T.);
#248=EDGE_CURVE('',#198,#180,#93,.T.);
#249=EDGE_CURVE('',#197,#193,#94,.T.);
#250=EDGE_CURVE('',#199,#191,#160,.T.);
#251=EDGE_CURVE('',#183,#199,#95,.T.);
#252=EDGE_CURVE('',#200,#182,#96,.T.);
#253=EDGE_CURVE('',#199,#200,#97,.T.);
#254=EDGE_CURVE('',#201,#200,#161,.T.);
#255=EDGE_CURVE('',#181,#201,#98,.T.);
#256=EDGE_CURVE('',#201,#198,#162,.T.);
#257=EDGE_CURVE('',#202,#196,#163,.T.);
#258=EDGE_CURVE('',#173,#202,#99,.T.);
#259=EDGE_CURVE('',#203,#172,#100,.T.);
#260=EDGE_CURVE('',#202,#203,#101,.T.);
#261=EDGE_CURVE('',#204,#203,#164,.T.);
#262=EDGE_CURVE('',#171,#204,#102,.T.);
#263=EDGE_CURVE('',#165,#190,#103,.T.);
#264=EDGE_CURVE('',#204,#188,#104,.T.);
#265=ORIENTED_EDGE('',*,*,#205,.T.);
#266=ORIENTED_EDGE('',*,*,#206,.T.);
#267=ORIENTED_EDGE('',*,*,#207,.T.);
#268=ORIENTED_EDGE('',*,*,#208,.T.);
#269=ORIENTED_EDGE('',*,*,#207,.F.);
#270=ORIENTED_EDGE('',*,*,#209,.F.);
#271=ORIENTED_EDGE('',*,*,#210,.F.);
#272=ORIENTED_EDGE('',*,*,#211,.F.);
#273=ORIENTED_EDGE('',*,*,#212,.F.);
#274=ORIENTED_EDGE('',*,*,#213,.F.);
#275=ORIENTED_EDGE('',*,*,#214,.F.);
#276=ORIENTED_EDGE('',*,*,#215,.F.);
#277=ORIENTED_EDGE('',*,*,#216,.F.);
#278=ORIENTED_EDGE('',*,*,#217,.F.);
#279=ORIENTED_EDGE('',*,*,#218,.F.);
#280=ORIENTED_EDGE('',*,*,#219,.F.);
#281=ORIENTED_EDGE('',*,*,#220,.F.);
#282=ORIENTED_EDGE('',*,*,#221,.F.);
#283=ORIENTED_EDGE('',*,*,#222,.F.);
#284=ORIENTED_EDGE('',*,*,#223,.F.);
#285=ORIENTED_EDGE('',*,*,#224,.F.);
#286=ORIENTED_EDGE('',*,*,#225,.F.);
#287=ORIENTED_EDGE('',*,*,#226,.F.);
#288=ORIENTED_EDGE('',*,*,#227,.F.);
#289=ORIENTED_EDGE('',*,*,#206,.F.);
#290=ORIENTED_EDGE('',*,*,#228,.F.);
#291=ORIENTED_EDGE('',*,*,#229,.F.);
#292=ORIENTED_EDGE('',*,*,#209,.T.);
#293=ORIENTED_EDGE('',*,*,#230,.T.);
#294=ORIENTED_EDGE('',*,*,#231,.T.);
#295=ORIENTED_EDGE('',*,*,#210,.T.);
#296=ORIENTED_EDGE('',*,*,#229,.T.);
#297=ORIENTED_EDGE('',*,*,#232,.T.);
#298=ORIENTED_EDGE('',*,*,#233,.T.);
#299=ORIENTED_EDGE('',*,*,#226,.T.);
#300=ORIENTED_EDGE('',*,*,#234,.T.);
#301=ORIENTED_EDGE('',*,*,#234,.F.);
#302=ORIENTED_EDGE('',*,*,#225,.T.);
#303=ORIENTED_EDGE('',*,*,#235,.F.);
#304=ORIENTED_EDGE('',*,*,#236,.F.);
#305=ORIENTED_EDGE('',*,*,#218,.T.);
#306=ORIENTED_EDGE('',*,*,#237,.T.);
#307=ORIENTED_EDGE('',*,*,#238,.T.);
#308=ORIENTED_EDGE('',*,*,#239,.T.);
#309=ORIENTED_EDGE('',*,*,#237,.F.);
#310=ORIENTED_EDGE('',*,*,#217,.T.);
#311=ORIENTED_EDGE('',*,*,#240,.F.);
#312=ORIENTED_EDGE('',*,*,#241,.F.);
#313=ORIENTED_EDGE('',*,*,#216,.T.);
#314=ORIENTED_EDGE('',*,*,#242,.T.);
#315=ORIENTED_EDGE('',*,*,#243,.T.);
#316=ORIENTED_EDGE('',*,*,#240,.T.);
#317=ORIENTED_EDGE('',*,*,#242,.F.);
#318=ORIENTED_EDGE('',*,*,#215,.T.);
#319=ORIENTED_EDGE('',*,*,#244,.F.);
#320=ORIENTED_EDGE('',*,*,#245,.F.);
#321=ORIENTED_EDGE('',*,*,#220,.T.);
#322=ORIENTED_EDGE('',*,*,#246,.T.);
#323=ORIENTED_EDGE('',*,*,#247,.T.);
#324=ORIENTED_EDGE('',*,*,#248,.T.);
#325=ORIENTED_EDGE('',*,*,#239,.F.);
#326=ORIENTED_EDGE('',*,*,#249,.F.);
#327=ORIENTED_EDGE('',*,*,#246,.F.);
#328=ORIENTED_EDGE('',*,*,#219,.T.);
#329=ORIENTED_EDGE('',*,*,#250,.T.);
#330=ORIENTED_EDGE('',*,*,#235,.T.);
#331=ORIENTED_EDGE('',*,*,#224,.T.);
#332=ORIENTED_EDGE('',*,*,#251,.T.);
#333=ORIENTED_EDGE('',*,*,#251,.F.);
#334=ORIENTED_EDGE('',*,*,#223,.T.);
#335=ORIENTED_EDGE('',*,*,#252,.F.);
#336=ORIENTED_EDGE('',*,*,#253,.F.);
#337=ORIENTED_EDGE('',*,*,#254,.T.);
#338=ORIENTED_EDGE('',*,*,#252,.T.);
#339=ORIENTED_EDGE('',*,*,#222,.T.);
#340=ORIENTED_EDGE('',*,*,#255,.T.);
#341=ORIENTED_EDGE('',*,*,#248,.F.);
#342=ORIENTED_EDGE('',*,*,#256,.F.);
#343=ORIENTED_EDGE('',*,*,#255,.F.);
#344=ORIENTED_EDGE('',*,*,#221,.T.);
#345=ORIENTED_EDGE('',*,*,#257,.T.);
#346=ORIENTED_EDGE('',*,*,#244,.T.);
#347=ORIENTED_EDGE('',*,*,#214,.T.);
#348=ORIENTED_EDGE('',*,*,#258,.T.);
#349=ORIENTED_EDGE('',*,*,#258,.F.);
#350=ORIENTED_EDGE('',*,*,#213,.T.);
#351=ORIENTED_EDGE('',*,*,#259,.F.);
#352=ORIENTED_EDGE('',*,*,#260,.F.);
#353=ORIENTED_EDGE('',*,*,#261,.T.);
#354=ORIENTED_EDGE('',*,*,#259,.T.);
#355=ORIENTED_EDGE('',*,*,#212,.T.);
#356=ORIENTED_EDGE('',*,*,#262,.T.);
#357=ORIENTED_EDGE('',*,*,#208,.F.);
#358=ORIENTED_EDGE('',*,*,#227,.T.);
#359=ORIENTED_EDGE('',*,*,#233,.F.);
#360=ORIENTED_EDGE('',*,*,#263,.F.);
#361=ORIENTED_EDGE('',*,*,#231,.F.);
#362=ORIENTED_EDGE('',*,*,#264,.F.);
#363=ORIENTED_EDGE('',*,*,#262,.F.);
#364=ORIENTED_EDGE('',*,*,#211,.T.);
#365=ORIENTED_EDGE('',*,*,#205,.F.);
#366=ORIENTED_EDGE('',*,*,#263,.T.);
#367=ORIENTED_EDGE('',*,*,#232,.F.);
#368=ORIENTED_EDGE('',*,*,#236,.T.);
#369=ORIENTED_EDGE('',*,*,#250,.F.);
#370=ORIENTED_EDGE('',*,*,#253,.T.);
#371=ORIENTED_EDGE('',*,*,#254,.F.);
#372=ORIENTED_EDGE('',*,*,#256,.T.);
#373=ORIENTED_EDGE('',*,*,#247,.F.);
#374=ORIENTED_EDGE('',*,*,#249,.T.);
#375=ORIENTED_EDGE('',*,*,#238,.F.);
#376=ORIENTED_EDGE('',*,*,#241,.T.);
#377=ORIENTED_EDGE('',*,*,#243,.F.);
#378=ORIENTED_EDGE('',*,*,#245,.T.);
#379=ORIENTED_EDGE('',*,*,#257,.F.);
#380=ORIENTED_EDGE('',*,*,#260,.T.);
#381=ORIENTED_EDGE('',*,*,#261,.F.);
#382=ORIENTED_EDGE('',*,*,#264,.T.);
#383=ORIENTED_EDGE('',*,*,#230,.F.);
#384=ORIENTED_EDGE('',*,*,#228,.T.);
#385=CYLINDRICAL_SURFACE('',#442,1.79);
#386=CYLINDRICAL_SURFACE('',#458,1.79);
#387=CYLINDRICAL_SURFACE('',#460,1.79);
#388=CYLINDRICAL_SURFACE('',#462,1.91);
#389=CYLINDRICAL_SURFACE('',#464,0.5);
#390=CYLINDRICAL_SURFACE('',#467,0.5);
#391=CYLINDRICAL_SURFACE('',#470,0.5);
#392=CYLINDRICAL_SURFACE('',#473,0.5);
#393=CYLINDRICAL_SURFACE('',#476,0.5);
#394=CYLINDRICAL_SURFACE('',#478,3.2);
#395=CYLINDRICAL_SURFACE('',#480,0.5);
#396=CYLINDRICAL_SURFACE('',#483,0.5);
#397=ADVANCED_FACE('',(#25),#385,.T.);
#398=ADVANCED_FACE('',(#26),#15,.F.);
#399=ADVANCED_FACE('',(#27),#16,.T.);
#400=ADVANCED_FACE('',(#28),#386,.T.);
#401=ADVANCED_FACE('',(#29),#387,.T.);
#402=ADVANCED_FACE('',(#30),#388,.F.);
#403=ADVANCED_FACE('',(#31),#389,.F.);
#404=ADVANCED_FACE('',(#32),#17,.T.);
#405=ADVANCED_FACE('',(#33),#390,.F.);
#406=ADVANCED_FACE('',(#34),#18,.T.);
#407=ADVANCED_FACE('',(#35),#391,.F.);
#408=ADVANCED_FACE('',(#36),#19,.T.);
#409=ADVANCED_FACE('',(#37),#392,.T.);
#410=ADVANCED_FACE('',(#38),#20,.T.);
#411=ADVANCED_FACE('',(#39),#393,.T.);
#412=ADVANCED_FACE('',(#40),#394,.T.);
#413=ADVANCED_FACE('',(#41),#395,.T.);
#414=ADVANCED_FACE('',(#42),#21,.T.);
#415=ADVANCED_FACE('',(#43),#396,.T.);
#416=ADVANCED_FACE('',(#44),#22,.T.);
#417=ADVANCED_FACE('',(#45),#23,.T.);
#418=ADVANCED_FACE('',(#46),#24,.T.);
#419=CLOSED_SHELL('',(#397,#398,#399,#400,#401,#402,#403,#404,#405,#406,
#407,#408,#409,#410,#411,#412,#413,#414,#415,#416,#417,#418));
#420=DERIVED_UNIT_ELEMENT(#423,1.);
#421=DERIVED_UNIT_ELEMENT(#746,-3.);
#422=DIMENSIONAL_EXPONENTS(0.,1.,0.,0.,0.,0.,0.);
#423=(
CONVERSION_BASED_UNIT('gram',#425)
MASS_UNIT()
NAMED_UNIT(#422)
);
#424=(
MASS_UNIT()
NAMED_UNIT(*)
SI_UNIT(.KILO.,.GRAM.)
);
#425=MASS_MEASURE_WITH_UNIT(MASS_MEASURE(0.001),#424);
#426=DERIVED_UNIT((#420,#421));
#427=MEASURE_REPRESENTATION_ITEM('density measure',
POSITIVE_RATIO_MEASURE(1.),#426);
#428=PROPERTY_DEFINITION_REPRESENTATION(#433,#430);
#429=PROPERTY_DEFINITION_REPRESENTATION(#434,#431);
#430=REPRESENTATION('material name',(#432),#743);
#431=REPRESENTATION('density',(#427),#743);
#432=DESCRIPTIVE_REPRESENTATION_ITEM('Generisch','Generisch');
#433=PROPERTY_DEFINITION('material property','material name',#753);
#434=PROPERTY_DEFINITION('material property','density of part',#753);
#435=DATE_TIME_ROLE('creation_date');
#436=APPLIED_DATE_AND_TIME_ASSIGNMENT(#437,#435,(#753));
#437=DATE_AND_TIME(#438,#439);
#438=CALENDAR_DATE(2024,13,10);
#439=LOCAL_TIME(10,46,46.,#440);
#440=COORDINATED_UNIVERSAL_TIME_OFFSET(0,0,.BEHIND.);
#441=AXIS2_PLACEMENT_3D('',#618,#488,#489);
#442=AXIS2_PLACEMENT_3D('',#619,#490,#491);
#443=AXIS2_PLACEMENT_3D('',#622,#492,#493);
#444=AXIS2_PLACEMENT_3D('',#626,#495,#496);
#445=AXIS2_PLACEMENT_3D('',#628,#498,#499);
#446=AXIS2_PLACEMENT_3D('',#632,#501,#502);
#447=AXIS2_PLACEMENT_3D('',#636,#504,#505);
#448=AXIS2_PLACEMENT_3D('',#640,#507,#508);
#449=AXIS2_PLACEMENT_3D('',#644,#510,#511);
#450=AXIS2_PLACEMENT_3D('',#648,#513,#514);
#451=AXIS2_PLACEMENT_3D('',#652,#516,#517);
#452=AXIS2_PLACEMENT_3D('',#654,#518,#519);
#453=AXIS2_PLACEMENT_3D('',#656,#520,#521);
#454=AXIS2_PLACEMENT_3D('',#660,#523,#524);
#455=AXIS2_PLACEMENT_3D('',#662,#525,#526);
#456=AXIS2_PLACEMENT_3D('',#664,#527,#528);
#457=AXIS2_PLACEMENT_3D('',#666,#530,#531);
#458=AXIS2_PLACEMENT_3D('',#670,#534,#535);
#459=AXIS2_PLACEMENT_3D('',#672,#536,#537);
#460=AXIS2_PLACEMENT_3D('',#674,#539,#540);
#461=AXIS2_PLACEMENT_3D('',#677,#541,#542);
#462=AXIS2_PLACEMENT_3D('',#680,#545,#546);
#463=AXIS2_PLACEMENT_3D('',#683,#548,#549);
#464=AXIS2_PLACEMENT_3D('',#684,#550,#551);
#465=AXIS2_PLACEMENT_3D('',#688,#553,#554);
#466=AXIS2_PLACEMENT_3D('',#690,#556,#557);
#467=AXIS2_PLACEMENT_3D('',#694,#560,#561);
#468=AXIS2_PLACEMENT_3D('',#697,#563,#564);
#469=AXIS2_PLACEMENT_3D('',#698,#565,#566);
#470=AXIS2_PLACEMENT_3D('',#702,#569,#570);
#471=AXIS2_PLACEMENT_3D('',#706,#572,#573);
#472=AXIS2_PLACEMENT_3D('',#708,#575,#576);
#473=AXIS2_PLACEMENT_3D('',#710,#578,#579);
#474=AXIS2_PLACEMENT_3D('',#712,#580,#581);
#475=AXIS2_PLACEMENT_3D('',#714,#583,#584);
#476=AXIS2_PLACEMENT_3D('',#718,#587,#588);
#477=AXIS2_PLACEMENT_3D('',#720,#589,#590);
#478=AXIS2_PLACEMENT_3D('',#722,#592,#593);
#479=AXIS2_PLACEMENT_3D('',#723,#594,#595);
#480=AXIS2_PLACEMENT_3D('',#724,#596,#597);
#481=AXIS2_PLACEMENT_3D('',#726,#598,#599);
#482=AXIS2_PLACEMENT_3D('',#728,#601,#602);
#483=AXIS2_PLACEMENT_3D('',#732,#605,#606);
#484=AXIS2_PLACEMENT_3D('',#734,#607,#608);
#485=AXIS2_PLACEMENT_3D('',#736,#610,#611);
#486=AXIS2_PLACEMENT_3D('',#738,#613,#614);
#487=AXIS2_PLACEMENT_3D('',#740,#616,#617);
#488=DIRECTION('axis',(0.,0.,1.));
#489=DIRECTION('refdir',(1.,0.,0.));
#490=DIRECTION('center_axis',(0.,1.,0.));
#491=DIRECTION('ref_axis',(-0.707106781186548,0.,-0.707106781186547));
#492=DIRECTION('center_axis',(0.,-1.,0.));
#493=DIRECTION('ref_axis',(-0.707106781186548,0.,-0.707106781186547));
#494=DIRECTION('',(0.,-1.,0.));
#495=DIRECTION('center_axis',(0.,1.,0.));
#496=DIRECTION('ref_axis',(-0.707106781186548,0.,-0.707106781186547));
#497=DIRECTION('',(0.,1.,0.));
#498=DIRECTION('center_axis',(0.,1.,0.));
#499=DIRECTION('ref_axis',(0.,0.,1.));
#500=DIRECTION('',(-1.,0.,1.81964000976878E-16));
#501=DIRECTION('center_axis',(0.,1.,0.));
#502=DIRECTION('ref_axis',(0.707106781186547,0.,-0.707106781186548));
#503=DIRECTION('',(-4.14262322624401E-16,0.,-1.));
#504=DIRECTION('center_axis',(0.,1.,0.));
#505=DIRECTION('ref_axis',(0.707106781186546,0.,0.707106781186549));
#506=DIRECTION('',(1.,0.,0.));
#507=DIRECTION('center_axis',(0.,1.,0.));
#508=DIRECTION('ref_axis',(-0.707106781186546,0.,0.707106781186549));
#509=DIRECTION('',(3.30587501131689E-16,0.,1.));
#510=DIRECTION('center_axis',(0.,-1.,0.));
#511=DIRECTION('ref_axis',(0.707106781186548,0.,-0.707106781186548));
#512=DIRECTION('',(1.,0.,-2.45254008673023E-16));
#513=DIRECTION('center_axis',(0.,-1.,0.));
#514=DIRECTION('ref_axis',(-0.707106781186548,0.,-0.707106781186548));
#515=DIRECTION('',(-4.99647818767924E-16,0.,-1.));
#516=DIRECTION('center_axis',(0.,-1.,0.));
#517=DIRECTION('ref_axis',(-0.861331464589499,0.,0.508043411637341));
#518=DIRECTION('center_axis',(0.,1.,0.));
#519=DIRECTION('ref_axis',(5.20417042793042E-16,0.,1.));
#520=DIRECTION('center_axis',(0.,1.,0.));
#521=DIRECTION('ref_axis',(-0.638284738504226,0.,0.7698003589195));
#522=DIRECTION('',(4.30319001792696E-16,0.,1.));
#523=DIRECTION('center_axis',(0.,1.,0.));
#524=DIRECTION('ref_axis',(-0.77700350052881,0.,-0.629496274942097));
#525=DIRECTION('center_axis',(0.,-1.,0.));
#526=DIRECTION('ref_axis',(-5.81268599280186E-16,0.,-1.));
#527=DIRECTION('center_axis',(0.,1.,0.));
#528=DIRECTION('ref_axis',(-0.861331464589499,0.,0.508043411637341));
#529=DIRECTION('',(6.40737317450496E-16,0.,1.));
#530=DIRECTION('center_axis',(-1.81964000976878E-16,0.,-1.));
#531=DIRECTION('ref_axis',(-1.,0.,1.81964000976878E-16));
#532=DIRECTION('',(-1.,0.,1.81964000976878E-16));
#533=DIRECTION('',(0.,1.,0.));
#534=DIRECTION('center_axis',(0.,1.,0.));
#535=DIRECTION('ref_axis',(0.707106781186547,0.,-0.707106781186548));
#536=DIRECTION('center_axis',(0.,-1.,0.));
#537=DIRECTION('ref_axis',(0.707106781186547,0.,-0.707106781186548));
#538=DIRECTION('',(0.,-1.,0.));
#539=DIRECTION('center_axis',(0.,1.,0.));
#540=DIRECTION('ref_axis',(-0.861331464589499,0.,0.508043411637341));
#541=DIRECTION('center_axis',(0.,-1.,0.));
#542=DIRECTION('ref_axis',(-0.861331464589499,0.,0.508043411637341));
#543=DIRECTION('',(0.,-1.,0.));
#544=DIRECTION('',(0.,1.,0.));
#545=DIRECTION('center_axis',(0.,1.,0.));
#546=DIRECTION('ref_axis',(-5.81268599280186E-16,0.,-1.));
#547=DIRECTION('',(0.,-1.,0.));
#548=DIRECTION('center_axis',(0.,-1.,0.));
#549=DIRECTION('ref_axis',(-5.81268599280186E-16,0.,-1.));
#550=DIRECTION('center_axis',(0.,1.,0.));
#551=DIRECTION('ref_axis',(-0.707106781186548,0.,-0.707106781186548));
#552=DIRECTION('',(0.,1.,0.));
#553=DIRECTION('center_axis',(0.,1.,0.));
#554=DIRECTION('ref_axis',(-0.707106781186548,0.,-0.707106781186548));
#555=DIRECTION('',(0.,-1.,0.));
#556=DIRECTION('center_axis',(2.45254008673023E-16,0.,1.));
#557=DIRECTION('ref_axis',(1.,0.,-2.45254008673023E-16));
#558=DIRECTION('',(0.,-1.,0.));
#559=DIRECTION('',(1.,0.,-2.45254008673023E-16));
#560=DIRECTION('center_axis',(0.,1.,0.));
#561=DIRECTION('ref_axis',(0.707106781186548,0.,-0.707106781186548));
#562=DIRECTION('',(0.,1.,0.));
#563=DIRECTION('center_axis',(0.,1.,0.));
#564=DIRECTION('ref_axis',(0.707106781186548,0.,-0.707106781186548));
#565=DIRECTION('center_axis',(-1.,0.,3.30587501131689E-16));
#566=DIRECTION('ref_axis',(3.30587501131689E-16,0.,1.));
#567=DIRECTION('',(0.,-1.,0.));
#568=DIRECTION('',(3.30587501131689E-16,0.,1.));
#569=DIRECTION('center_axis',(0.,1.,0.));
#570=DIRECTION('ref_axis',(-0.861331464589499,0.,0.508043411637341));
#571=DIRECTION('',(0.,1.,0.));
#572=DIRECTION('center_axis',(0.,1.,0.));
#573=DIRECTION('ref_axis',(-0.861331464589499,0.,0.508043411637341));
#574=DIRECTION('',(0.,-1.,0.));
#575=DIRECTION('center_axis',(1.,0.,-4.99647818767924E-16));
#576=DIRECTION('ref_axis',(-4.99647818767924E-16,0.,-1.));
#577=DIRECTION('',(-4.99647818767924E-16,0.,-1.));
#578=DIRECTION('center_axis',(0.,1.,0.));
#579=DIRECTION('ref_axis',(-0.77700350052881,0.,-0.629496274942097));
#580=DIRECTION('center_axis',(0.,-1.,0.));
#581=DIRECTION('ref_axis',(-0.77700350052881,0.,-0.629496274942097));
#582=DIRECTION('',(0.,1.,0.));
#583=DIRECTION('center_axis',(-1.,0.,4.30319001792696E-16));
#584=DIRECTION('ref_axis',(4.30319001792696E-16,0.,1.));
#585=DIRECTION('',(0.,-1.,0.));
#586=DIRECTION('',(4.30319001792696E-16,0.,1.));
#587=DIRECTION('center_axis',(0.,1.,0.));
#588=DIRECTION('ref_axis',(-0.638284738504226,0.,0.7698003589195));
#589=DIRECTION('center_axis',(0.,-1.,0.));
#590=DIRECTION('ref_axis',(-0.638284738504226,0.,0.7698003589195));
#591=DIRECTION('',(0.,1.,0.));
#592=DIRECTION('center_axis',(0.,1.,0.));
#593=DIRECTION('ref_axis',(5.20417042793042E-16,0.,1.));
#594=DIRECTION('center_axis',(0.,1.,0.));
#595=DIRECTION('ref_axis',(5.20417042793042E-16,0.,1.));
#596=DIRECTION('center_axis',(0.,1.,0.));
#597=DIRECTION('ref_axis',(-0.707106781186546,0.,0.707106781186549));
#598=DIRECTION('center_axis',(0.,-1.,0.));
#599=DIRECTION('ref_axis',(-0.707106781186546,0.,0.707106781186549));
#600=DIRECTION('',(0.,1.,0.));
#601=DIRECTION('center_axis',(0.,0.,1.));
#602=DIRECTION('ref_axis',(1.,0.,0.));
#603=DIRECTION('',(0.,-1.,0.));
#604=DIRECTION('',(1.,0.,0.));
#605=DIRECTION('center_axis',(0.,1.,0.));
#606=DIRECTION('ref_axis',(0.707106781186546,0.,0.707106781186549));
#607=DIRECTION('center_axis',(0.,-1.,0.));
#608=DIRECTION('ref_axis',(0.707106781186546,0.,0.707106781186549));
#609=DIRECTION('',(0.,1.,0.));
#610=DIRECTION('center_axis',(-1.,0.,6.40737317450496E-16));
#611=DIRECTION('ref_axis',(6.40737317450496E-16,0.,1.));
#612=DIRECTION('',(6.40737317450496E-16,0.,1.));
#613=DIRECTION('center_axis',(1.,0.,-4.14262322624401E-16));
#614=DIRECTION('ref_axis',(-4.14262322624401E-16,0.,-1.));
#615=DIRECTION('',(-4.14262322624401E-16,0.,-1.));
#616=DIRECTION('center_axis',(0.,1.,0.));
#617=DIRECTION('ref_axis',(0.,0.,1.));
#618=CARTESIAN_POINT('',(0.,0.,0.));
#619=CARTESIAN_POINT('Origin',(-9.6499999999636,750.,-9.64999999984091));
#620=CARTESIAN_POINT('',(-11.4399999999636,760.,-9.64999999984091));
#621=CARTESIAN_POINT('',(-9.6499999999636,760.,-11.4399999998409));
#622=CARTESIAN_POINT('Origin',(-9.6499999999636,760.,-9.64999999984091));
#623=CARTESIAN_POINT('',(-9.6499999999636,750.,-11.4399999998409));
#624=CARTESIAN_POINT('',(-9.6499999999636,750.,-11.4399999998409));
#625=CARTESIAN_POINT('',(-11.4399999999636,750.,-9.64999999984091));
#626=CARTESIAN_POINT('Origin',(-9.6499999999636,750.,-9.64999999984091));
#627=CARTESIAN_POINT('',(-11.4399999999636,750.,-9.64999999984091));
#628=CARTESIAN_POINT('Origin',(1.82009962657048E-11,750.,-0.719999999920456));
#629=CARTESIAN_POINT('',(9.65,750.,-11.4399999998409));
#630=CARTESIAN_POINT('',(11.44,750.,-11.4399999998409));
#631=CARTESIAN_POINT('',(11.44,750.,-9.64999999984091));
#632=CARTESIAN_POINT('Origin',(9.65,750.,-9.64999999984091));
#633=CARTESIAN_POINT('',(11.44,750.,9.5));
#634=CARTESIAN_POINT('',(11.44,750.,10.));
#635=CARTESIAN_POINT('',(10.94,750.,10.));
#636=CARTESIAN_POINT('Origin',(10.94,750.,9.5));
#637=CARTESIAN_POINT('',(10.65,750.,10.));
#638=CARTESIAN_POINT('',(10.15,750.,10.));
#639=CARTESIAN_POINT('',(10.15,750.,9.5));
#640=CARTESIAN_POINT('Origin',(10.65,750.,9.5));
#641=CARTESIAN_POINT('',(10.15,750.,-9.64999999984091));
#642=CARTESIAN_POINT('',(10.15,750.,-10.1499999998409));
#643=CARTESIAN_POINT('',(9.65,750.,-10.1499999998409));
#644=CARTESIAN_POINT('Origin',(9.65,750.,-9.64999999984091));
#645=CARTESIAN_POINT('',(-9.6499999999636,750.,-10.1499999998409));
#646=CARTESIAN_POINT('',(-10.1499999999636,750.,-10.1499999998409));
#647=CARTESIAN_POINT('',(-10.1499999999636,750.,-9.64999999984091));
#648=CARTESIAN_POINT('Origin',(-9.6499999999636,750.,-9.64999999984091));
#649=CARTESIAN_POINT('',(-10.1499999999636,750.,-3.23819394070271));
#650=CARTESIAN_POINT('',(-10.1499999999636,750.,-2.92846376071703));
#651=CARTESIAN_POINT('',(-9.89189189185548,750.,-2.80060016488207));
#652=CARTESIAN_POINT('Origin',(-9.64999999996359,750.,-3.23819394070271));
#653=CARTESIAN_POINT('',(-10.847407407371,750.,3.14465165344771));
#654=CARTESIAN_POINT('Origin',(-11.4399999999636,750.,3.69999586524727E-10));
#655=CARTESIAN_POINT('',(-11.4399999999636,750.,2.65329983265432));
#656=CARTESIAN_POINT('Origin',(-10.9399999999636,750.,2.65329983265432));
#657=CARTESIAN_POINT('',(-11.4399999999636,750.,2.3575623007133));
#658=CARTESIAN_POINT('',(-11.4399999999636,750.,1.91000000037));
#659=CARTESIAN_POINT('',(-11.0437344397976,750.,1.86844149151345));
#660=CARTESIAN_POINT('Origin',(-10.9399999999636,750.,2.3575623007133));
#661=CARTESIAN_POINT('',(-10.5159729729366,750.,-1.67160822326483));
#662=CARTESIAN_POINT('Origin',(-11.4399999999636,750.,3.69999586524727E-10));
#663=CARTESIAN_POINT('',(-11.4399999999636,750.,-3.23819394070271));
#664=CARTESIAN_POINT('Origin',(-9.64999999996359,750.,-3.23819394070271));
#665=CARTESIAN_POINT('',(-11.4399999999636,750.,-11.4399999998409));
#666=CARTESIAN_POINT('Origin',(11.44,750.,-11.4399999998409));
#667=CARTESIAN_POINT('',(9.65,760.,-11.4399999998409));
#668=CARTESIAN_POINT('',(11.44,760.,-11.4399999998409));
#669=CARTESIAN_POINT('',(9.65,750.,-11.4399999998409));
#670=CARTESIAN_POINT('Origin',(9.65,750.,-9.64999999984091));
#671=CARTESIAN_POINT('',(11.44,760.,-9.64999999984091));
#672=CARTESIAN_POINT('Origin',(9.65,760.,-9.64999999984091));
#673=CARTESIAN_POINT('',(11.44,750.,-9.64999999984091));
#674=CARTESIAN_POINT('Origin',(-9.64999999996359,750.,-3.23819394070271));
#675=CARTESIAN_POINT('',(-10.5159729729366,760.,-1.67160822326483));
#676=CARTESIAN_POINT('',(-11.4399999999636,760.,-3.23819394070271));
#677=CARTESIAN_POINT('Origin',(-9.64999999996359,760.,-3.23819394070271));
#678=CARTESIAN_POINT('',(-11.4399999999636,750.,-3.23819394070271));
#679=CARTESIAN_POINT('',(-10.5159729729366,750.,-1.67160822326483));
#680=CARTESIAN_POINT('Origin',(-11.4399999999636,750.,3.69999586524727E-10));
#681=CARTESIAN_POINT('',(-11.0437344397976,760.,1.86844149151345));
#682=CARTESIAN_POINT('',(-11.0437344397976,750.,1.86844149151345));
#683=CARTESIAN_POINT('Origin',(-11.4399999999636,760.,3.69999586524727E-10));
#684=CARTESIAN_POINT('Origin',(-9.6499999999636,750.,-9.64999999984091));
#685=CARTESIAN_POINT('',(-9.6499999999636,760.,-10.1499999998409));
#686=CARTESIAN_POINT('',(-9.6499999999636,750.,-10.1499999998409));
#687=CARTESIAN_POINT('',(-10.1499999999636,760.,-9.64999999984091));
#688=CARTESIAN_POINT('Origin',(-9.6499999999636,760.,-9.64999999984091));
#689=CARTESIAN_POINT('',(-10.1499999999636,750.,-9.64999999984091));
#690=CARTESIAN_POINT('Origin',(-10.1499999999636,750.,-10.1499999998409));
#691=CARTESIAN_POINT('',(9.65,760.,-10.1499999998409));
#692=CARTESIAN_POINT('',(9.65,750.,-10.1499999998409));
#693=CARTESIAN_POINT('',(-10.1499999999636,760.,-10.1499999998409));
#694=CARTESIAN_POINT('Origin',(9.65,750.,-9.64999999984091));
#695=CARTESIAN_POINT('',(10.15,760.,-9.64999999984091));
#696=CARTESIAN_POINT('',(10.15,750.,-9.64999999984091));
#697=CARTESIAN_POINT('Origin',(9.65,760.,-9.64999999984091));
#698=CARTESIAN_POINT('Origin',(10.15,750.,-10.1499999998409));
#699=CARTESIAN_POINT('',(10.15,760.,9.5));
#700=CARTESIAN_POINT('',(10.15,750.,9.5));
#701=CARTESIAN_POINT('',(10.15,760.,-10.1499999998409));
#702=CARTESIAN_POINT('Origin',(-9.64999999996359,750.,-3.23819394070271));
#703=CARTESIAN_POINT('',(-10.1499999999636,760.,-3.23819394070271));
#704=CARTESIAN_POINT('',(-10.1499999999636,750.,-3.23819394070271));
#705=CARTESIAN_POINT('',(-9.89189189185548,760.,-2.80060016488207));
#706=CARTESIAN_POINT('Origin',(-9.64999999996359,760.,-3.23819394070271));
#707=CARTESIAN_POINT('',(-9.89189189185548,750.,-2.80060016488207));
#708=CARTESIAN_POINT('Origin',(-10.1499999999636,750.,-2.92846376071703));
#709=CARTESIAN_POINT('',(-10.1499999999636,760.,-2.92846376071703));
#710=CARTESIAN_POINT('Origin',(-10.9399999999636,750.,2.3575623007133));
#711=CARTESIAN_POINT('',(-11.4399999999636,760.,2.3575623007133));
#712=CARTESIAN_POINT('Origin',(-10.9399999999636,760.,2.3575623007133));
#713=CARTESIAN_POINT('',(-11.4399999999636,750.,2.3575623007133));
#714=CARTESIAN_POINT('Origin',(-11.4399999999636,750.,1.91000000037));
#715=CARTESIAN_POINT('',(-11.4399999999636,760.,2.65329983265432));
#716=CARTESIAN_POINT('',(-11.4399999999636,750.,2.65329983265432));
#717=CARTESIAN_POINT('',(-11.4399999999636,760.,1.91000000037));
#718=CARTESIAN_POINT('Origin',(-10.9399999999636,750.,2.65329983265432));
#719=CARTESIAN_POINT('',(-10.847407407371,760.,3.14465165344771));
#720=CARTESIAN_POINT('Origin',(-10.9399999999636,760.,2.65329983265432));
#721=CARTESIAN_POINT('',(-10.847407407371,750.,3.14465165344771));
#722=CARTESIAN_POINT('Origin',(-11.4399999999636,750.,3.69999586524727E-10));
#723=CARTESIAN_POINT('Origin',(-11.4399999999636,760.,3.69999586524727E-10));
#724=CARTESIAN_POINT('Origin',(10.65,750.,9.5));
#725=CARTESIAN_POINT('',(10.65,760.,10.));
#726=CARTESIAN_POINT('Origin',(10.65,760.,9.5));
#727=CARTESIAN_POINT('',(10.65,750.,10.));
#728=CARTESIAN_POINT('Origin',(10.15,750.,10.));
#729=CARTESIAN_POINT('',(10.94,760.,10.));
#730=CARTESIAN_POINT('',(10.94,750.,10.));
#731=CARTESIAN_POINT('',(10.15,760.,10.));
#732=CARTESIAN_POINT('Origin',(10.94,750.,9.5));
#733=CARTESIAN_POINT('',(11.44,760.,9.5));
#734=CARTESIAN_POINT('Origin',(10.94,760.,9.5));
#735=CARTESIAN_POINT('',(11.44,750.,9.5));
#736=CARTESIAN_POINT('Origin',(-11.4399999999636,750.,-11.4399999998409));
#737=CARTESIAN_POINT('',(-11.4399999999636,760.,-11.4399999998409));
#738=CARTESIAN_POINT('Origin',(11.44,750.,10.));
#739=CARTESIAN_POINT('',(11.44,760.,10.));
#740=CARTESIAN_POINT('Origin',(1.82009962657048E-11,760.,-0.719999999920456));
#741=UNCERTAINTY_MEASURE_WITH_UNIT(LENGTH_MEASURE(0.01),#745,
'DISTANCE_ACCURACY_VALUE',
'Maximum model space distance between geometric entities at asserted c
onnectivities');
#742=UNCERTAINTY_MEASURE_WITH_UNIT(LENGTH_MEASURE(0.01),#745,
'DISTANCE_ACCURACY_VALUE',
'Maximum model space distance between geometric entities at asserted c
onnectivities');
#743=(
GEOMETRIC_REPRESENTATION_CONTEXT(3)
GLOBAL_UNCERTAINTY_ASSIGNED_CONTEXT((#741))
GLOBAL_UNIT_ASSIGNED_CONTEXT((#745,#747,#748))
REPRESENTATION_CONTEXT('','3D')
);
#744=(
GEOMETRIC_REPRESENTATION_CONTEXT(3)
GLOBAL_UNCERTAINTY_ASSIGNED_CONTEXT((#742))
GLOBAL_UNIT_ASSIGNED_CONTEXT((#745,#747,#748))
REPRESENTATION_CONTEXT('','3D')
);
#745=(
LENGTH_UNIT()
NAMED_UNIT(*)
SI_UNIT(.MILLI.,.METRE.)
);
#746=(
LENGTH_UNIT()
NAMED_UNIT(*)
SI_UNIT(.CENTI.,.METRE.)
);
#747=(
NAMED_UNIT(*)
PLANE_ANGLE_UNIT()
SI_UNIT($,.RADIAN.)
);
#748=(
NAMED_UNIT(*)
SI_UNIT($,.STERADIAN.)
SOLID_ANGLE_UNIT()
);
#749=SHAPE_DEFINITION_REPRESENTATION(#750,#751);
#750=PRODUCT_DEFINITION_SHAPE('',$,#753);
#751=SHAPE_REPRESENTATION('',(#441),#743);
#752=PRODUCT_DEFINITION_CONTEXT('part definition',#757,'design');
#753=PRODUCT_DEFINITION(
'item_0037003_Profil 5 20x20_TextAttributFrage_Laenge=1500',
'Aruco_Marker_Clamp',#754,#752);
#754=PRODUCT_DEFINITION_FORMATION(' NONE',$,#759);
#755=PRODUCT_RELATED_PRODUCT_CATEGORY('Aruco_Marker_Clamp',
'Aruco_Marker_Clamp',(#759));
#756=APPLICATION_PROTOCOL_DEFINITION('international standard',
'automotive_design',2009,#757);
#757=APPLICATION_CONTEXT(
'Core Data for Automotive Mechanical Design Process');
#758=PRODUCT_CONTEXT('part definition',#757,'mechanical');
#759=PRODUCT(
'item_0037003_Profil 5 20x20_TextAttributFrage_Laenge=1500',
'Aruco_Marker_Clamp','STEP AP214',(#758));
#760=PRESENTATION_STYLE_ASSIGNMENT((#762));
#761=PRESENTATION_STYLE_ASSIGNMENT((#763));
#762=SURFACE_STYLE_USAGE(.BOTH.,#768);
#763=SURFACE_STYLE_USAGE(.BOTH.,#769);
#764=SURFACE_STYLE_RENDERING_WITH_PROPERTIES($,#776,(#766));
#765=SURFACE_STYLE_RENDERING_WITH_PROPERTIES($,#777,(#767));
#766=SURFACE_STYLE_TRANSPARENT(0.);
#767=SURFACE_STYLE_TRANSPARENT(0.);
#768=SURFACE_SIDE_STYLE('',(#770,#764));
#769=SURFACE_SIDE_STYLE('',(#771,#765));
#770=SURFACE_STYLE_FILL_AREA(#772);
#771=SURFACE_STYLE_FILL_AREA(#773);
#772=FILL_AREA_STYLE('',(#774));
#773=FILL_AREA_STYLE('',(#775));
#774=FILL_AREA_STYLE_COLOUR('',#776);
#775=FILL_AREA_STYLE_COLOUR('',#777);
#776=COLOUR_RGB('',0.749019607843137,0.749019607843137,0.749019607843137);
#777=COLOUR_RGB('',0.850980392156863,0.83921568627451,0.858823529411765);
ENDSEC;
END-ISO-10303-21;
