ISO-10303-21;
HEADER;
/* Generated by software containing ST-Developer
 * from STEP Tools, Inc. (www.steptools.com) 
 */

FILE_DESCRIPTION(
/* description */ (''),
/* implementation_level */ '2;1');

FILE_NAME(
/* name */ 'Schablone_45deg_Verbinder.stp',
/* time_stamp */ '2024-11-13T14:38:58+01:00',
/* author */ ('tallA'),
/* organization */ (''),
/* preprocessor_version */ 'ST-DEVELOPER v20',
/* originating_system */ 'Autodesk Inventor 2025',
/* authorisation */ '');

FILE_SCHEMA (('AUTOMOTIVE_DESIGN { 1 0 10303 214 3 1 1 }'));
ENDSEC;

DATA;
#10=MECHANICAL_DESIGN_GEOMETRIC_PRESENTATION_REPRESENTATION('',(#13),#1168);
#11=SHAPE_REPRESENTATION_RELATIONSHIP('SRR','None',#1175,#12);
#12=ADVANCED_BREP_SHAPE_REPRESENTATION('',(#14),#1167);
#13=STYLED_ITEM('',(#1184),#14);
#14=MANIFOLD_SOLID_BREP('Volumenk\X\F6rper1',#679);
#15=FACE_BOUND('',#102,.T.);
#16=FACE_BOUND('',#103,.T.);
#17=FACE_BOUND('',#104,.T.);
#18=FACE_BOUND('',#107,.T.);
#19=FACE_BOUND('',#108,.T.);
#20=FACE_BOUND('',#109,.T.);
#21=CONICAL_SURFACE('',#712,5.375,0.785398163397448);
#22=CONICAL_SURFACE('',#716,4.625,0.785398163397447);
#23=CONICAL_SURFACE('',#720,4.625,0.785398163397447);
#24=CONICAL_SURFACE('',#724,5.375,0.785398163397448);
#25=CONICAL_SURFACE('',#728,4.625,0.78539816339745);
#26=PLANE('',#711);
#27=PLANE('',#715);
#28=PLANE('',#719);
#29=PLANE('',#723);
#30=PLANE('',#727);
#31=PLANE('',#731);
#32=PLANE('',#734);
#33=PLANE('',#737);
#34=PLANE('',#738);
#35=PLANE('',#739);
#36=PLANE('',#740);
#37=PLANE('',#741);
#38=PLANE('',#742);
#39=PLANE('',#743);
#40=PLANE('',#750);
#41=PLANE('',#759);
#42=PLANE('',#764);
#43=PLANE('',#766);
#44=PLANE('',#768);
#45=PLANE('',#769);
#46=FACE_OUTER_BOUND('',#83,.T.);
#47=FACE_OUTER_BOUND('',#84,.T.);
#48=FACE_OUTER_BOUND('',#85,.T.);
#49=FACE_OUTER_BOUND('',#86,.T.);
#50=FACE_OUTER_BOUND('',#87,.T.);
#51=FACE_OUTER_BOUND('',#88,.T.);
#52=FACE_OUTER_BOUND('',#89,.T.);
#53=FACE_OUTER_BOUND('',#90,.T.);
#54=FACE_OUTER_BOUND('',#91,.T.);
#55=FACE_OUTER_BOUND('',#92,.T.);
#56=FACE_OUTER_BOUND('',#93,.T.);
#57=FACE_OUTER_BOUND('',#94,.T.);
#58=FACE_OUTER_BOUND('',#95,.T.);
#59=FACE_OUTER_BOUND('',#96,.T.);
#60=FACE_OUTER_BOUND('',#97,.T.);
#61=FACE_OUTER_BOUND('',#98,.T.);
#62=FACE_OUTER_BOUND('',#99,.T.);
#63=FACE_OUTER_BOUND('',#100,.T.);
#64=FACE_OUTER_BOUND('',#101,.T.);
#65=FACE_OUTER_BOUND('',#105,.T.);
#66=FACE_OUTER_BOUND('',#106,.T.);
#67=FACE_OUTER_BOUND('',#110,.T.);
#68=FACE_OUTER_BOUND('',#111,.T.);
#69=FACE_OUTER_BOUND('',#112,.T.);
#70=FACE_OUTER_BOUND('',#113,.T.);
#71=FACE_OUTER_BOUND('',#114,.T.);
#72=FACE_OUTER_BOUND('',#115,.T.);
#73=FACE_OUTER_BOUND('',#116,.T.);
#74=FACE_OUTER_BOUND('',#117,.T.);
#75=FACE_OUTER_BOUND('',#118,.T.);
#76=FACE_OUTER_BOUND('',#119,.T.);
#77=FACE_OUTER_BOUND('',#120,.T.);
#78=FACE_OUTER_BOUND('',#121,.T.);
#79=FACE_OUTER_BOUND('',#122,.T.);
#80=FACE_OUTER_BOUND('',#123,.T.);
#81=FACE_OUTER_BOUND('',#124,.T.);
#82=FACE_OUTER_BOUND('',#125,.T.);
#83=EDGE_LOOP('',(#440,#441,#442,#443));
#84=EDGE_LOOP('',(#444,#445,#446,#447));
#85=EDGE_LOOP('',(#448,#449,#450,#451));
#86=EDGE_LOOP('',(#452,#453,#454,#455));
#87=EDGE_LOOP('',(#456,#457,#458,#459));
#88=EDGE_LOOP('',(#460,#461,#462,#463));
#89=EDGE_LOOP('',(#464,#465,#466,#467));
#90=EDGE_LOOP('',(#468,#469,#470,#471));
#91=EDGE_LOOP('',(#472,#473,#474,#475));
#92=EDGE_LOOP('',(#476,#477,#478,#479));
#93=EDGE_LOOP('',(#480,#481,#482,#483));
#94=EDGE_LOOP('',(#484,#485,#486,#487));
#95=EDGE_LOOP('',(#488,#489,#490,#491));
#96=EDGE_LOOP('',(#492,#493,#494,#495));
#97=EDGE_LOOP('',(#496,#497,#498,#499));
#98=EDGE_LOOP('',(#500,#501,#502,#503));
#99=EDGE_LOOP('',(#504,#505,#506,#507));
#100=EDGE_LOOP('',(#508,#509,#510,#511));
#101=EDGE_LOOP('',(#512,#513,#514,#515,#516,#517,#518,#519,#520,#521));
#102=EDGE_LOOP('',(#522));
#103=EDGE_LOOP('',(#523));
#104=EDGE_LOOP('',(#524));
#105=EDGE_LOOP('',(#525,#526,#527,#528));
#106=EDGE_LOOP('',(#529,#530,#531,#532,#533,#534));
#107=EDGE_LOOP('',(#535));
#108=EDGE_LOOP('',(#536));
#109=EDGE_LOOP('',(#537));
#110=EDGE_LOOP('',(#538,#539,#540,#541));
#111=EDGE_LOOP('',(#542,#543,#544,#545));
#112=EDGE_LOOP('',(#546,#547,#548,#549));
#113=EDGE_LOOP('',(#550,#551,#552,#553));
#114=EDGE_LOOP('',(#554,#555,#556,#557,#558,#559));
#115=EDGE_LOOP('',(#560,#561,#562,#563,#564,#565,#566,#567));
#116=EDGE_LOOP('',(#568,#569,#570,#571));
#117=EDGE_LOOP('',(#572,#573,#574,#575));
#118=EDGE_LOOP('',(#576,#577,#578,#579,#580,#581,#582,#583,#584,#585,#586,
#587,#588,#589,#590,#591,#592,#593,#594,#595));
#119=EDGE_LOOP('',(#596,#597,#598,#599));
#120=EDGE_LOOP('',(#600,#601,#602,#603));
#121=EDGE_LOOP('',(#604,#605,#606,#607));
#122=EDGE_LOOP('',(#608,#609,#610,#611));
#123=EDGE_LOOP('',(#612,#613,#614,#615,#616,#617));
#124=EDGE_LOOP('',(#618,#619,#620,#621,#622,#623,#624,#625));
#125=EDGE_LOOP('',(#626,#627,#628,#629));
#126=LINE('',#977,#190);
#127=LINE('',#983,#191);
#128=LINE('',#989,#192);
#129=LINE('',#994,#193);
#130=LINE('',#996,#194);
#131=LINE('',#998,#195);
#132=LINE('',#999,#196);
#133=LINE('',#1003,#197);
#134=LINE('',#1009,#198);
#135=LINE('',#1010,#199);
#136=LINE('',#1011,#200);
#137=LINE('',#1015,#201);
#138=LINE('',#1021,#202);
#139=LINE('',#1022,#203);
#140=LINE('',#1023,#204);
#141=LINE('',#1027,#205);
#142=LINE('',#1033,#206);
#143=LINE('',#1034,#207);
#144=LINE('',#1035,#208);
#145=LINE('',#1039,#209);
#146=LINE('',#1045,#210);
#147=LINE('',#1046,#211);
#148=LINE('',#1047,#212);
#149=LINE('',#1053,#213);
#150=LINE('',#1055,#214);
#151=LINE('',#1056,#215);
#152=LINE('',#1059,#216);
#153=LINE('',#1063,#217);
#154=LINE('',#1064,#218);
#155=LINE('',#1067,#219);
#156=LINE('',#1071,#220);
#157=LINE('',#1072,#221);
#158=LINE('',#1077,#222);
#159=LINE('',#1079,#223);
#160=LINE('',#1081,#224);
#161=LINE('',#1082,#225);
#162=LINE('',#1085,#226);
#163=LINE('',#1087,#227);
#164=LINE('',#1089,#228);
#165=LINE('',#1091,#229);
#166=LINE('',#1092,#230);
#167=LINE('',#1095,#231);
#168=LINE('',#1096,#232);
#169=LINE('',#1099,#233);
#170=LINE('',#1100,#234);
#171=LINE('',#1103,#235);
#172=LINE('',#1104,#236);
#173=LINE('',#1110,#237);
#174=LINE('',#1113,#238);
#175=LINE('',#1118,#239);
#176=LINE('',#1123,#240);
#177=LINE('',#1130,#241);
#178=LINE('',#1133,#242);
#179=LINE('',#1136,#243);
#180=LINE('',#1139,#244);
#181=LINE('',#1145,#245);
#182=LINE('',#1147,#246);
#183=LINE('',#1149,#247);
#184=LINE('',#1151,#248);
#185=LINE('',#1154,#249);
#186=LINE('',#1156,#250);
#187=LINE('',#1158,#251);
#188=LINE('',#1160,#252);
#189=LINE('',#1163,#253);
#190=VECTOR('',#776,1.621);
#191=VECTOR('',#783,1.621);
#192=VECTOR('',#790,1.621);
#193=VECTOR('',#795,10.);
#194=VECTOR('',#796,10.);
#195=VECTOR('',#797,10.);
#196=VECTOR('',#798,10.);
#197=VECTOR('',#801,10.);
#198=VECTOR('',#808,10.);
#199=VECTOR('',#809,10.);
#200=VECTOR('',#810,10.);
#201=VECTOR('',#813,10.);
#202=VECTOR('',#820,10.);
#203=VECTOR('',#821,10.);
#204=VECTOR('',#822,10.);
#205=VECTOR('',#825,10.);
#206=VECTOR('',#832,10.);
#207=VECTOR('',#833,10.);
#208=VECTOR('',#834,10.);
#209=VECTOR('',#837,10.);
#210=VECTOR('',#844,10.);
#211=VECTOR('',#845,10.);
#212=VECTOR('',#846,10.);
#213=VECTOR('',#855,10.);
#214=VECTOR('',#856,10.);
#215=VECTOR('',#857,5.);
#216=VECTOR('',#860,10.);
#217=VECTOR('',#865,10.);
#218=VECTOR('',#866,10.);
#219=VECTOR('',#869,10.);
#220=VECTOR('',#874,10.);
#221=VECTOR('',#875,10.);
#222=VECTOR('',#880,10.);
#223=VECTOR('',#881,10.);
#224=VECTOR('',#882,10.);
#225=VECTOR('',#883,10.);
#226=VECTOR('',#886,10.);
#227=VECTOR('',#887,10.);
#228=VECTOR('',#888,10.);
#229=VECTOR('',#889,10.);
#230=VECTOR('',#890,10.);
#231=VECTOR('',#893,10.);
#232=VECTOR('',#894,10.);
#233=VECTOR('',#897,10.);
#234=VECTOR('',#898,10.);
#235=VECTOR('',#901,10.);
#236=VECTOR('',#902,10.);
#237=VECTOR('',#907,10.);
#238=VECTOR('',#910,10.);
#239=VECTOR('',#917,5.);
#240=VECTOR('',#922,10.);
#241=VECTOR('',#929,10.);
#242=VECTOR('',#932,10.);
#243=VECTOR('',#935,10.);
#244=VECTOR('',#938,10.);
#245=VECTOR('',#945,10.);
#246=VECTOR('',#948,10.);
#247=VECTOR('',#949,10.);
#248=VECTOR('',#950,10.);
#249=VECTOR('',#955,10.);
#250=VECTOR('',#958,5.);
#251=VECTOR('',#961,10.);
#252=VECTOR('',#964,5.);
#253=VECTOR('',#969,10.);
#254=CIRCLE('',#703,1.621);
#255=CIRCLE('',#704,1.621);
#256=CIRCLE('',#706,1.621);
#257=CIRCLE('',#707,1.621);
#258=CIRCLE('',#709,1.621);
#259=CIRCLE('',#710,1.621);
#260=CIRCLE('',#713,5.);
#261=CIRCLE('',#714,5.75);
#262=CIRCLE('',#717,5.);
#263=CIRCLE('',#718,4.25);
#264=CIRCLE('',#721,5.);
#265=CIRCLE('',#722,4.25);
#266=CIRCLE('',#725,5.);
#267=CIRCLE('',#726,5.75);
#268=CIRCLE('',#729,5.);
#269=CIRCLE('',#730,4.25);
#270=CIRCLE('',#733,5.);
#271=CIRCLE('',#736,5.);
#272=CIRCLE('',#745,1.);
#273=CIRCLE('',#746,1.);
#274=CIRCLE('',#748,5.);
#275=CIRCLE('',#749,5.);
#276=CIRCLE('',#751,2.5);
#277=CIRCLE('',#752,2.5);
#278=CIRCLE('',#753,1.);
#279=CIRCLE('',#754,5.);
#280=CIRCLE('',#756,1.);
#281=CIRCLE('',#758,2.5);
#282=CIRCLE('',#760,5.);
#283=CIRCLE('',#761,5.);
#284=CIRCLE('',#762,2.5);
#285=VERTEX_POINT('',#974);
#286=VERTEX_POINT('',#976);
#287=VERTEX_POINT('',#980);
#288=VERTEX_POINT('',#982);
#289=VERTEX_POINT('',#986);
#290=VERTEX_POINT('',#988);
#291=VERTEX_POINT('',#992);
#292=VERTEX_POINT('',#993);
#293=VERTEX_POINT('',#995);
#294=VERTEX_POINT('',#997);
#295=VERTEX_POINT('',#1001);
#296=VERTEX_POINT('',#1002);
#297=VERTEX_POINT('',#1007);
#298=VERTEX_POINT('',#1008);
#299=VERTEX_POINT('',#1013);
#300=VERTEX_POINT('',#1014);
#301=VERTEX_POINT('',#1019);
#302=VERTEX_POINT('',#1020);
#303=VERTEX_POINT('',#1025);
#304=VERTEX_POINT('',#1026);
#305=VERTEX_POINT('',#1031);
#306=VERTEX_POINT('',#1032);
#307=VERTEX_POINT('',#1037);
#308=VERTEX_POINT('',#1038);
#309=VERTEX_POINT('',#1043);
#310=VERTEX_POINT('',#1044);
#311=VERTEX_POINT('',#1052);
#312=VERTEX_POINT('',#1054);
#313=VERTEX_POINT('',#1058);
#314=VERTEX_POINT('',#1062);
#315=VERTEX_POINT('',#1066);
#316=VERTEX_POINT('',#1070);
#317=VERTEX_POINT('',#1075);
#318=VERTEX_POINT('',#1076);
#319=VERTEX_POINT('',#1078);
#320=VERTEX_POINT('',#1080);
#321=VERTEX_POINT('',#1084);
#322=VERTEX_POINT('',#1086);
#323=VERTEX_POINT('',#1088);
#324=VERTEX_POINT('',#1090);
#325=VERTEX_POINT('',#1094);
#326=VERTEX_POINT('',#1098);
#327=VERTEX_POINT('',#1102);
#328=VERTEX_POINT('',#1106);
#329=VERTEX_POINT('',#1107);
#330=VERTEX_POINT('',#1109);
#331=VERTEX_POINT('',#1111);
#332=VERTEX_POINT('',#1116);
#333=VERTEX_POINT('',#1120);
#334=VERTEX_POINT('',#1122);
#335=VERTEX_POINT('',#1124);
#336=VERTEX_POINT('',#1126);
#337=VERTEX_POINT('',#1128);
#338=VERTEX_POINT('',#1132);
#339=VERTEX_POINT('',#1134);
#340=VERTEX_POINT('',#1138);
#341=VERTEX_POINT('',#1142);
#342=VERTEX_POINT('',#1144);
#343=VERTEX_POINT('',#1148);
#344=VERTEX_POINT('',#1150);
#345=EDGE_CURVE('',#285,#285,#254,.T.);
#346=EDGE_CURVE('',#285,#286,#126,.T.);
#347=EDGE_CURVE('',#286,#286,#255,.T.);
#348=EDGE_CURVE('',#287,#287,#256,.T.);
#349=EDGE_CURVE('',#287,#288,#127,.T.);
#350=EDGE_CURVE('',#288,#288,#257,.T.);
#351=EDGE_CURVE('',#289,#289,#258,.T.);
#352=EDGE_CURVE('',#289,#290,#128,.T.);
#353=EDGE_CURVE('',#290,#290,#259,.T.);
#354=EDGE_CURVE('',#291,#292,#129,.T.);
#355=EDGE_CURVE('',#292,#293,#130,.T.);
#356=EDGE_CURVE('',#293,#294,#131,.T.);
#357=EDGE_CURVE('',#294,#291,#132,.T.);
#358=EDGE_CURVE('',#295,#296,#133,.T.);
#359=EDGE_CURVE('',#296,#292,#260,.T.);
#360=EDGE_CURVE('',#291,#295,#261,.T.);
#361=EDGE_CURVE('',#297,#298,#134,.T.);
#362=EDGE_CURVE('',#298,#296,#135,.T.);
#363=EDGE_CURVE('',#295,#297,#136,.T.);
#364=EDGE_CURVE('',#299,#300,#137,.T.);
#365=EDGE_CURVE('',#300,#298,#262,.T.);
#366=EDGE_CURVE('',#297,#299,#263,.T.);
#367=EDGE_CURVE('',#301,#302,#138,.T.);
#368=EDGE_CURVE('',#302,#300,#139,.T.);
#369=EDGE_CURVE('',#299,#301,#140,.T.);
#370=EDGE_CURVE('',#303,#304,#141,.T.);
#371=EDGE_CURVE('',#304,#302,#264,.T.);
#372=EDGE_CURVE('',#301,#303,#265,.T.);
#373=EDGE_CURVE('',#305,#306,#142,.T.);
#374=EDGE_CURVE('',#306,#304,#143,.T.);
#375=EDGE_CURVE('',#303,#305,#144,.T.);
#376=EDGE_CURVE('',#307,#308,#145,.T.);
#377=EDGE_CURVE('',#308,#306,#266,.T.);
#378=EDGE_CURVE('',#305,#307,#267,.T.);
#379=EDGE_CURVE('',#309,#310,#146,.T.);
#380=EDGE_CURVE('',#310,#308,#147,.T.);
#381=EDGE_CURVE('',#307,#309,#148,.T.);
#382=EDGE_CURVE('',#293,#310,#268,.T.);
#383=EDGE_CURVE('',#309,#294,#269,.T.);
#384=EDGE_CURVE('',#311,#306,#149,.T.);
#385=EDGE_CURVE('',#312,#311,#150,.T.);
#386=EDGE_CURVE('',#304,#312,#151,.T.);
#387=EDGE_CURVE('',#308,#313,#152,.T.);
#388=EDGE_CURVE('',#313,#311,#270,.T.);
#389=EDGE_CURVE('',#314,#310,#153,.T.);
#390=EDGE_CURVE('',#313,#314,#154,.T.);
#391=EDGE_CURVE('',#293,#315,#155,.T.);
#392=EDGE_CURVE('',#315,#314,#271,.T.);
#393=EDGE_CURVE('',#316,#292,#156,.T.);
#394=EDGE_CURVE('',#315,#316,#157,.T.);
#395=EDGE_CURVE('',#317,#318,#158,.T.);
#396=EDGE_CURVE('',#318,#319,#159,.T.);
#397=EDGE_CURVE('',#319,#320,#160,.F.);
#398=EDGE_CURVE('',#320,#317,#161,.T.);
#399=EDGE_CURVE('',#317,#321,#162,.T.);
#400=EDGE_CURVE('',#322,#321,#163,.T.);
#401=EDGE_CURVE('',#322,#323,#164,.T.);
#402=EDGE_CURVE('',#324,#323,#165,.T.);
#403=EDGE_CURVE('',#324,#318,#166,.T.);
#404=EDGE_CURVE('',#325,#320,#167,.T.);
#405=EDGE_CURVE('',#321,#325,#168,.T.);
#406=EDGE_CURVE('',#325,#326,#169,.F.);
#407=EDGE_CURVE('',#326,#322,#170,.T.);
#408=EDGE_CURVE('',#327,#326,#171,.T.);
#409=EDGE_CURVE('',#323,#327,#172,.T.);
#410=EDGE_CURVE('',#328,#329,#272,.T.);
#411=EDGE_CURVE('',#329,#330,#173,.T.);
#412=EDGE_CURVE('',#330,#331,#273,.F.);
#413=EDGE_CURVE('',#331,#328,#174,.T.);
#414=EDGE_CURVE('',#312,#330,#274,.T.);
#415=EDGE_CURVE('',#329,#332,#275,.T.);
#416=EDGE_CURVE('',#332,#302,#175,.T.);
#417=EDGE_CURVE('',#333,#328,#276,.T.);
#418=EDGE_CURVE('',#333,#334,#176,.T.);
#419=EDGE_CURVE('',#335,#334,#277,.T.);
#420=EDGE_CURVE('',#336,#335,#278,.T.);
#421=EDGE_CURVE('',#337,#336,#279,.T.);
#422=EDGE_CURVE('',#337,#332,#177,.T.);
#423=EDGE_CURVE('',#335,#338,#178,.T.);
#424=EDGE_CURVE('',#338,#339,#280,.F.);
#425=EDGE_CURVE('',#339,#336,#179,.T.);
#426=EDGE_CURVE('',#334,#340,#180,.T.);
#427=EDGE_CURVE('',#338,#340,#281,.T.);
#428=EDGE_CURVE('',#341,#316,#282,.T.);
#429=EDGE_CURVE('',#341,#342,#181,.T.);
#430=EDGE_CURVE('',#339,#342,#283,.T.);
#431=EDGE_CURVE('',#340,#327,#182,.T.);
#432=EDGE_CURVE('',#319,#343,#183,.T.);
#433=EDGE_CURVE('',#343,#344,#184,.T.);
#434=EDGE_CURVE('',#331,#344,#284,.F.);
#435=EDGE_CURVE('',#344,#333,#185,.T.);
#436=EDGE_CURVE('',#300,#337,#186,.T.);
#437=EDGE_CURVE('',#296,#341,#187,.T.);
#438=EDGE_CURVE('',#342,#298,#188,.T.);
#439=EDGE_CURVE('',#343,#324,#189,.T.);
#440=ORIENTED_EDGE('',*,*,#345,.F.);
#441=ORIENTED_EDGE('',*,*,#346,.T.);
#442=ORIENTED_EDGE('',*,*,#347,.F.);
#443=ORIENTED_EDGE('',*,*,#346,.F.);
#444=ORIENTED_EDGE('',*,*,#348,.F.);
#445=ORIENTED_EDGE('',*,*,#349,.T.);
#446=ORIENTED_EDGE('',*,*,#350,.F.);
#447=ORIENTED_EDGE('',*,*,#349,.F.);
#448=ORIENTED_EDGE('',*,*,#351,.F.);
#449=ORIENTED_EDGE('',*,*,#352,.T.);
#450=ORIENTED_EDGE('',*,*,#353,.F.);
#451=ORIENTED_EDGE('',*,*,#352,.F.);
#452=ORIENTED_EDGE('',*,*,#354,.T.);
#453=ORIENTED_EDGE('',*,*,#355,.T.);
#454=ORIENTED_EDGE('',*,*,#356,.T.);
#455=ORIENTED_EDGE('',*,*,#357,.T.);
#456=ORIENTED_EDGE('',*,*,#358,.T.);
#457=ORIENTED_EDGE('',*,*,#359,.T.);
#458=ORIENTED_EDGE('',*,*,#354,.F.);
#459=ORIENTED_EDGE('',*,*,#360,.T.);
#460=ORIENTED_EDGE('',*,*,#361,.T.);
#461=ORIENTED_EDGE('',*,*,#362,.T.);
#462=ORIENTED_EDGE('',*,*,#358,.F.);
#463=ORIENTED_EDGE('',*,*,#363,.T.);
#464=ORIENTED_EDGE('',*,*,#364,.T.);
#465=ORIENTED_EDGE('',*,*,#365,.T.);
#466=ORIENTED_EDGE('',*,*,#361,.F.);
#467=ORIENTED_EDGE('',*,*,#366,.T.);
#468=ORIENTED_EDGE('',*,*,#367,.T.);
#469=ORIENTED_EDGE('',*,*,#368,.T.);
#470=ORIENTED_EDGE('',*,*,#364,.F.);
#471=ORIENTED_EDGE('',*,*,#369,.T.);
#472=ORIENTED_EDGE('',*,*,#370,.T.);
#473=ORIENTED_EDGE('',*,*,#371,.T.);
#474=ORIENTED_EDGE('',*,*,#367,.F.);
#475=ORIENTED_EDGE('',*,*,#372,.T.);
#476=ORIENTED_EDGE('',*,*,#373,.T.);
#477=ORIENTED_EDGE('',*,*,#374,.T.);
#478=ORIENTED_EDGE('',*,*,#370,.F.);
#479=ORIENTED_EDGE('',*,*,#375,.T.);
#480=ORIENTED_EDGE('',*,*,#376,.T.);
#481=ORIENTED_EDGE('',*,*,#377,.T.);
#482=ORIENTED_EDGE('',*,*,#373,.F.);
#483=ORIENTED_EDGE('',*,*,#378,.T.);
#484=ORIENTED_EDGE('',*,*,#379,.T.);
#485=ORIENTED_EDGE('',*,*,#380,.T.);
#486=ORIENTED_EDGE('',*,*,#376,.F.);
#487=ORIENTED_EDGE('',*,*,#381,.T.);
#488=ORIENTED_EDGE('',*,*,#356,.F.);
#489=ORIENTED_EDGE('',*,*,#382,.T.);
#490=ORIENTED_EDGE('',*,*,#379,.F.);
#491=ORIENTED_EDGE('',*,*,#383,.T.);
#492=ORIENTED_EDGE('',*,*,#374,.F.);
#493=ORIENTED_EDGE('',*,*,#384,.F.);
#494=ORIENTED_EDGE('',*,*,#385,.F.);
#495=ORIENTED_EDGE('',*,*,#386,.F.);
#496=ORIENTED_EDGE('',*,*,#377,.F.);
#497=ORIENTED_EDGE('',*,*,#387,.T.);
#498=ORIENTED_EDGE('',*,*,#388,.T.);
#499=ORIENTED_EDGE('',*,*,#384,.T.);
#500=ORIENTED_EDGE('',*,*,#380,.F.);
#501=ORIENTED_EDGE('',*,*,#389,.F.);
#502=ORIENTED_EDGE('',*,*,#390,.F.);
#503=ORIENTED_EDGE('',*,*,#387,.F.);
#504=ORIENTED_EDGE('',*,*,#382,.F.);
#505=ORIENTED_EDGE('',*,*,#391,.T.);
#506=ORIENTED_EDGE('',*,*,#392,.T.);
#507=ORIENTED_EDGE('',*,*,#389,.T.);
#508=ORIENTED_EDGE('',*,*,#355,.F.);
#509=ORIENTED_EDGE('',*,*,#393,.F.);
#510=ORIENTED_EDGE('',*,*,#394,.F.);
#511=ORIENTED_EDGE('',*,*,#391,.F.);
#512=ORIENTED_EDGE('',*,*,#357,.F.);
#513=ORIENTED_EDGE('',*,*,#383,.F.);
#514=ORIENTED_EDGE('',*,*,#381,.F.);
#515=ORIENTED_EDGE('',*,*,#378,.F.);
#516=ORIENTED_EDGE('',*,*,#375,.F.);
#517=ORIENTED_EDGE('',*,*,#372,.F.);
#518=ORIENTED_EDGE('',*,*,#369,.F.);
#519=ORIENTED_EDGE('',*,*,#366,.F.);
#520=ORIENTED_EDGE('',*,*,#363,.F.);
#521=ORIENTED_EDGE('',*,*,#360,.F.);
#522=ORIENTED_EDGE('',*,*,#345,.T.);
#523=ORIENTED_EDGE('',*,*,#348,.T.);
#524=ORIENTED_EDGE('',*,*,#351,.T.);
#525=ORIENTED_EDGE('',*,*,#395,.T.);
#526=ORIENTED_EDGE('',*,*,#396,.T.);
#527=ORIENTED_EDGE('',*,*,#397,.T.);
#528=ORIENTED_EDGE('',*,*,#398,.T.);
#529=ORIENTED_EDGE('',*,*,#395,.F.);
#530=ORIENTED_EDGE('',*,*,#399,.T.);
#531=ORIENTED_EDGE('',*,*,#400,.F.);
#532=ORIENTED_EDGE('',*,*,#401,.T.);
#533=ORIENTED_EDGE('',*,*,#402,.F.);
#534=ORIENTED_EDGE('',*,*,#403,.T.);
#535=ORIENTED_EDGE('',*,*,#347,.T.);
#536=ORIENTED_EDGE('',*,*,#350,.T.);
#537=ORIENTED_EDGE('',*,*,#353,.T.);
#538=ORIENTED_EDGE('',*,*,#398,.F.);
#539=ORIENTED_EDGE('',*,*,#404,.F.);
#540=ORIENTED_EDGE('',*,*,#405,.F.);
#541=ORIENTED_EDGE('',*,*,#399,.F.);
#542=ORIENTED_EDGE('',*,*,#400,.T.);
#543=ORIENTED_EDGE('',*,*,#405,.T.);
#544=ORIENTED_EDGE('',*,*,#406,.T.);
#545=ORIENTED_EDGE('',*,*,#407,.T.);
#546=ORIENTED_EDGE('',*,*,#407,.F.);
#547=ORIENTED_EDGE('',*,*,#408,.F.);
#548=ORIENTED_EDGE('',*,*,#409,.F.);
#549=ORIENTED_EDGE('',*,*,#401,.F.);
#550=ORIENTED_EDGE('',*,*,#410,.T.);
#551=ORIENTED_EDGE('',*,*,#411,.T.);
#552=ORIENTED_EDGE('',*,*,#412,.T.);
#553=ORIENTED_EDGE('',*,*,#413,.T.);
#554=ORIENTED_EDGE('',*,*,#371,.F.);
#555=ORIENTED_EDGE('',*,*,#386,.T.);
#556=ORIENTED_EDGE('',*,*,#414,.T.);
#557=ORIENTED_EDGE('',*,*,#411,.F.);
#558=ORIENTED_EDGE('',*,*,#415,.T.);
#559=ORIENTED_EDGE('',*,*,#416,.T.);
#560=ORIENTED_EDGE('',*,*,#410,.F.);
#561=ORIENTED_EDGE('',*,*,#417,.F.);
#562=ORIENTED_EDGE('',*,*,#418,.T.);
#563=ORIENTED_EDGE('',*,*,#419,.F.);
#564=ORIENTED_EDGE('',*,*,#420,.F.);
#565=ORIENTED_EDGE('',*,*,#421,.F.);
#566=ORIENTED_EDGE('',*,*,#422,.T.);
#567=ORIENTED_EDGE('',*,*,#415,.F.);
#568=ORIENTED_EDGE('',*,*,#420,.T.);
#569=ORIENTED_EDGE('',*,*,#423,.T.);
#570=ORIENTED_EDGE('',*,*,#424,.T.);
#571=ORIENTED_EDGE('',*,*,#425,.T.);
#572=ORIENTED_EDGE('',*,*,#423,.F.);
#573=ORIENTED_EDGE('',*,*,#419,.T.);
#574=ORIENTED_EDGE('',*,*,#426,.T.);
#575=ORIENTED_EDGE('',*,*,#427,.F.);
#576=ORIENTED_EDGE('',*,*,#392,.F.);
#577=ORIENTED_EDGE('',*,*,#394,.T.);
#578=ORIENTED_EDGE('',*,*,#428,.F.);
#579=ORIENTED_EDGE('',*,*,#429,.T.);
#580=ORIENTED_EDGE('',*,*,#430,.F.);
#581=ORIENTED_EDGE('',*,*,#424,.F.);
#582=ORIENTED_EDGE('',*,*,#427,.T.);
#583=ORIENTED_EDGE('',*,*,#431,.T.);
#584=ORIENTED_EDGE('',*,*,#408,.T.);
#585=ORIENTED_EDGE('',*,*,#406,.F.);
#586=ORIENTED_EDGE('',*,*,#404,.T.);
#587=ORIENTED_EDGE('',*,*,#397,.F.);
#588=ORIENTED_EDGE('',*,*,#432,.T.);
#589=ORIENTED_EDGE('',*,*,#433,.T.);
#590=ORIENTED_EDGE('',*,*,#434,.F.);
#591=ORIENTED_EDGE('',*,*,#412,.F.);
#592=ORIENTED_EDGE('',*,*,#414,.F.);
#593=ORIENTED_EDGE('',*,*,#385,.T.);
#594=ORIENTED_EDGE('',*,*,#388,.F.);
#595=ORIENTED_EDGE('',*,*,#390,.T.);
#596=ORIENTED_EDGE('',*,*,#413,.F.);
#597=ORIENTED_EDGE('',*,*,#434,.T.);
#598=ORIENTED_EDGE('',*,*,#435,.T.);
#599=ORIENTED_EDGE('',*,*,#417,.T.);
#600=ORIENTED_EDGE('',*,*,#368,.F.);
#601=ORIENTED_EDGE('',*,*,#416,.F.);
#602=ORIENTED_EDGE('',*,*,#422,.F.);
#603=ORIENTED_EDGE('',*,*,#436,.F.);
#604=ORIENTED_EDGE('',*,*,#359,.F.);
#605=ORIENTED_EDGE('',*,*,#437,.T.);
#606=ORIENTED_EDGE('',*,*,#428,.T.);
#607=ORIENTED_EDGE('',*,*,#393,.T.);
#608=ORIENTED_EDGE('',*,*,#362,.F.);
#609=ORIENTED_EDGE('',*,*,#438,.F.);
#610=ORIENTED_EDGE('',*,*,#429,.F.);
#611=ORIENTED_EDGE('',*,*,#437,.F.);
#612=ORIENTED_EDGE('',*,*,#365,.F.);
#613=ORIENTED_EDGE('',*,*,#436,.T.);
#614=ORIENTED_EDGE('',*,*,#421,.T.);
#615=ORIENTED_EDGE('',*,*,#425,.F.);
#616=ORIENTED_EDGE('',*,*,#430,.T.);
#617=ORIENTED_EDGE('',*,*,#438,.T.);
#618=ORIENTED_EDGE('',*,*,#435,.F.);
#619=ORIENTED_EDGE('',*,*,#433,.F.);
#620=ORIENTED_EDGE('',*,*,#439,.T.);
#621=ORIENTED_EDGE('',*,*,#402,.T.);
#622=ORIENTED_EDGE('',*,*,#409,.T.);
#623=ORIENTED_EDGE('',*,*,#431,.F.);
#624=ORIENTED_EDGE('',*,*,#426,.F.);
#625=ORIENTED_EDGE('',*,*,#418,.F.);
#626=ORIENTED_EDGE('',*,*,#396,.F.);
#627=ORIENTED_EDGE('',*,*,#403,.F.);
#628=ORIENTED_EDGE('',*,*,#439,.F.);
#629=ORIENTED_EDGE('',*,*,#432,.F.);
#630=CYLINDRICAL_SURFACE('',#702,1.621);
#631=CYLINDRICAL_SURFACE('',#705,1.621);
#632=CYLINDRICAL_SURFACE('',#708,1.621);
#633=CYLINDRICAL_SURFACE('',#732,5.);
#634=CYLINDRICAL_SURFACE('',#735,5.);
#635=CYLINDRICAL_SURFACE('',#744,1.);
#636=CYLINDRICAL_SURFACE('',#747,5.);
#637=CYLINDRICAL_SURFACE('',#755,1.);
#638=CYLINDRICAL_SURFACE('',#757,2.5);
#639=CYLINDRICAL_SURFACE('',#763,2.5);
#640=CYLINDRICAL_SURFACE('',#765,5.);
#641=CYLINDRICAL_SURFACE('',#767,5.);
#642=ADVANCED_FACE('',(#46),#630,.F.);
#643=ADVANCED_FACE('',(#47),#631,.F.);
#644=ADVANCED_FACE('',(#48),#632,.F.);
#645=ADVANCED_FACE('',(#49),#26,.T.);
#646=ADVANCED_FACE('',(#50),#21,.F.);
#647=ADVANCED_FACE('',(#51),#27,.T.);
#648=ADVANCED_FACE('',(#52),#22,.T.);
#649=ADVANCED_FACE('',(#53),#28,.T.);
#650=ADVANCED_FACE('',(#54),#23,.T.);
#651=ADVANCED_FACE('',(#55),#29,.T.);
#652=ADVANCED_FACE('',(#56),#24,.F.);
#653=ADVANCED_FACE('',(#57),#30,.T.);
#654=ADVANCED_FACE('',(#58),#25,.T.);
#655=ADVANCED_FACE('',(#59),#31,.T.);
#656=ADVANCED_FACE('',(#60),#633,.F.);
#657=ADVANCED_FACE('',(#61),#32,.T.);
#658=ADVANCED_FACE('',(#62),#634,.T.);
#659=ADVANCED_FACE('',(#63),#33,.T.);
#660=ADVANCED_FACE('',(#64,#15,#16,#17),#34,.F.);
#661=ADVANCED_FACE('',(#65),#35,.T.);
#662=ADVANCED_FACE('',(#66,#18,#19,#20),#36,.T.);
#663=ADVANCED_FACE('',(#67),#37,.T.);
#664=ADVANCED_FACE('',(#68),#38,.T.);
#665=ADVANCED_FACE('',(#69),#39,.T.);
#666=ADVANCED_FACE('',(#70),#635,.T.);
#667=ADVANCED_FACE('',(#71),#636,.T.);
#668=ADVANCED_FACE('',(#72),#40,.T.);
#669=ADVANCED_FACE('',(#73),#637,.T.);
#670=ADVANCED_FACE('',(#74),#638,.T.);
#671=ADVANCED_FACE('',(#75),#41,.T.);
#672=ADVANCED_FACE('',(#76),#639,.T.);
#673=ADVANCED_FACE('',(#77),#42,.T.);
#674=ADVANCED_FACE('',(#78),#640,.F.);
#675=ADVANCED_FACE('',(#79),#43,.T.);
#676=ADVANCED_FACE('',(#80),#641,.T.);
#677=ADVANCED_FACE('',(#81),#44,.T.);
#678=ADVANCED_FACE('',(#82),#45,.T.);
#679=CLOSED_SHELL('',(#642,#643,#644,#645,#646,#647,#648,#649,#650,#651,
#652,#653,#654,#655,#656,#657,#658,#659,#660,#661,#662,#663,#664,#665,#666,
#667,#668,#669,#670,#671,#672,#673,#674,#675,#676,#677,#678));
#680=DERIVED_UNIT_ELEMENT(#683,1.);
#681=DERIVED_UNIT_ELEMENT(#1170,-3.);
#682=DIMENSIONAL_EXPONENTS(0.,1.,0.,0.,0.,0.,0.);
#683=(
CONVERSION_BASED_UNIT('gram',#685)
MASS_UNIT()
NAMED_UNIT(#682)
);
#684=(
MASS_UNIT()
NAMED_UNIT(*)
SI_UNIT(.KILO.,.GRAM.)
);
#685=MASS_MEASURE_WITH_UNIT(MASS_MEASURE(0.001),#684);
#686=DERIVED_UNIT((#680,#681));
#687=MEASURE_REPRESENTATION_ITEM('density measure',
POSITIVE_RATIO_MEASURE(1.),#686);
#688=PROPERTY_DEFINITION_REPRESENTATION(#693,#690);
#689=PROPERTY_DEFINITION_REPRESENTATION(#694,#691);
#690=REPRESENTATION('material name',(#692),#1167);
#691=REPRESENTATION('density',(#687),#1167);
#692=DESCRIPTIVE_REPRESENTATION_ITEM('Generisch','Generisch');
#693=PROPERTY_DEFINITION('material property','material name',#1177);
#694=PROPERTY_DEFINITION('material property','density of part',#1177);
#695=DATE_TIME_ROLE('creation_date');
#696=APPLIED_DATE_AND_TIME_ASSIGNMENT(#697,#695,(#1177));
#697=DATE_AND_TIME(#698,#699);
#698=CALENDAR_DATE(2024,13,11);
#699=LOCAL_TIME(0,0,0.,#700);
#700=COORDINATED_UNIVERSAL_TIME_OFFSET(0,0,.BEHIND.);
#701=AXIS2_PLACEMENT_3D('',#972,#770,#771);
#702=AXIS2_PLACEMENT_3D('',#973,#772,#773);
#703=AXIS2_PLACEMENT_3D('',#975,#774,#775);
#704=AXIS2_PLACEMENT_3D('',#978,#777,#778);
#705=AXIS2_PLACEMENT_3D('',#979,#779,#780);
#706=AXIS2_PLACEMENT_3D('',#981,#781,#782);
#707=AXIS2_PLACEMENT_3D('',#984,#784,#785);
#708=AXIS2_PLACEMENT_3D('',#985,#786,#787);
#709=AXIS2_PLACEMENT_3D('',#987,#788,#789);
#710=AXIS2_PLACEMENT_3D('',#990,#791,#792);
#711=AXIS2_PLACEMENT_3D('',#991,#793,#794);
#712=AXIS2_PLACEMENT_3D('',#1000,#799,#800);
#713=AXIS2_PLACEMENT_3D('',#1004,#802,#803);
#714=AXIS2_PLACEMENT_3D('',#1005,#804,#805);
#715=AXIS2_PLACEMENT_3D('',#1006,#806,#807);
#716=AXIS2_PLACEMENT_3D('',#1012,#811,#812);
#717=AXIS2_PLACEMENT_3D('',#1016,#814,#815);
#718=AXIS2_PLACEMENT_3D('',#1017,#816,#817);
#719=AXIS2_PLACEMENT_3D('',#1018,#818,#819);
#720=AXIS2_PLACEMENT_3D('',#1024,#823,#824);
#721=AXIS2_PLACEMENT_3D('',#1028,#826,#827);
#722=AXIS2_PLACEMENT_3D('',#1029,#828,#829);
#723=AXIS2_PLACEMENT_3D('',#1030,#830,#831);
#724=AXIS2_PLACEMENT_3D('',#1036,#835,#836);
#725=AXIS2_PLACEMENT_3D('',#1040,#838,#839);
#726=AXIS2_PLACEMENT_3D('',#1041,#840,#841);
#727=AXIS2_PLACEMENT_3D('',#1042,#842,#843);
#728=AXIS2_PLACEMENT_3D('',#1048,#847,#848);
#729=AXIS2_PLACEMENT_3D('',#1049,#849,#850);
#730=AXIS2_PLACEMENT_3D('',#1050,#851,#852);
#731=AXIS2_PLACEMENT_3D('',#1051,#853,#854);
#732=AXIS2_PLACEMENT_3D('',#1057,#858,#859);
#733=AXIS2_PLACEMENT_3D('',#1060,#861,#862);
#734=AXIS2_PLACEMENT_3D('',#1061,#863,#864);
#735=AXIS2_PLACEMENT_3D('',#1065,#867,#868);
#736=AXIS2_PLACEMENT_3D('',#1068,#870,#871);
#737=AXIS2_PLACEMENT_3D('',#1069,#872,#873);
#738=AXIS2_PLACEMENT_3D('',#1073,#876,#877);
#739=AXIS2_PLACEMENT_3D('',#1074,#878,#879);
#740=AXIS2_PLACEMENT_3D('',#1083,#884,#885);
#741=AXIS2_PLACEMENT_3D('',#1093,#891,#892);
#742=AXIS2_PLACEMENT_3D('',#1097,#895,#896);
#743=AXIS2_PLACEMENT_3D('',#1101,#899,#900);
#744=AXIS2_PLACEMENT_3D('',#1105,#903,#904);
#745=AXIS2_PLACEMENT_3D('',#1108,#905,#906);
#746=AXIS2_PLACEMENT_3D('',#1112,#908,#909);
#747=AXIS2_PLACEMENT_3D('',#1114,#911,#912);
#748=AXIS2_PLACEMENT_3D('',#1115,#913,#914);
#749=AXIS2_PLACEMENT_3D('',#1117,#915,#916);
#750=AXIS2_PLACEMENT_3D('',#1119,#918,#919);
#751=AXIS2_PLACEMENT_3D('',#1121,#920,#921);
#752=AXIS2_PLACEMENT_3D('',#1125,#923,#924);
#753=AXIS2_PLACEMENT_3D('',#1127,#925,#926);
#754=AXIS2_PLACEMENT_3D('',#1129,#927,#928);
#755=AXIS2_PLACEMENT_3D('',#1131,#930,#931);
#756=AXIS2_PLACEMENT_3D('',#1135,#933,#934);
#757=AXIS2_PLACEMENT_3D('',#1137,#936,#937);
#758=AXIS2_PLACEMENT_3D('',#1140,#939,#940);
#759=AXIS2_PLACEMENT_3D('',#1141,#941,#942);
#760=AXIS2_PLACEMENT_3D('',#1143,#943,#944);
#761=AXIS2_PLACEMENT_3D('',#1146,#946,#947);
#762=AXIS2_PLACEMENT_3D('',#1152,#951,#952);
#763=AXIS2_PLACEMENT_3D('',#1153,#953,#954);
#764=AXIS2_PLACEMENT_3D('',#1155,#956,#957);
#765=AXIS2_PLACEMENT_3D('',#1157,#959,#960);
#766=AXIS2_PLACEMENT_3D('',#1159,#962,#963);
#767=AXIS2_PLACEMENT_3D('',#1161,#965,#966);
#768=AXIS2_PLACEMENT_3D('',#1162,#967,#968);
#769=AXIS2_PLACEMENT_3D('',#1164,#970,#971);
#770=DIRECTION('axis',(0.,0.,1.));
#771=DIRECTION('refdir',(1.,0.,0.));
#772=DIRECTION('center_axis',(0.,1.,0.));
#773=DIRECTION('ref_axis',(1.,0.,0.));
#774=DIRECTION('center_axis',(0.,1.,0.));
#775=DIRECTION('ref_axis',(1.,0.,0.));
#776=DIRECTION('',(0.,1.,0.));
#777=DIRECTION('center_axis',(0.,-1.,0.));
#778=DIRECTION('ref_axis',(1.,0.,0.));
#779=DIRECTION('center_axis',(0.,1.,0.));
#780=DIRECTION('ref_axis',(1.,0.,0.));
#781=DIRECTION('center_axis',(0.,1.,0.));
#782=DIRECTION('ref_axis',(1.,0.,0.));
#783=DIRECTION('',(0.,1.,0.));
#784=DIRECTION('center_axis',(0.,-1.,0.));
#785=DIRECTION('ref_axis',(1.,0.,0.));
#786=DIRECTION('center_axis',(0.,1.,0.));
#787=DIRECTION('ref_axis',(1.,0.,0.));
#788=DIRECTION('center_axis',(0.,1.,0.));
#789=DIRECTION('ref_axis',(1.,0.,0.));
#790=DIRECTION('',(0.,1.,0.));
#791=DIRECTION('center_axis',(0.,-1.,0.));
#792=DIRECTION('ref_axis',(1.,0.,0.));
#793=DIRECTION('center_axis',(0.707106781186548,-0.707106781186548,0.));
#794=DIRECTION('ref_axis',(0.,0.,-1.));
#795=DIRECTION('',(0.707106781186548,0.707106781186548,0.));
#796=DIRECTION('',(0.,0.,1.));
#797=DIRECTION('',(-0.707106781186548,-0.707106781186548,0.));
#798=DIRECTION('',(0.,0.,-1.));
#799=DIRECTION('center_axis',(0.,-1.,0.));
#800=DIRECTION('ref_axis',(-0.97324898946773,0.,-0.229752920547361));
#801=DIRECTION('',(0.632455532033675,0.707106781186548,0.316227766016839));
#802=DIRECTION('center_axis',(0.,1.,0.));
#803=DIRECTION('ref_axis',(-0.97324898946773,0.,-0.229752920547361));
#804=DIRECTION('center_axis',(0.,-1.,0.));
#805=DIRECTION('ref_axis',(-0.97324898946773,0.,-0.229752920547361));
#806=DIRECTION('center_axis',(0.632455532033675,-0.707106781186549,0.316227766016837));
#807=DIRECTION('ref_axis',(0.447213595499958,0.,-0.894427190999916));
#808=DIRECTION('',(0.632455532033677,0.707106781186546,0.316227766016839));
#809=DIRECTION('',(-0.447213595499958,0.,0.894427190999916));
#810=DIRECTION('',(0.447213595499958,0.,-0.894427190999916));
#811=DIRECTION('center_axis',(0.,1.,0.));
#812=DIRECTION('ref_axis',(0.894427190999916,0.,0.447213595499958));
#813=DIRECTION('',(1.04672830578918E-15,0.707106781186547,-0.707106781186548));
#814=DIRECTION('center_axis',(0.,-1.,0.));
#815=DIRECTION('ref_axis',(0.894427190999916,0.,0.447213595499958));
#816=DIRECTION('center_axis',(0.,1.,0.));
#817=DIRECTION('ref_axis',(0.894427190999916,0.,0.447213595499958));
#818=DIRECTION('center_axis',(1.57009245868377E-16,-0.70710678118655,-0.707106781186545));
#819=DIRECTION('ref_axis',(-1.,0.,-2.22044604925031E-16));
#820=DIRECTION('',(0.,0.707106781186543,-0.707106781186552));
#821=DIRECTION('',(1.,0.,2.22044604925031E-16));
#822=DIRECTION('',(-1.,0.,-2.22044604925031E-16));
#823=DIRECTION('center_axis',(0.,1.,0.));
#824=DIRECTION('ref_axis',(2.22044604925031E-16,0.,-1.));
#825=DIRECTION('',(-0.632455532033675,0.707106781186548,0.316227766016839));
#826=DIRECTION('center_axis',(0.,-1.,0.));
#827=DIRECTION('ref_axis',(2.22044604925031E-16,0.,-1.));
#828=DIRECTION('center_axis',(0.,1.,0.));
#829=DIRECTION('ref_axis',(2.22044604925031E-16,0.,-1.));
#830=DIRECTION('center_axis',(-0.632455532033674,-0.707106781186549,0.316227766016837));
#831=DIRECTION('ref_axis',(0.447213595499958,0.,0.894427190999916));
#832=DIRECTION('',(-0.632455532033677,0.707106781186546,0.316227766016839));
#833=DIRECTION('',(-0.447213595499958,0.,-0.894427190999916));
#834=DIRECTION('',(0.447213595499958,0.,0.894427190999916));
#835=DIRECTION('center_axis',(0.,-1.,0.));
#836=DIRECTION('ref_axis',(0.97324898946773,0.,-0.229752920547361));
#837=DIRECTION('',(-0.707106781186547,0.707106781186548,0.));
#838=DIRECTION('center_axis',(0.,1.,0.));
#839=DIRECTION('ref_axis',(0.97324898946773,0.,-0.229752920547361));
#840=DIRECTION('center_axis',(0.,-1.,0.));
#841=DIRECTION('ref_axis',(0.97324898946773,0.,-0.229752920547361));
#842=DIRECTION('center_axis',(-0.707106781186548,-0.707106781186548,0.));
#843=DIRECTION('ref_axis',(0.,0.,1.));
#844=DIRECTION('',(-0.707106781186548,0.707106781186548,0.));
#845=DIRECTION('',(0.,0.,-1.));
#846=DIRECTION('',(0.,0.,1.));
#847=DIRECTION('center_axis',(0.,1.,0.));
#848=DIRECTION('ref_axis',(0.707106781186548,0.,0.707106781186548));
#849=DIRECTION('center_axis',(0.,-1.,0.));
#850=DIRECTION('ref_axis',(0.707106781186547,0.,0.707106781186547));
#851=DIRECTION('center_axis',(0.,1.,0.));
#852=DIRECTION('ref_axis',(0.707106781186547,0.,0.707106781186547));
#853=DIRECTION('center_axis',(-0.894427190999916,0.,0.447213595499958));
#854=DIRECTION('ref_axis',(0.447213595499958,0.,0.894427190999916));
#855=DIRECTION('',(0.,-1.,0.));
#856=DIRECTION('',(0.447213595499958,0.,0.894427190999916));
#857=DIRECTION('',(0.,1.,0.));
#858=DIRECTION('center_axis',(0.,1.,0.));
#859=DIRECTION('ref_axis',(0.97324898946773,0.,-0.229752920547361));
#860=DIRECTION('',(0.,1.,0.));
#861=DIRECTION('center_axis',(0.,1.,0.));
#862=DIRECTION('ref_axis',(0.97324898946773,0.,-0.229752920547361));
#863=DIRECTION('center_axis',(-1.,0.,0.));
#864=DIRECTION('ref_axis',(0.,0.,1.));
#865=DIRECTION('',(0.,-1.,0.));
#866=DIRECTION('',(0.,0.,1.));
#867=DIRECTION('center_axis',(0.,1.,0.));
#868=DIRECTION('ref_axis',(0.707106781186547,0.,0.707106781186547));
#869=DIRECTION('',(0.,1.,0.));
#870=DIRECTION('center_axis',(0.,-1.,0.));
#871=DIRECTION('ref_axis',(-0.707106781186547,0.,0.707106781186547));
#872=DIRECTION('center_axis',(1.,0.,0.));
#873=DIRECTION('ref_axis',(0.,0.,-1.));
#874=DIRECTION('',(0.,-1.,0.));
#875=DIRECTION('',(0.,0.,-1.));
#876=DIRECTION('center_axis',(0.,1.,0.));
#877=DIRECTION('ref_axis',(0.,0.,1.));
#878=DIRECTION('center_axis',(-0.707106781186548,0.,0.707106781186547));
#879=DIRECTION('ref_axis',(0.707106781186547,0.,0.707106781186548));
#880=DIRECTION('',(-0.707106781186547,0.,-0.707106781186548));
#881=DIRECTION('',(0.,-1.,0.));
#882=DIRECTION('',(-0.707106781186547,0.,-0.707106781186548));
#883=DIRECTION('',(0.,1.,0.));
#884=DIRECTION('center_axis',(0.,1.,0.));
#885=DIRECTION('ref_axis',(0.,0.,1.));
#886=DIRECTION('',(1.,0.,0.));
#887=DIRECTION('',(-0.707106781186547,0.,0.707106781186548));
#888=DIRECTION('',(-1.71579921987524E-16,0.,-1.));
#889=DIRECTION('',(1.,0.,0.));
#890=DIRECTION('',(1.91765795162527E-16,0.,1.));
#891=DIRECTION('center_axis',(0.,0.,1.));
#892=DIRECTION('ref_axis',(1.,0.,0.));
#893=DIRECTION('',(-1.,0.,0.));
#894=DIRECTION('',(0.,-1.,0.));
#895=DIRECTION('center_axis',(0.707106781186548,0.,0.707106781186547));
#896=DIRECTION('ref_axis',(0.707106781186547,0.,-0.707106781186548));
#897=DIRECTION('',(-0.707106781186547,0.,0.707106781186548));
#898=DIRECTION('',(0.,1.,0.));
#899=DIRECTION('center_axis',(1.,0.,-1.71579921987524E-16));
#900=DIRECTION('ref_axis',(-1.71579921987524E-16,0.,-1.));
#901=DIRECTION('',(1.71579921987524E-16,0.,1.));
#902=DIRECTION('',(0.,-1.,0.));
#903=DIRECTION('center_axis',(0.,1.,0.));
#904=DIRECTION('ref_axis',(-0.928394628376037,0.,0.371595766932994));
#905=DIRECTION('center_axis',(0.,-1.,0.));
#906=DIRECTION('ref_axis',(-0.928394628376037,0.,0.371595766932994));
#907=DIRECTION('',(0.,-1.,0.));
#908=DIRECTION('center_axis',(0.,-1.,0.));
#909=DIRECTION('ref_axis',(-0.928394628376037,0.,0.371595766932994));
#910=DIRECTION('',(0.,1.,0.));
#911=DIRECTION('center_axis',(0.,1.,0.));
#912=DIRECTION('ref_axis',(2.22044604925031E-16,0.,-1.));
#913=DIRECTION('center_axis',(0.,-1.,0.));
#914=DIRECTION('ref_axis',(2.22044604925031E-16,0.,-1.));
#915=DIRECTION('center_axis',(0.,-1.,0.));
#916=DIRECTION('ref_axis',(2.22044604925031E-16,0.,-1.));
#917=DIRECTION('',(0.,-1.,0.));
#918=DIRECTION('center_axis',(0.,1.,0.));
#919=DIRECTION('ref_axis',(0.,0.,1.));
#920=DIRECTION('center_axis',(0.,-1.,0.));
#921=DIRECTION('ref_axis',(-0.707106781186547,0.,0.707106781186547));
#922=DIRECTION('',(1.,0.,0.));
#923=DIRECTION('center_axis',(0.,-1.,0.));
#924=DIRECTION('ref_axis',(0.707106781186547,0.,0.707106781186548));
#925=DIRECTION('center_axis',(0.,-1.,0.));
#926=DIRECTION('ref_axis',(0.928394628376035,0.,0.371595766932999));
#927=DIRECTION('center_axis',(0.,-1.,0.));
#928=DIRECTION('ref_axis',(0.894427190999916,0.,0.447213595499958));
#929=DIRECTION('',(-1.,0.,0.));
#930=DIRECTION('center_axis',(0.,-1.,0.));
#931=DIRECTION('ref_axis',(0.928394628376035,0.,0.371595766932999));
#932=DIRECTION('',(0.,-1.,0.));
#933=DIRECTION('center_axis',(0.,-1.,0.));
#934=DIRECTION('ref_axis',(0.928394628376035,0.,0.371595766932999));
#935=DIRECTION('',(0.,1.,0.));
#936=DIRECTION('center_axis',(0.,1.,0.));
#937=DIRECTION('ref_axis',(0.707106781186547,0.,0.707106781186548));
#938=DIRECTION('',(0.,-1.,0.));
#939=DIRECTION('center_axis',(0.,-1.,0.));
#940=DIRECTION('ref_axis',(0.707106781186547,0.,0.707106781186548));
#941=DIRECTION('center_axis',(0.,1.,0.));
#942=DIRECTION('ref_axis',(0.,0.,1.));
#943=DIRECTION('center_axis',(0.,1.,0.));
#944=DIRECTION('ref_axis',(-0.97324898946773,0.,-0.229752920547361));
#945=DIRECTION('',(0.447213595499958,0.,-0.894427190999916));
#946=DIRECTION('center_axis',(0.,-1.,0.));
#947=DIRECTION('ref_axis',(0.894427190999916,0.,0.447213595499958));
#948=DIRECTION('',(-1.,0.,0.));
#949=DIRECTION('',(-1.91765795162527E-16,0.,-1.));
#950=DIRECTION('',(-1.,0.,0.));
#951=DIRECTION('center_axis',(0.,-1.,0.));
#952=DIRECTION('ref_axis',(-0.707106781186547,0.,0.707106781186547));
#953=DIRECTION('center_axis',(0.,1.,0.));
#954=DIRECTION('ref_axis',(-0.707106781186547,0.,0.707106781186547));
#955=DIRECTION('',(0.,1.,0.));
#956=DIRECTION('center_axis',(2.22044604925031E-16,0.,-1.));
#957=DIRECTION('ref_axis',(-1.,0.,-2.22044604925031E-16));
#958=DIRECTION('',(0.,1.,0.));
#959=DIRECTION('center_axis',(0.,1.,0.));
#960=DIRECTION('ref_axis',(-0.97324898946773,0.,-0.229752920547361));
#961=DIRECTION('',(0.,1.,0.));
#962=DIRECTION('center_axis',(0.894427190999916,0.,0.447213595499958));
#963=DIRECTION('ref_axis',(0.447213595499958,0.,-0.894427190999916));
#964=DIRECTION('',(0.,-1.,0.));
#965=DIRECTION('center_axis',(0.,1.,0.));
#966=DIRECTION('ref_axis',(0.894427190999916,0.,0.447213595499958));
#967=DIRECTION('center_axis',(0.,0.,1.));
#968=DIRECTION('ref_axis',(1.,0.,0.));
#969=DIRECTION('',(0.,1.,0.));
#970=DIRECTION('center_axis',(-1.,0.,1.91765795162527E-16));
#971=DIRECTION('ref_axis',(1.91765795162527E-16,0.,1.));
#972=CARTESIAN_POINT('',(0.,0.,0.));
#973=CARTESIAN_POINT('Origin',(0.,67.9810974223722,-25.));
#974=CARTESIAN_POINT('',(-1.621,-8.88178419700125E-15,-25.));
#975=CARTESIAN_POINT('Origin',(0.,0.,-25.));
#976=CARTESIAN_POINT('',(-1.621,3.,-25.));
#977=CARTESIAN_POINT('',(-1.621,67.9810974223722,-25.));
#978=CARTESIAN_POINT('Origin',(0.,3.,-25.));
#979=CARTESIAN_POINT('Origin',(0.,67.9810974223722,-5.));
#980=CARTESIAN_POINT('',(-1.621,-8.88178419700125E-15,-5.));
#981=CARTESIAN_POINT('Origin',(0.,0.,-5.));
#982=CARTESIAN_POINT('',(-1.621,3.,-5.));
#983=CARTESIAN_POINT('',(-1.621,67.9810974223722,-5.));
#984=CARTESIAN_POINT('Origin',(0.,3.,-5.));
#985=CARTESIAN_POINT('Origin',(0.,67.9810974223722,15.));
#986=CARTESIAN_POINT('',(-1.621,-8.88178419700125E-15,15.));
#987=CARTESIAN_POINT('Origin',(0.,0.,15.));
#988=CARTESIAN_POINT('',(-1.621,3.,15.));
#989=CARTESIAN_POINT('',(-1.621,67.9810974223722,15.));
#990=CARTESIAN_POINT('Origin',(0.,3.,15.));
#991=CARTESIAN_POINT('Origin',(4.625,0.375,8.75));
#992=CARTESIAN_POINT('',(4.25,0.,-23.8196601125011));
#993=CARTESIAN_POINT('',(5.,0.75,-23.8196601125011));
#994=CARTESIAN_POINT('',(4.25,0.,-23.8196601125011));
#995=CARTESIAN_POINT('',(5.,0.75,20.));
#996=CARTESIAN_POINT('',(5.,0.75,8.75));
#997=CARTESIAN_POINT('',(4.25,0.,20.));
#998=CARTESIAN_POINT('',(5.,0.75,20.));
#999=CARTESIAN_POINT('',(4.25,0.,8.75));
#1000=CARTESIAN_POINT('Origin',(10.,0.375,-23.8196601125011));
#1001=CARTESIAN_POINT('',(4.85704365175048,0.,-26.3911382866258));
#1002=CARTESIAN_POINT('',(5.52786404500042,0.75,-26.0557280900008));
#1003=CARTESIAN_POINT('',(4.85704365175048,0.,-26.3911382866258));
#1004=CARTESIAN_POINT('Origin',(10.,0.75,-23.8196601125011));
#1005=CARTESIAN_POINT('Origin',(10.,0.,-23.8196601125011));
#1006=CARTESIAN_POINT('Origin',(0.664589803375029,0.375,-17.1677050983125));
#1007=CARTESIAN_POINT('',(8.21114561800016,0.,-33.0993422191252));
#1008=CARTESIAN_POINT('',(8.8819660112501,0.75,-32.7639320225002));
#1009=CARTESIAN_POINT('',(8.21114561800016,0.,-33.0993422191252));
#1010=CARTESIAN_POINT('',(0.999999999999999,0.75,-17.));
#1011=CARTESIAN_POINT('',(0.329179606750059,0.,-17.335410196625));
#1012=CARTESIAN_POINT('Origin',(4.40983005625053,0.375,-35.));
#1013=CARTESIAN_POINT('',(4.40983005625053,0.,-39.25));
#1014=CARTESIAN_POINT('',(4.40983005625053,0.75,-40.));
#1015=CARTESIAN_POINT('',(4.40983005625053,0.,-39.25));
#1016=CARTESIAN_POINT('Origin',(4.40983005625053,0.75,-35.));
#1017=CARTESIAN_POINT('Origin',(4.40983005625053,0.,-35.));
#1018=CARTESIAN_POINT('Origin',(5.,0.375,-39.625));
#1019=CARTESIAN_POINT('',(-4.40983005625053,0.,-39.25));
#1020=CARTESIAN_POINT('',(-4.40983005625053,0.75,-40.));
#1021=CARTESIAN_POINT('',(-4.40983005625053,0.,-39.25));
#1022=CARTESIAN_POINT('',(5.,0.75,-40.));
#1023=CARTESIAN_POINT('',(5.,0.,-39.25));
#1024=CARTESIAN_POINT('Origin',(-4.40983005625053,0.375,-35.));
#1025=CARTESIAN_POINT('',(-8.21114561800017,0.,-33.0993422191252));
#1026=CARTESIAN_POINT('',(-8.88196601125011,0.75,-32.7639320225002));
#1027=CARTESIAN_POINT('',(-8.21114561800017,0.,-33.0993422191252));
#1028=CARTESIAN_POINT('Origin',(-4.40983005625053,0.75,-35.));
#1029=CARTESIAN_POINT('Origin',(-4.40983005625053,0.,-35.));
#1030=CARTESIAN_POINT('Origin',(-3.16458980337503,0.375,-22.1677050983125));
#1031=CARTESIAN_POINT('',(-4.85704365175048,0.,-26.3911382866258));
#1032=CARTESIAN_POINT('',(-5.52786404500042,0.75,-26.0557280900008));
#1033=CARTESIAN_POINT('',(-4.85704365175048,0.,-26.3911382866258));
#1034=CARTESIAN_POINT('',(-3.5,0.75,-22.));
#1035=CARTESIAN_POINT('',(-2.82917960675006,0.,-22.335410196625));
#1036=CARTESIAN_POINT('Origin',(-10.,0.375,-23.8196601125011));
#1037=CARTESIAN_POINT('',(-4.25,0.,-23.8196601125011));
#1038=CARTESIAN_POINT('',(-5.,0.75,-23.8196601125011));
#1039=CARTESIAN_POINT('',(-4.25,0.,-23.8196601125011));
#1040=CARTESIAN_POINT('Origin',(-10.,0.75,-23.8196601125011));
#1041=CARTESIAN_POINT('Origin',(-10.,0.,-23.8196601125011));
#1042=CARTESIAN_POINT('Origin',(-4.625,0.375,-16.25));
#1043=CARTESIAN_POINT('',(-4.25,0.,20.));
#1044=CARTESIAN_POINT('',(-5.,0.75,20.));
#1045=CARTESIAN_POINT('',(-4.25,0.,20.));
#1046=CARTESIAN_POINT('',(-5.,0.75,-16.25));
#1047=CARTESIAN_POINT('',(-4.25,0.,-16.25));
#1048=CARTESIAN_POINT('Origin',(0.,0.375,20.));
#1049=CARTESIAN_POINT('Origin',(0.,0.75,20.));
#1050=CARTESIAN_POINT('Origin',(0.,0.,20.));
#1051=CARTESIAN_POINT('Origin',(-10.,0.,-35.));
#1052=CARTESIAN_POINT('',(-5.52786404500042,1.5,-26.0557280900008));
#1053=CARTESIAN_POINT('',(-5.52786404500042,0.,-26.0557280900008));
#1054=CARTESIAN_POINT('',(-8.88196601125011,1.5,-32.7639320225002));
#1055=CARTESIAN_POINT('',(-10.,1.5,-35.));
#1056=CARTESIAN_POINT('',(-8.88196601125011,0.,-32.7639320225002));
#1057=CARTESIAN_POINT('Origin',(-10.,0.,-23.8196601125011));
#1058=CARTESIAN_POINT('',(-5.,1.5,-23.8196601125011));
#1059=CARTESIAN_POINT('',(-5.,0.,-23.8196601125011));
#1060=CARTESIAN_POINT('Origin',(-10.,1.5,-23.8196601125011));
#1061=CARTESIAN_POINT('Origin',(-5.,0.,-25.));
#1062=CARTESIAN_POINT('',(-5.,1.5,20.));
#1063=CARTESIAN_POINT('',(-5.,0.,20.));
#1064=CARTESIAN_POINT('',(-5.,1.5,-25.));
#1065=CARTESIAN_POINT('Origin',(0.,0.,20.));
#1066=CARTESIAN_POINT('',(5.,1.5,20.));
#1067=CARTESIAN_POINT('',(5.,0.,20.));
#1068=CARTESIAN_POINT('Origin',(0.,1.5,20.));
#1069=CARTESIAN_POINT('Origin',(5.,0.,25.));
#1070=CARTESIAN_POINT('',(5.,1.5,-23.8196601125011));
#1071=CARTESIAN_POINT('',(5.,0.,-23.8196601125011));
#1072=CARTESIAN_POINT('',(5.,1.5,25.));
#1073=CARTESIAN_POINT('Origin',(1.11022302462516E-15,0.,-7.5));
#1074=CARTESIAN_POINT('Origin',(-1.49999999999999,1.5,19.));
#1075=CARTESIAN_POINT('',(-0.49999999999999,3.,20.));
#1076=CARTESIAN_POINT('',(-2.49999999999999,3.,18.));
#1077=CARTESIAN_POINT('',(-7.74999999999999,3.,12.75));
#1078=CARTESIAN_POINT('',(-2.49999999999999,1.5,18.));
#1079=CARTESIAN_POINT('',(-2.49999999999999,1.5,18.));
#1080=CARTESIAN_POINT('',(-0.49999999999999,1.5,20.));
#1081=CARTESIAN_POINT('',(-7.74999999999999,1.5,12.75));
#1082=CARTESIAN_POINT('',(-0.49999999999999,1.5,20.));
#1083=CARTESIAN_POINT('Origin',(4.44089209850063E-15,3.,-7.5));
#1084=CARTESIAN_POINT('',(0.50000000000001,3.,20.));
#1085=CARTESIAN_POINT('',(-2.49999999999999,3.,20.));
#1086=CARTESIAN_POINT('',(2.50000000000001,3.,18.));
#1087=CARTESIAN_POINT('',(7.75000000000001,3.,12.75));
#1088=CARTESIAN_POINT('',(2.5,3.,-35.));
#1089=CARTESIAN_POINT('',(2.50000000000001,3.,20.));
#1090=CARTESIAN_POINT('',(-2.5,3.,-35.));
#1091=CARTESIAN_POINT('',(-5.,3.,-35.));
#1092=CARTESIAN_POINT('',(-2.5,3.,-35.));
#1093=CARTESIAN_POINT('Origin',(-2.49999999999999,1.5,20.));
#1094=CARTESIAN_POINT('',(0.50000000000001,1.5,20.));
#1095=CARTESIAN_POINT('',(-1.24999999999999,1.5,20.));
#1096=CARTESIAN_POINT('',(0.50000000000001,1.5,20.));
#1097=CARTESIAN_POINT('Origin',(1.50000000000001,1.5,19.));
#1098=CARTESIAN_POINT('',(2.50000000000001,1.5,18.));
#1099=CARTESIAN_POINT('',(7.75000000000001,1.5,12.75));
#1100=CARTESIAN_POINT('',(2.50000000000001,1.5,18.));
#1101=CARTESIAN_POINT('Origin',(2.50000000000001,1.5,20.));
#1102=CARTESIAN_POINT('',(2.5,1.5,-35.));
#1103=CARTESIAN_POINT('',(2.50000000000001,1.5,6.25));
#1104=CARTESIAN_POINT('',(2.5,1.5,-35.));
#1105=CARTESIAN_POINT('Origin',(-8.22900814758736,0.,-36.1890663171803));
#1106=CARTESIAN_POINT('',(-8.71501357931228,6.5,-35.3151105286338));
#1107=CARTESIAN_POINT('',(-9.18380267042157,6.5,-36.4863328964754));
#1108=CARTESIAN_POINT('Origin',(-8.22900814758736,6.5,-36.1890663171803));
#1109=CARTESIAN_POINT('',(-9.18380267042157,1.5,-36.4863328964754));
#1110=CARTESIAN_POINT('',(-9.18380267042157,0.,-36.4863328964754));
#1111=CARTESIAN_POINT('',(-8.71501357931228,1.5,-35.3151105286338));
#1112=CARTESIAN_POINT('Origin',(-8.22900814758736,1.5,-36.1890663171803));
#1113=CARTESIAN_POINT('',(-8.71501357931228,0.,-35.3151105286338));
#1114=CARTESIAN_POINT('Origin',(-4.40983005625053,0.,-35.));
#1115=CARTESIAN_POINT('Origin',(-4.40983005625053,1.5,-35.));
#1116=CARTESIAN_POINT('',(-4.40983005625053,6.5,-40.));
#1117=CARTESIAN_POINT('Origin',(-4.40983005625053,6.5,-35.));
#1118=CARTESIAN_POINT('',(-4.40983005625053,0.,-40.));
#1119=CARTESIAN_POINT('Origin',(0.,6.5,-37.5));
#1120=CARTESIAN_POINT('',(-7.5,6.5,-35.));
#1121=CARTESIAN_POINT('Origin',(-7.5,6.5,-37.5));
#1122=CARTESIAN_POINT('',(7.5,6.5,-35.));
#1123=CARTESIAN_POINT('',(-10.,6.5,-35.));
#1124=CARTESIAN_POINT('',(8.71501357931227,6.5,-35.3151105286338));
#1125=CARTESIAN_POINT('Origin',(7.5,6.5,-37.5));
#1126=CARTESIAN_POINT('',(9.18380267042157,6.5,-36.4863328964754));
#1127=CARTESIAN_POINT('Origin',(8.22900814758736,6.5,-36.1890663171803));
#1128=CARTESIAN_POINT('',(4.40983005625053,6.5,-40.));
#1129=CARTESIAN_POINT('Origin',(4.40983005625053,6.5,-35.));
#1130=CARTESIAN_POINT('',(10.,6.5,-40.));
#1131=CARTESIAN_POINT('Origin',(8.22900814758736,0.,-36.1890663171803));
#1132=CARTESIAN_POINT('',(8.71501357931227,1.5,-35.3151105286338));
#1133=CARTESIAN_POINT('',(8.71501357931227,0.,-35.3151105286338));
#1134=CARTESIAN_POINT('',(9.18380267042157,1.5,-36.4863328964754));
#1135=CARTESIAN_POINT('Origin',(8.22900814758736,1.5,-36.1890663171803));
#1136=CARTESIAN_POINT('',(9.18380267042157,0.,-36.4863328964754));
#1137=CARTESIAN_POINT('Origin',(7.5,0.75,-37.5));
#1138=CARTESIAN_POINT('',(7.5,1.5,-35.));
#1139=CARTESIAN_POINT('',(7.5,0.75,-35.));
#1140=CARTESIAN_POINT('Origin',(7.5,1.5,-37.5));
#1141=CARTESIAN_POINT('Origin',(1.11022302462516E-15,1.5,-7.5));
#1142=CARTESIAN_POINT('',(5.52786404500042,1.5,-26.0557280900008));
#1143=CARTESIAN_POINT('Origin',(10.,1.5,-23.8196601125011));
#1144=CARTESIAN_POINT('',(8.8819660112501,1.5,-32.7639320225002));
#1145=CARTESIAN_POINT('',(5.,1.5,-25.));
#1146=CARTESIAN_POINT('Origin',(4.40983005625053,1.5,-35.));
#1147=CARTESIAN_POINT('',(-5.,1.5,-35.));
#1148=CARTESIAN_POINT('',(-2.5,1.5,-35.));
#1149=CARTESIAN_POINT('',(-2.5,1.5,-21.25));
#1150=CARTESIAN_POINT('',(-7.5,1.5,-35.));
#1151=CARTESIAN_POINT('',(-5.,1.5,-35.));
#1152=CARTESIAN_POINT('Origin',(-7.5,1.5,-37.5));
#1153=CARTESIAN_POINT('Origin',(-7.5,0.75,-37.5));
#1154=CARTESIAN_POINT('',(-7.5,0.75,-35.));
#1155=CARTESIAN_POINT('Origin',(10.,0.,-40.));
#1156=CARTESIAN_POINT('',(4.40983005625053,0.,-40.));
#1157=CARTESIAN_POINT('Origin',(10.,0.,-23.8196601125011));
#1158=CARTESIAN_POINT('',(5.52786404500042,0.,-26.0557280900008));
#1159=CARTESIAN_POINT('Origin',(5.,0.,-25.));
#1160=CARTESIAN_POINT('',(8.8819660112501,0.,-32.7639320225002));
#1161=CARTESIAN_POINT('Origin',(4.40983005625053,0.,-35.));
#1162=CARTESIAN_POINT('Origin',(-10.,1.5,-35.));
#1163=CARTESIAN_POINT('',(-2.5,1.5,-35.));
#1164=CARTESIAN_POINT('Origin',(-2.5,1.5,-35.));
#1165=UNCERTAINTY_MEASURE_WITH_UNIT(LENGTH_MEASURE(0.01),#1169,
'DISTANCE_ACCURACY_VALUE',
'Maximum model space distance between geometric entities at asserted c
onnectivities');
#1166=UNCERTAINTY_MEASURE_WITH_UNIT(LENGTH_MEASURE(0.01),#1169,
'DISTANCE_ACCURACY_VALUE',
'Maximum model space distance between geometric entities at asserted c
onnectivities');
#1167=(
GEOMETRIC_REPRESENTATION_CONTEXT(3)
GLOBAL_UNCERTAINTY_ASSIGNED_CONTEXT((#1165))
GLOBAL_UNIT_ASSIGNED_CONTEXT((#1169,#1171,#1172))
REPRESENTATION_CONTEXT('','3D')
);
#1168=(
GEOMETRIC_REPRESENTATION_CONTEXT(3)
GLOBAL_UNCERTAINTY_ASSIGNED_CONTEXT((#1166))
GLOBAL_UNIT_ASSIGNED_CONTEXT((#1169,#1171,#1172))
REPRESENTATION_CONTEXT('','3D')
);
#1169=(
LENGTH_UNIT()
NAMED_UNIT(*)
SI_UNIT(.MILLI.,.METRE.)
);
#1170=(
LENGTH_UNIT()
NAMED_UNIT(*)
SI_UNIT(.CENTI.,.METRE.)
);
#1171=(
NAMED_UNIT(*)
PLANE_ANGLE_UNIT()
SI_UNIT($,.RADIAN.)
);
#1172=(
NAMED_UNIT(*)
SI_UNIT($,.STERADIAN.)
SOLID_ANGLE_UNIT()
);
#1173=SHAPE_DEFINITION_REPRESENTATION(#1174,#1175);
#1174=PRODUCT_DEFINITION_SHAPE('',$,#1177);
#1175=SHAPE_REPRESENTATION('',(#701),#1167);
#1176=PRODUCT_DEFINITION_CONTEXT('part definition',#1181,'design');
#1177=PRODUCT_DEFINITION('Schablone_45deg_Verbinder',
'Schablone_45deg_Verbinder',#1178,#1176);
#1178=PRODUCT_DEFINITION_FORMATION('',$,#1183);
#1179=PRODUCT_RELATED_PRODUCT_CATEGORY('Schablone_45deg_Verbinder',
'Schablone_45deg_Verbinder',(#1183));
#1180=APPLICATION_PROTOCOL_DEFINITION('international standard',
'automotive_design',2009,#1181);
#1181=APPLICATION_CONTEXT(
'Core Data for Automotive Mechanical Design Process');
#1182=PRODUCT_CONTEXT('part definition',#1181,'mechanical');
#1183=PRODUCT('Schablone_45deg_Verbinder','Schablone_45deg_Verbinder',$,
(#1182));
#1184=PRESENTATION_STYLE_ASSIGNMENT((#1185));
#1185=SURFACE_STYLE_USAGE(.BOTH.,#1188);
#1186=SURFACE_STYLE_RENDERING_WITH_PROPERTIES($,#1192,(#1187));
#1187=SURFACE_STYLE_TRANSPARENT(0.);
#1188=SURFACE_SIDE_STYLE('',(#1189,#1186));
#1189=SURFACE_STYLE_FILL_AREA(#1190);
#1190=FILL_AREA_STYLE('',(#1191));
#1191=FILL_AREA_STYLE_COLOUR('',#1192);
#1192=COLOUR_RGB('',0.749019607843137,0.749019607843137,0.749019607843137);
ENDSEC;
END-ISO-10303-21;
