ISO-10303-21;
HEADER;
/* Generated by software containing ST-Developer
 * from STEP Tools, Inc. (www.steptools.com) 
 */

FILE_DESCRIPTION(
/* description */ (''),
/* implementation_level */ '2;1');

FILE_NAME(
/* name */ 'Verbinder_45deg.stp',
/* time_stamp */ '2024-10-14T15:49:17+02:00',
/* author */ ('tallA'),
/* organization */ (''),
/* preprocessor_version */ 'ST-DEVELOPER v20',
/* originating_system */ 'Autodesk Inventor 2025',
/* authorisation */ '');

FILE_SCHEMA (('AUTOMOTIVE_DESIGN { 1 0 10303 214 3 1 1 }'));
ENDSEC;

DATA;
#10=MECHANICAL_DESIGN_GEOMETRIC_PRESENTATION_REPRESENTATION('',(#22,#23,
#24,#25,#26,#27,#28),#730);
#11=GEOMETRICALLY_BOUNDED_WIREFRAME_SHAPE_REPRESENTATION('',(#12),#729);
#12=GEOMETRIC_CURVE_SET('Skizze1',(#16,#17,#18,#19,#20,#21,#726));
#13=SHAPE_REPRESENTATION_RELATIONSHIP('SRR','None',#737,#15);
#14=SHAPE_REPRESENTATION_RELATIONSHIP('SRR','None',#737,#11);
#15=ADVANCED_BREP_SHAPE_REPRESENTATION('',(#29),#729);
#16=POLYLINE('',(#714,#715));
#17=POLYLINE('',(#716,#717));
#18=POLYLINE('',(#718,#719));
#19=POLYLINE('',(#720,#721));
#20=POLYLINE('',(#722,#723));
#21=POLYLINE('',(#724,#725));
#22=STYLED_ITEM('',(#746),#29);
#23=STYLED_ITEM('',(#748),#16);
#24=STYLED_ITEM('',(#748),#17);
#25=STYLED_ITEM('',(#748),#18);
#26=STYLED_ITEM('',(#748),#19);
#27=STYLED_ITEM('',(#748),#20);
#28=STYLED_ITEM('',(#748),#21);
#29=MANIFOLD_SOLID_BREP('Volumenk\X\F6rper1',#416);
#30=FACE_BOUND('',#78,.T.);
#31=FACE_BOUND('',#79,.T.);
#32=FACE_BOUND('',#80,.T.);
#33=FACE_BOUND('',#81,.T.);
#34=FACE_BOUND('',#82,.T.);
#35=FACE_BOUND('',#83,.T.);
#36=FACE_BOUND('',#96,.T.);
#37=FACE_BOUND('',#97,.T.);
#38=FACE_BOUND('',#98,.T.);
#39=FACE_BOUND('',#99,.T.);
#40=FACE_BOUND('',#100,.T.);
#41=FACE_BOUND('',#101,.T.);
#42=PLANE('',#460);
#43=PLANE('',#466);
#44=PLANE('',#471);
#45=PLANE('',#474);
#46=PLANE('',#477);
#47=PLANE('',#480);
#48=PLANE('',#481);
#49=PLANE('',#482);
#50=FACE_OUTER_BOUND('',#70,.T.);
#51=FACE_OUTER_BOUND('',#71,.T.);
#52=FACE_OUTER_BOUND('',#72,.T.);
#53=FACE_OUTER_BOUND('',#73,.T.);
#54=FACE_OUTER_BOUND('',#74,.T.);
#55=FACE_OUTER_BOUND('',#75,.T.);
#56=FACE_OUTER_BOUND('',#76,.T.);
#57=FACE_OUTER_BOUND('',#77,.T.);
#58=FACE_OUTER_BOUND('',#84,.T.);
#59=FACE_OUTER_BOUND('',#85,.T.);
#60=FACE_OUTER_BOUND('',#86,.T.);
#61=FACE_OUTER_BOUND('',#87,.T.);
#62=FACE_OUTER_BOUND('',#88,.T.);
#63=FACE_OUTER_BOUND('',#89,.T.);
#64=FACE_OUTER_BOUND('',#90,.T.);
#65=FACE_OUTER_BOUND('',#91,.T.);
#66=FACE_OUTER_BOUND('',#92,.T.);
#67=FACE_OUTER_BOUND('',#93,.T.);
#68=FACE_OUTER_BOUND('',#94,.T.);
#69=FACE_OUTER_BOUND('',#95,.T.);
#70=EDGE_LOOP('',(#276,#277,#278,#279));
#71=EDGE_LOOP('',(#280,#281,#282,#283));
#72=EDGE_LOOP('',(#284,#285,#286,#287));
#73=EDGE_LOOP('',(#288,#289,#290,#291));
#74=EDGE_LOOP('',(#292,#293,#294,#295));
#75=EDGE_LOOP('',(#296,#297,#298,#299));
#76=EDGE_LOOP('',(#300,#301,#302,#303));
#77=EDGE_LOOP('',(#304,#305,#306,#307,#308,#309,#310,#311,#312,#313,#314,
#315));
#78=EDGE_LOOP('',(#316));
#79=EDGE_LOOP('',(#317));
#80=EDGE_LOOP('',(#318));
#81=EDGE_LOOP('',(#319));
#82=EDGE_LOOP('',(#320));
#83=EDGE_LOOP('',(#321));
#84=EDGE_LOOP('',(#322,#323,#324,#325));
#85=EDGE_LOOP('',(#326,#327,#328,#329));
#86=EDGE_LOOP('',(#330,#331,#332,#333));
#87=EDGE_LOOP('',(#334,#335,#336,#337));
#88=EDGE_LOOP('',(#338,#339,#340,#341));
#89=EDGE_LOOP('',(#342,#343,#344,#345));
#90=EDGE_LOOP('',(#346,#347,#348,#349));
#91=EDGE_LOOP('',(#350,#351,#352,#353));
#92=EDGE_LOOP('',(#354,#355,#356,#357));
#93=EDGE_LOOP('',(#358,#359,#360,#361));
#94=EDGE_LOOP('',(#362,#363,#364,#365));
#95=EDGE_LOOP('',(#366,#367,#368,#369,#370,#371,#372,#373,#374,#375,#376,
#377));
#96=EDGE_LOOP('',(#378));
#97=EDGE_LOOP('',(#379));
#98=EDGE_LOOP('',(#380));
#99=EDGE_LOOP('',(#381));
#100=EDGE_LOOP('',(#382));
#101=EDGE_LOOP('',(#383));
#102=LINE('',#608,#132);
#103=LINE('',#614,#133);
#104=LINE('',#620,#134);
#105=LINE('',#626,#135);
#106=LINE('',#632,#136);
#107=LINE('',#638,#137);
#108=LINE('',#645,#138);
#109=LINE('',#648,#139);
#110=LINE('',#651,#140);
#111=LINE('',#655,#141);
#112=LINE('',#659,#142);
#113=LINE('',#663,#143);
#114=LINE('',#667,#144);
#115=LINE('',#670,#145);
#116=LINE('',#673,#146);
#117=LINE('',#674,#147);
#118=LINE('',#678,#148);
#119=LINE('',#683,#149);
#120=LINE('',#684,#150);
#121=LINE('',#687,#151);
#122=LINE('',#688,#152);
#123=LINE('',#691,#153);
#124=LINE('',#694,#154);
#125=LINE('',#696,#155);
#126=LINE('',#700,#156);
#127=LINE('',#703,#157);
#128=LINE('',#704,#158);
#129=LINE('',#708,#159);
#130=LINE('',#710,#160);
#131=LINE('',#712,#161);
#132=VECTOR('',#489,2.75);
#133=VECTOR('',#496,2.75);
#134=VECTOR('',#503,2.75);
#135=VECTOR('',#510,2.75);
#136=VECTOR('',#517,2.75);
#137=VECTOR('',#524,2.75);
#138=VECTOR('',#531,10.);
#139=VECTOR('',#534,10.);
#140=VECTOR('',#537,10.);
#141=VECTOR('',#540,10.);
#142=VECTOR('',#543,10.);
#143=VECTOR('',#546,10.);
#144=VECTOR('',#549,10.);
#145=VECTOR('',#552,10.);
#146=VECTOR('',#555,10.);
#147=VECTOR('',#556,10.);
#148=VECTOR('',#561,10.);
#149=VECTOR('',#566,10.);
#150=VECTOR('',#567,10.);
#151=VECTOR('',#570,10.);
#152=VECTOR('',#571,10.);
#153=VECTOR('',#574,10.);
#154=VECTOR('',#577,10.);
#155=VECTOR('',#580,10.);
#156=VECTOR('',#585,10.);
#157=VECTOR('',#588,10.);
#158=VECTOR('',#589,10.);
#159=VECTOR('',#594,10.);
#160=VECTOR('',#597,10.);
#161=VECTOR('',#600,10.);
#162=CIRCLE('',#440,2.75);
#163=CIRCLE('',#441,2.75);
#164=CIRCLE('',#443,2.75);
#165=CIRCLE('',#444,2.75);
#166=CIRCLE('',#446,2.75);
#167=CIRCLE('',#447,2.75);
#168=CIRCLE('',#449,2.75);
#169=CIRCLE('',#450,2.75);
#170=CIRCLE('',#452,2.75);
#171=CIRCLE('',#453,2.75);
#172=CIRCLE('',#455,2.75);
#173=CIRCLE('',#456,2.75);
#174=CIRCLE('',#458,5.);
#175=CIRCLE('',#459,5.);
#176=CIRCLE('',#461,5.);
#177=CIRCLE('',#462,5.);
#178=CIRCLE('',#463,5.);
#179=CIRCLE('',#464,5.);
#180=CIRCLE('',#465,5.);
#181=CIRCLE('',#468,5.);
#182=CIRCLE('',#470,5.);
#183=CIRCLE('',#473,5.);
#184=CIRCLE('',#476,5.);
#185=CIRCLE('',#479,5.);
#186=VERTEX_POINT('',#605);
#187=VERTEX_POINT('',#607);
#188=VERTEX_POINT('',#611);
#189=VERTEX_POINT('',#613);
#190=VERTEX_POINT('',#617);
#191=VERTEX_POINT('',#619);
#192=VERTEX_POINT('',#623);
#193=VERTEX_POINT('',#625);
#194=VERTEX_POINT('',#629);
#195=VERTEX_POINT('',#631);
#196=VERTEX_POINT('',#635);
#197=VERTEX_POINT('',#637);
#198=VERTEX_POINT('',#641);
#199=VERTEX_POINT('',#642);
#200=VERTEX_POINT('',#644);
#201=VERTEX_POINT('',#646);
#202=VERTEX_POINT('',#650);
#203=VERTEX_POINT('',#652);
#204=VERTEX_POINT('',#654);
#205=VERTEX_POINT('',#656);
#206=VERTEX_POINT('',#658);
#207=VERTEX_POINT('',#660);
#208=VERTEX_POINT('',#662);
#209=VERTEX_POINT('',#664);
#210=VERTEX_POINT('',#666);
#211=VERTEX_POINT('',#668);
#212=VERTEX_POINT('',#672);
#213=VERTEX_POINT('',#676);
#214=VERTEX_POINT('',#680);
#215=VERTEX_POINT('',#681);
#216=VERTEX_POINT('',#686);
#217=VERTEX_POINT('',#690);
#218=VERTEX_POINT('',#692);
#219=VERTEX_POINT('',#698);
#220=VERTEX_POINT('',#702);
#221=VERTEX_POINT('',#706);
#222=EDGE_CURVE('',#186,#186,#162,.T.);
#223=EDGE_CURVE('',#186,#187,#102,.T.);
#224=EDGE_CURVE('',#187,#187,#163,.T.);
#225=EDGE_CURVE('',#188,#188,#164,.T.);
#226=EDGE_CURVE('',#188,#189,#103,.T.);
#227=EDGE_CURVE('',#189,#189,#165,.T.);
#228=EDGE_CURVE('',#190,#190,#166,.T.);
#229=EDGE_CURVE('',#190,#191,#104,.T.);
#230=EDGE_CURVE('',#191,#191,#167,.T.);
#231=EDGE_CURVE('',#192,#192,#168,.T.);
#232=EDGE_CURVE('',#192,#193,#105,.T.);
#233=EDGE_CURVE('',#193,#193,#169,.T.);
#234=EDGE_CURVE('',#194,#194,#170,.T.);
#235=EDGE_CURVE('',#194,#195,#106,.T.);
#236=EDGE_CURVE('',#195,#195,#171,.T.);
#237=EDGE_CURVE('',#196,#196,#172,.T.);
#238=EDGE_CURVE('',#196,#197,#107,.T.);
#239=EDGE_CURVE('',#197,#197,#173,.T.);
#240=EDGE_CURVE('',#198,#199,#174,.T.);
#241=EDGE_CURVE('',#199,#200,#108,.T.);
#242=EDGE_CURVE('',#200,#201,#175,.T.);
#243=EDGE_CURVE('',#201,#198,#109,.T.);
#244=EDGE_CURVE('',#202,#200,#110,.T.);
#245=EDGE_CURVE('',#203,#202,#176,.T.);
#246=EDGE_CURVE('',#204,#203,#111,.T.);
#247=EDGE_CURVE('',#205,#204,#177,.T.);
#248=EDGE_CURVE('',#206,#205,#112,.T.);
#249=EDGE_CURVE('',#207,#206,#178,.T.);
#250=EDGE_CURVE('',#208,#207,#113,.T.);
#251=EDGE_CURVE('',#209,#208,#179,.T.);
#252=EDGE_CURVE('',#210,#209,#114,.T.);
#253=EDGE_CURVE('',#211,#210,#180,.T.);
#254=EDGE_CURVE('',#201,#211,#115,.T.);
#255=EDGE_CURVE('',#212,#199,#116,.T.);
#256=EDGE_CURVE('',#202,#212,#117,.T.);
#257=EDGE_CURVE('',#212,#213,#181,.T.);
#258=EDGE_CURVE('',#213,#203,#118,.T.);
#259=EDGE_CURVE('',#214,#215,#182,.T.);
#260=EDGE_CURVE('',#215,#211,#119,.T.);
#261=EDGE_CURVE('',#210,#214,#120,.T.);
#262=EDGE_CURVE('',#216,#209,#121,.T.);
#263=EDGE_CURVE('',#214,#216,#122,.T.);
#264=EDGE_CURVE('',#204,#217,#123,.T.);
#265=EDGE_CURVE('',#217,#218,#183,.T.);
#266=EDGE_CURVE('',#218,#205,#124,.T.);
#267=EDGE_CURVE('',#217,#213,#125,.T.);
#268=EDGE_CURVE('',#219,#216,#184,.T.);
#269=EDGE_CURVE('',#208,#219,#126,.T.);
#270=EDGE_CURVE('',#220,#207,#127,.T.);
#271=EDGE_CURVE('',#219,#220,#128,.T.);
#272=EDGE_CURVE('',#221,#220,#185,.T.);
#273=EDGE_CURVE('',#206,#221,#129,.T.);
#274=EDGE_CURVE('',#198,#215,#130,.T.);
#275=EDGE_CURVE('',#221,#218,#131,.T.);
#276=ORIENTED_EDGE('',*,*,#222,.F.);
#277=ORIENTED_EDGE('',*,*,#223,.T.);
#278=ORIENTED_EDGE('',*,*,#224,.F.);
#279=ORIENTED_EDGE('',*,*,#223,.F.);
#280=ORIENTED_EDGE('',*,*,#225,.F.);
#281=ORIENTED_EDGE('',*,*,#226,.T.);
#282=ORIENTED_EDGE('',*,*,#227,.F.);
#283=ORIENTED_EDGE('',*,*,#226,.F.);
#284=ORIENTED_EDGE('',*,*,#228,.F.);
#285=ORIENTED_EDGE('',*,*,#229,.T.);
#286=ORIENTED_EDGE('',*,*,#230,.F.);
#287=ORIENTED_EDGE('',*,*,#229,.F.);
#288=ORIENTED_EDGE('',*,*,#231,.F.);
#289=ORIENTED_EDGE('',*,*,#232,.T.);
#290=ORIENTED_EDGE('',*,*,#233,.F.);
#291=ORIENTED_EDGE('',*,*,#232,.F.);
#292=ORIENTED_EDGE('',*,*,#234,.F.);
#293=ORIENTED_EDGE('',*,*,#235,.T.);
#294=ORIENTED_EDGE('',*,*,#236,.F.);
#295=ORIENTED_EDGE('',*,*,#235,.F.);
#296=ORIENTED_EDGE('',*,*,#237,.F.);
#297=ORIENTED_EDGE('',*,*,#238,.T.);
#298=ORIENTED_EDGE('',*,*,#239,.F.);
#299=ORIENTED_EDGE('',*,*,#238,.F.);
#300=ORIENTED_EDGE('',*,*,#240,.T.);
#301=ORIENTED_EDGE('',*,*,#241,.T.);
#302=ORIENTED_EDGE('',*,*,#242,.T.);
#303=ORIENTED_EDGE('',*,*,#243,.T.);
#304=ORIENTED_EDGE('',*,*,#242,.F.);
#305=ORIENTED_EDGE('',*,*,#244,.F.);
#306=ORIENTED_EDGE('',*,*,#245,.F.);
#307=ORIENTED_EDGE('',*,*,#246,.F.);
#308=ORIENTED_EDGE('',*,*,#247,.F.);
#309=ORIENTED_EDGE('',*,*,#248,.F.);
#310=ORIENTED_EDGE('',*,*,#249,.F.);
#311=ORIENTED_EDGE('',*,*,#250,.F.);
#312=ORIENTED_EDGE('',*,*,#251,.F.);
#313=ORIENTED_EDGE('',*,*,#252,.F.);
#314=ORIENTED_EDGE('',*,*,#253,.F.);
#315=ORIENTED_EDGE('',*,*,#254,.F.);
#316=ORIENTED_EDGE('',*,*,#222,.T.);
#317=ORIENTED_EDGE('',*,*,#225,.T.);
#318=ORIENTED_EDGE('',*,*,#228,.T.);
#319=ORIENTED_EDGE('',*,*,#231,.T.);
#320=ORIENTED_EDGE('',*,*,#234,.T.);
#321=ORIENTED_EDGE('',*,*,#237,.T.);
#322=ORIENTED_EDGE('',*,*,#241,.F.);
#323=ORIENTED_EDGE('',*,*,#255,.F.);
#324=ORIENTED_EDGE('',*,*,#256,.F.);
#325=ORIENTED_EDGE('',*,*,#244,.T.);
#326=ORIENTED_EDGE('',*,*,#257,.T.);
#327=ORIENTED_EDGE('',*,*,#258,.T.);
#328=ORIENTED_EDGE('',*,*,#245,.T.);
#329=ORIENTED_EDGE('',*,*,#256,.T.);
#330=ORIENTED_EDGE('',*,*,#259,.T.);
#331=ORIENTED_EDGE('',*,*,#260,.T.);
#332=ORIENTED_EDGE('',*,*,#253,.T.);
#333=ORIENTED_EDGE('',*,*,#261,.T.);
#334=ORIENTED_EDGE('',*,*,#261,.F.);
#335=ORIENTED_EDGE('',*,*,#252,.T.);
#336=ORIENTED_EDGE('',*,*,#262,.F.);
#337=ORIENTED_EDGE('',*,*,#263,.F.);
#338=ORIENTED_EDGE('',*,*,#247,.T.);
#339=ORIENTED_EDGE('',*,*,#264,.T.);
#340=ORIENTED_EDGE('',*,*,#265,.T.);
#341=ORIENTED_EDGE('',*,*,#266,.T.);
#342=ORIENTED_EDGE('',*,*,#258,.F.);
#343=ORIENTED_EDGE('',*,*,#267,.F.);
#344=ORIENTED_EDGE('',*,*,#264,.F.);
#345=ORIENTED_EDGE('',*,*,#246,.T.);
#346=ORIENTED_EDGE('',*,*,#268,.T.);
#347=ORIENTED_EDGE('',*,*,#262,.T.);
#348=ORIENTED_EDGE('',*,*,#251,.T.);
#349=ORIENTED_EDGE('',*,*,#269,.T.);
#350=ORIENTED_EDGE('',*,*,#269,.F.);
#351=ORIENTED_EDGE('',*,*,#250,.T.);
#352=ORIENTED_EDGE('',*,*,#270,.F.);
#353=ORIENTED_EDGE('',*,*,#271,.F.);
#354=ORIENTED_EDGE('',*,*,#272,.T.);
#355=ORIENTED_EDGE('',*,*,#270,.T.);
#356=ORIENTED_EDGE('',*,*,#249,.T.);
#357=ORIENTED_EDGE('',*,*,#273,.T.);
#358=ORIENTED_EDGE('',*,*,#243,.F.);
#359=ORIENTED_EDGE('',*,*,#254,.T.);
#360=ORIENTED_EDGE('',*,*,#260,.F.);
#361=ORIENTED_EDGE('',*,*,#274,.F.);
#362=ORIENTED_EDGE('',*,*,#266,.F.);
#363=ORIENTED_EDGE('',*,*,#275,.F.);
#364=ORIENTED_EDGE('',*,*,#273,.F.);
#365=ORIENTED_EDGE('',*,*,#248,.T.);
#366=ORIENTED_EDGE('',*,*,#240,.F.);
#367=ORIENTED_EDGE('',*,*,#274,.T.);
#368=ORIENTED_EDGE('',*,*,#259,.F.);
#369=ORIENTED_EDGE('',*,*,#263,.T.);
#370=ORIENTED_EDGE('',*,*,#268,.F.);
#371=ORIENTED_EDGE('',*,*,#271,.T.);
#372=ORIENTED_EDGE('',*,*,#272,.F.);
#373=ORIENTED_EDGE('',*,*,#275,.T.);
#374=ORIENTED_EDGE('',*,*,#265,.F.);
#375=ORIENTED_EDGE('',*,*,#267,.T.);
#376=ORIENTED_EDGE('',*,*,#257,.F.);
#377=ORIENTED_EDGE('',*,*,#255,.T.);
#378=ORIENTED_EDGE('',*,*,#224,.T.);
#379=ORIENTED_EDGE('',*,*,#227,.T.);
#380=ORIENTED_EDGE('',*,*,#230,.T.);
#381=ORIENTED_EDGE('',*,*,#233,.T.);
#382=ORIENTED_EDGE('',*,*,#236,.T.);
#383=ORIENTED_EDGE('',*,*,#239,.T.);
#384=CYLINDRICAL_SURFACE('',#439,2.75);
#385=CYLINDRICAL_SURFACE('',#442,2.75);
#386=CYLINDRICAL_SURFACE('',#445,2.75);
#387=CYLINDRICAL_SURFACE('',#448,2.75);
#388=CYLINDRICAL_SURFACE('',#451,2.75);
#389=CYLINDRICAL_SURFACE('',#454,2.75);
#390=CYLINDRICAL_SURFACE('',#457,5.);
#391=CYLINDRICAL_SURFACE('',#467,5.);
#392=CYLINDRICAL_SURFACE('',#469,5.);
#393=CYLINDRICAL_SURFACE('',#472,5.);
#394=CYLINDRICAL_SURFACE('',#475,5.);
#395=CYLINDRICAL_SURFACE('',#478,5.);
#396=ADVANCED_FACE('',(#50),#384,.F.);
#397=ADVANCED_FACE('',(#51),#385,.F.);
#398=ADVANCED_FACE('',(#52),#386,.F.);
#399=ADVANCED_FACE('',(#53),#387,.F.);
#400=ADVANCED_FACE('',(#54),#388,.F.);
#401=ADVANCED_FACE('',(#55),#389,.F.);
#402=ADVANCED_FACE('',(#56),#390,.T.);
#403=ADVANCED_FACE('',(#57,#30,#31,#32,#33,#34,#35),#42,.F.);
#404=ADVANCED_FACE('',(#58),#43,.T.);
#405=ADVANCED_FACE('',(#59),#391,.T.);
#406=ADVANCED_FACE('',(#60),#392,.T.);
#407=ADVANCED_FACE('',(#61),#44,.T.);
#408=ADVANCED_FACE('',(#62),#393,.F.);
#409=ADVANCED_FACE('',(#63),#45,.T.);
#410=ADVANCED_FACE('',(#64),#394,.T.);
#411=ADVANCED_FACE('',(#65),#46,.T.);
#412=ADVANCED_FACE('',(#66),#395,.T.);
#413=ADVANCED_FACE('',(#67),#47,.T.);
#414=ADVANCED_FACE('',(#68),#48,.T.);
#415=ADVANCED_FACE('',(#69,#36,#37,#38,#39,#40,#41),#49,.T.);
#416=CLOSED_SHELL('',(#396,#397,#398,#399,#400,#401,#402,#403,#404,#405,
#406,#407,#408,#409,#410,#411,#412,#413,#414,#415));
#417=DERIVED_UNIT_ELEMENT(#420,1.);
#418=DERIVED_UNIT_ELEMENT(#732,-3.);
#419=DIMENSIONAL_EXPONENTS(0.,1.,0.,0.,0.,0.,0.);
#420=(
CONVERSION_BASED_UNIT('gram',#422)
MASS_UNIT()
NAMED_UNIT(#419)
);
#421=(
MASS_UNIT()
NAMED_UNIT(*)
SI_UNIT(.KILO.,.GRAM.)
);
#422=MASS_MEASURE_WITH_UNIT(MASS_MEASURE(0.001),#421);
#423=DERIVED_UNIT((#417,#418));
#424=MEASURE_REPRESENTATION_ITEM('density measure',
POSITIVE_RATIO_MEASURE(1.),#423);
#425=PROPERTY_DEFINITION_REPRESENTATION(#430,#427);
#426=PROPERTY_DEFINITION_REPRESENTATION(#431,#428);
#427=REPRESENTATION('material name',(#429),#729);
#428=REPRESENTATION('density',(#424),#729);
#429=DESCRIPTIVE_REPRESENTATION_ITEM('Generisch','Generisch');
#430=PROPERTY_DEFINITION('material property','material name',#739);
#431=PROPERTY_DEFINITION('material property','density of part',#739);
#432=DATE_TIME_ROLE('creation_date');
#433=APPLIED_DATE_AND_TIME_ASSIGNMENT(#434,#432,(#739));
#434=DATE_AND_TIME(#435,#436);
#435=CALENDAR_DATE(2024,14,10);
#436=LOCAL_TIME(0,0,0.,#437);
#437=COORDINATED_UNIVERSAL_TIME_OFFSET(0,0,.BEHIND.);
#438=AXIS2_PLACEMENT_3D('',#603,#483,#484);
#439=AXIS2_PLACEMENT_3D('',#604,#485,#486);
#440=AXIS2_PLACEMENT_3D('',#606,#487,#488);
#441=AXIS2_PLACEMENT_3D('',#609,#490,#491);
#442=AXIS2_PLACEMENT_3D('',#610,#492,#493);
#443=AXIS2_PLACEMENT_3D('',#612,#494,#495);
#444=AXIS2_PLACEMENT_3D('',#615,#497,#498);
#445=AXIS2_PLACEMENT_3D('',#616,#499,#500);
#446=AXIS2_PLACEMENT_3D('',#618,#501,#502);
#447=AXIS2_PLACEMENT_3D('',#621,#504,#505);
#448=AXIS2_PLACEMENT_3D('',#622,#506,#507);
#449=AXIS2_PLACEMENT_3D('',#624,#508,#509);
#450=AXIS2_PLACEMENT_3D('',#627,#511,#512);
#451=AXIS2_PLACEMENT_3D('',#628,#513,#514);
#452=AXIS2_PLACEMENT_3D('',#630,#515,#516);
#453=AXIS2_PLACEMENT_3D('',#633,#518,#519);
#454=AXIS2_PLACEMENT_3D('',#634,#520,#521);
#455=AXIS2_PLACEMENT_3D('',#636,#522,#523);
#456=AXIS2_PLACEMENT_3D('',#639,#525,#526);
#457=AXIS2_PLACEMENT_3D('',#640,#527,#528);
#458=AXIS2_PLACEMENT_3D('',#643,#529,#530);
#459=AXIS2_PLACEMENT_3D('',#647,#532,#533);
#460=AXIS2_PLACEMENT_3D('',#649,#535,#536);
#461=AXIS2_PLACEMENT_3D('',#653,#538,#539);
#462=AXIS2_PLACEMENT_3D('',#657,#541,#542);
#463=AXIS2_PLACEMENT_3D('',#661,#544,#545);
#464=AXIS2_PLACEMENT_3D('',#665,#547,#548);
#465=AXIS2_PLACEMENT_3D('',#669,#550,#551);
#466=AXIS2_PLACEMENT_3D('',#671,#553,#554);
#467=AXIS2_PLACEMENT_3D('',#675,#557,#558);
#468=AXIS2_PLACEMENT_3D('',#677,#559,#560);
#469=AXIS2_PLACEMENT_3D('',#679,#562,#563);
#470=AXIS2_PLACEMENT_3D('',#682,#564,#565);
#471=AXIS2_PLACEMENT_3D('',#685,#568,#569);
#472=AXIS2_PLACEMENT_3D('',#689,#572,#573);
#473=AXIS2_PLACEMENT_3D('',#693,#575,#576);
#474=AXIS2_PLACEMENT_3D('',#695,#578,#579);
#475=AXIS2_PLACEMENT_3D('',#697,#581,#582);
#476=AXIS2_PLACEMENT_3D('',#699,#583,#584);
#477=AXIS2_PLACEMENT_3D('',#701,#586,#587);
#478=AXIS2_PLACEMENT_3D('',#705,#590,#591);
#479=AXIS2_PLACEMENT_3D('',#707,#592,#593);
#480=AXIS2_PLACEMENT_3D('',#709,#595,#596);
#481=AXIS2_PLACEMENT_3D('',#711,#598,#599);
#482=AXIS2_PLACEMENT_3D('',#713,#601,#602);
#483=DIRECTION('axis',(0.,0.,1.));
#484=DIRECTION('refdir',(1.,0.,0.));
#485=DIRECTION('center_axis',(0.,1.,0.));
#486=DIRECTION('ref_axis',(-1.,0.,0.));
#487=DIRECTION('center_axis',(0.,1.,0.));
#488=DIRECTION('ref_axis',(-1.,0.,0.));
#489=DIRECTION('',(0.,1.,0.));
#490=DIRECTION('center_axis',(0.,-1.,0.));
#491=DIRECTION('ref_axis',(-1.,0.,0.));
#492=DIRECTION('center_axis',(0.,1.,0.));
#493=DIRECTION('ref_axis',(-1.,0.,0.));
#494=DIRECTION('center_axis',(0.,1.,0.));
#495=DIRECTION('ref_axis',(-1.,0.,0.));
#496=DIRECTION('',(0.,1.,0.));
#497=DIRECTION('center_axis',(0.,-1.,0.));
#498=DIRECTION('ref_axis',(-1.,0.,0.));
#499=DIRECTION('center_axis',(0.,1.,0.));
#500=DIRECTION('ref_axis',(-1.,0.,0.));
#501=DIRECTION('center_axis',(0.,1.,0.));
#502=DIRECTION('ref_axis',(-1.,0.,0.));
#503=DIRECTION('',(0.,1.,0.));
#504=DIRECTION('center_axis',(0.,-1.,0.));
#505=DIRECTION('ref_axis',(-1.,0.,0.));
#506=DIRECTION('center_axis',(0.,1.,0.));
#507=DIRECTION('ref_axis',(-1.,0.,0.));
#508=DIRECTION('center_axis',(0.,1.,0.));
#509=DIRECTION('ref_axis',(-1.,0.,0.));
#510=DIRECTION('',(0.,1.,0.));
#511=DIRECTION('center_axis',(0.,-1.,0.));
#512=DIRECTION('ref_axis',(-1.,0.,0.));
#513=DIRECTION('center_axis',(0.,1.,0.));
#514=DIRECTION('ref_axis',(-1.,0.,0.));
#515=DIRECTION('center_axis',(0.,1.,0.));
#516=DIRECTION('ref_axis',(-1.,0.,0.));
#517=DIRECTION('',(0.,1.,0.));
#518=DIRECTION('center_axis',(0.,-1.,0.));
#519=DIRECTION('ref_axis',(-1.,0.,0.));
#520=DIRECTION('center_axis',(0.,1.,0.));
#521=DIRECTION('ref_axis',(-1.,0.,0.));
#522=DIRECTION('center_axis',(0.,1.,0.));
#523=DIRECTION('ref_axis',(-1.,0.,0.));
#524=DIRECTION('',(0.,1.,0.));
#525=DIRECTION('center_axis',(0.,-1.,0.));
#526=DIRECTION('ref_axis',(-1.,0.,0.));
#527=DIRECTION('center_axis',(0.,1.,0.));
#528=DIRECTION('ref_axis',(0.707106781186547,0.,-0.707106781186547));
#529=DIRECTION('center_axis',(0.,-1.,0.));
#530=DIRECTION('ref_axis',(0.707106781186547,0.,-0.707106781186547));
#531=DIRECTION('',(0.,-1.,0.));
#532=DIRECTION('center_axis',(0.,1.,0.));
#533=DIRECTION('ref_axis',(0.707106781186547,0.,-0.707106781186547));
#534=DIRECTION('',(0.,1.,0.));
#535=DIRECTION('center_axis',(0.,1.,0.));
#536=DIRECTION('ref_axis',(0.,0.,1.));
#537=DIRECTION('',(0.,0.,-1.));
#538=DIRECTION('center_axis',(0.,1.,0.));
#539=DIRECTION('ref_axis',(0.707106781186547,0.,0.707106781186548));
#540=DIRECTION('',(1.,0.,-1.11022302462516E-16));
#541=DIRECTION('center_axis',(0.,-1.,0.));
#542=DIRECTION('ref_axis',(-0.38268343236509,0.,-0.923879532511286));
#543=DIRECTION('',(0.707106781186548,0.,-0.707106781186548));
#544=DIRECTION('center_axis',(0.,1.,0.));
#545=DIRECTION('ref_axis',(-1.25607396694702E-15,0.,1.));
#546=DIRECTION('',(0.707106781186547,0.,0.707106781186548));
#547=DIRECTION('center_axis',(0.,1.,0.));
#548=DIRECTION('ref_axis',(-1.,0.,0.));
#549=DIRECTION('',(-0.707106781186547,0.,0.707106781186548));
#550=DIRECTION('center_axis',(0.,1.,0.));
#551=DIRECTION('ref_axis',(-0.38268343236509,0.,-0.923879532511287));
#552=DIRECTION('',(-1.,0.,-2.88815012157845E-32));
#553=DIRECTION('center_axis',(1.,0.,0.));
#554=DIRECTION('ref_axis',(0.,0.,-1.));
#555=DIRECTION('',(0.,0.,-1.));
#556=DIRECTION('',(0.,1.,0.));
#557=DIRECTION('center_axis',(0.,1.,0.));
#558=DIRECTION('ref_axis',(0.707106781186547,0.,0.707106781186548));
#559=DIRECTION('center_axis',(0.,-1.,0.));
#560=DIRECTION('ref_axis',(0.707106781186547,0.,0.707106781186548));
#561=DIRECTION('',(0.,-1.,0.));
#562=DIRECTION('center_axis',(0.,1.,0.));
#563=DIRECTION('ref_axis',(-0.38268343236509,0.,-0.923879532511287));
#564=DIRECTION('center_axis',(0.,-1.,0.));
#565=DIRECTION('ref_axis',(-0.38268343236509,0.,-0.923879532511287));
#566=DIRECTION('',(0.,-1.,0.));
#567=DIRECTION('',(0.,1.,0.));
#568=DIRECTION('center_axis',(-0.707106781186548,0.,-0.707106781186547));
#569=DIRECTION('ref_axis',(-0.707106781186547,0.,0.707106781186548));
#570=DIRECTION('',(0.,-1.,0.));
#571=DIRECTION('',(-0.707106781186547,0.,0.707106781186548));
#572=DIRECTION('center_axis',(0.,1.,0.));
#573=DIRECTION('ref_axis',(-0.38268343236509,0.,-0.923879532511286));
#574=DIRECTION('',(0.,1.,0.));
#575=DIRECTION('center_axis',(0.,1.,0.));
#576=DIRECTION('ref_axis',(-0.38268343236509,0.,-0.923879532511286));
#577=DIRECTION('',(0.,-1.,0.));
#578=DIRECTION('center_axis',(1.11022302462516E-16,0.,1.));
#579=DIRECTION('ref_axis',(1.,0.,-1.11022302462516E-16));
#580=DIRECTION('',(1.,0.,-1.11022302462516E-16));
#581=DIRECTION('center_axis',(0.,1.,0.));
#582=DIRECTION('ref_axis',(-1.,0.,0.));
#583=DIRECTION('center_axis',(0.,-1.,0.));
#584=DIRECTION('ref_axis',(-1.,0.,0.));
#585=DIRECTION('',(0.,1.,0.));
#586=DIRECTION('center_axis',(-0.707106781186548,0.,0.707106781186547));
#587=DIRECTION('ref_axis',(0.707106781186547,0.,0.707106781186548));
#588=DIRECTION('',(0.,-1.,0.));
#589=DIRECTION('',(0.707106781186547,0.,0.707106781186548));
#590=DIRECTION('center_axis',(0.,1.,0.));
#591=DIRECTION('ref_axis',(-1.25607396694702E-15,0.,1.));
#592=DIRECTION('center_axis',(0.,-1.,0.));
#593=DIRECTION('ref_axis',(-1.25607396694702E-15,0.,1.));
#594=DIRECTION('',(0.,1.,0.));
#595=DIRECTION('center_axis',(2.88815012157845E-32,0.,-1.));
#596=DIRECTION('ref_axis',(-1.,0.,-2.88815012157845E-32));
#597=DIRECTION('',(-1.,0.,-2.88815012157845E-32));
#598=DIRECTION('center_axis',(0.707106781186548,0.,0.707106781186548));
#599=DIRECTION('ref_axis',(0.707106781186548,0.,-0.707106781186548));
#600=DIRECTION('',(0.707106781186548,0.,-0.707106781186548));
#601=DIRECTION('center_axis',(0.,1.,0.));
#602=DIRECTION('ref_axis',(0.,0.,1.));
#603=CARTESIAN_POINT('',(0.,0.,0.));
#604=CARTESIAN_POINT('Origin',(-20.,129.465974919142,34.142135623731));
#605=CARTESIAN_POINT('',(-17.25,0.,34.142135623731));
#606=CARTESIAN_POINT('Origin',(-20.,0.,34.142135623731));
#607=CARTESIAN_POINT('',(-17.25,3.00000000000001,34.142135623731));
#608=CARTESIAN_POINT('',(-17.25,129.465974919142,34.142135623731));
#609=CARTESIAN_POINT('Origin',(-20.,3.00000000000001,34.142135623731));
#610=CARTESIAN_POINT('Origin',(-34.1421356237309,129.465974919142,48.2842712474619));
#611=CARTESIAN_POINT('',(-31.3921356237309,0.,48.2842712474619));
#612=CARTESIAN_POINT('Origin',(-34.1421356237309,0.,48.2842712474619));
#613=CARTESIAN_POINT('',(-31.3921356237309,3.00000000000001,48.2842712474619));
#614=CARTESIAN_POINT('',(-31.3921356237309,129.465974919142,48.2842712474619));
#615=CARTESIAN_POINT('Origin',(-34.1421356237309,3.00000000000001,48.2842712474619));
#616=CARTESIAN_POINT('Origin',(-5.85786437626903,129.465974919142,20.));
#617=CARTESIAN_POINT('',(-3.10786437626903,0.,20.));
#618=CARTESIAN_POINT('Origin',(-5.85786437626903,0.,20.));
#619=CARTESIAN_POINT('',(-3.10786437626903,3.00000000000001,20.));
#620=CARTESIAN_POINT('',(-3.10786437626903,129.465974919142,20.));
#621=CARTESIAN_POINT('Origin',(-5.85786437626903,3.00000000000001,20.));
#622=CARTESIAN_POINT('Origin',(18.2842712474619,129.465974919142,10.));
#623=CARTESIAN_POINT('',(21.0342712474619,0.,10.));
#624=CARTESIAN_POINT('Origin',(18.2842712474619,0.,10.));
#625=CARTESIAN_POINT('',(21.0342712474619,3.00000000000001,10.));
#626=CARTESIAN_POINT('',(21.0342712474619,129.465974919142,10.));
#627=CARTESIAN_POINT('Origin',(18.2842712474619,3.00000000000001,10.));
#628=CARTESIAN_POINT('Origin',(38.2842712474619,129.465974919142,10.));
#629=CARTESIAN_POINT('',(41.0342712474619,0.,10.));
#630=CARTESIAN_POINT('Origin',(38.2842712474619,0.,10.));
#631=CARTESIAN_POINT('',(41.0342712474619,3.00000000000001,10.));
#632=CARTESIAN_POINT('',(41.0342712474619,129.465974919142,10.));
#633=CARTESIAN_POINT('Origin',(38.2842712474619,3.00000000000001,10.));
#634=CARTESIAN_POINT('Origin',(58.2842712474619,129.465974919142,10.));
#635=CARTESIAN_POINT('',(61.0342712474619,0.,10.));
#636=CARTESIAN_POINT('Origin',(58.2842712474619,0.,10.));
#637=CARTESIAN_POINT('',(61.0342712474619,3.00000000000001,10.));
#638=CARTESIAN_POINT('',(61.0342712474619,129.465974919142,10.));
#639=CARTESIAN_POINT('Origin',(58.2842712474619,3.00000000000001,10.));
#640=CARTESIAN_POINT('Origin',(63.2842712474619,0.,5.));
#641=CARTESIAN_POINT('',(63.2842712474619,3.,1.82774475697361E-30));
#642=CARTESIAN_POINT('',(68.2842712474619,3.,5.));
#643=CARTESIAN_POINT('Origin',(63.2842712474619,3.,5.));
#644=CARTESIAN_POINT('',(68.2842712474619,0.,5.));
#645=CARTESIAN_POINT('',(68.2842712474619,0.,5.));
#646=CARTESIAN_POINT('',(63.2842712474619,0.,1.82774475697361E-30));
#647=CARTESIAN_POINT('Origin',(63.2842712474619,0.,5.));
#648=CARTESIAN_POINT('',(63.2842712474619,0.,0.));
#649=CARTESIAN_POINT('Origin',(10.,0.,31.2132034355964));
#650=CARTESIAN_POINT('',(68.2842712474619,0.,15.));
#651=CARTESIAN_POINT('',(68.2842712474619,0.,20.));
#652=CARTESIAN_POINT('',(63.2842712474619,0.,20.));
#653=CARTESIAN_POINT('Origin',(63.2842712474619,0.,15.));
#654=CARTESIAN_POINT('',(10.3553390593274,0.,20.));
#655=CARTESIAN_POINT('',(8.28427124746191,0.,20.));
#656=CARTESIAN_POINT('',(6.81980515339466,0.,21.4644660940673));
#657=CARTESIAN_POINT('Origin',(10.3553390593274,0.,25.));
#658=CARTESIAN_POINT('',(-30.6066017177982,0.,58.8908729652601));
#659=CARTESIAN_POINT('',(-34.142135623731,0.,62.4264068711929));
#660=CARTESIAN_POINT('',(-37.6776695296637,0.,58.8908729652601));
#661=CARTESIAN_POINT('Origin',(-34.1421356237309,0.,55.3553390593274));
#662=CARTESIAN_POINT('',(-44.7487373415292,0.,51.8198051533947));
#663=CARTESIAN_POINT('',(-48.2842712474619,0.,48.2842712474619));
#664=CARTESIAN_POINT('',(-44.7487373415292,0.,44.7487373415292));
#665=CARTESIAN_POINT('Origin',(-41.2132034355964,0.,48.2842712474619));
#666=CARTESIAN_POINT('',(-1.46446609406726,0.,1.46446609406726));
#667=CARTESIAN_POINT('',(0.,0.,0.));
#668=CARTESIAN_POINT('',(2.07106781186548,0.,5.9815547526365E-32));
#669=CARTESIAN_POINT('Origin',(2.07106781186548,0.,5.));
#670=CARTESIAN_POINT('',(68.2842712474619,0.,1.97215226305253E-30));
#671=CARTESIAN_POINT('Origin',(68.2842712474619,0.,20.));
#672=CARTESIAN_POINT('',(68.2842712474619,3.,15.));
#673=CARTESIAN_POINT('',(68.2842712474619,3.,20.));
#674=CARTESIAN_POINT('',(68.2842712474619,0.,15.));
#675=CARTESIAN_POINT('Origin',(63.2842712474619,0.,15.));
#676=CARTESIAN_POINT('',(63.2842712474619,3.,20.));
#677=CARTESIAN_POINT('Origin',(63.2842712474619,3.,15.));
#678=CARTESIAN_POINT('',(63.2842712474619,0.,20.));
#679=CARTESIAN_POINT('Origin',(2.07106781186548,0.,5.));
#680=CARTESIAN_POINT('',(-1.46446609406726,3.,1.46446609406726));
#681=CARTESIAN_POINT('',(2.07106781186548,3.,5.9815547526365E-32));
#682=CARTESIAN_POINT('Origin',(2.07106781186548,3.,5.));
#683=CARTESIAN_POINT('',(2.07106781186548,0.,0.));
#684=CARTESIAN_POINT('',(-1.46446609406726,0.,1.46446609406726));
#685=CARTESIAN_POINT('Origin',(0.,0.,0.));
#686=CARTESIAN_POINT('',(-44.7487373415292,3.,44.7487373415292));
#687=CARTESIAN_POINT('',(-44.7487373415292,0.,44.7487373415292));
#688=CARTESIAN_POINT('',(0.,3.,0.));
#689=CARTESIAN_POINT('Origin',(10.3553390593274,0.,25.));
#690=CARTESIAN_POINT('',(10.3553390593274,3.,20.));
#691=CARTESIAN_POINT('',(10.3553390593274,0.,20.));
#692=CARTESIAN_POINT('',(6.81980515339466,3.,21.4644660940673));
#693=CARTESIAN_POINT('Origin',(10.3553390593274,3.,25.));
#694=CARTESIAN_POINT('',(6.81980515339466,0.,21.4644660940673));
#695=CARTESIAN_POINT('Origin',(8.28427124746191,0.,20.));
#696=CARTESIAN_POINT('',(8.28427124746191,3.,20.));
#697=CARTESIAN_POINT('Origin',(-41.2132034355964,0.,48.2842712474619));
#698=CARTESIAN_POINT('',(-44.7487373415292,3.,51.8198051533947));
#699=CARTESIAN_POINT('Origin',(-41.2132034355964,3.,48.2842712474619));
#700=CARTESIAN_POINT('',(-44.7487373415292,0.,51.8198051533947));
#701=CARTESIAN_POINT('Origin',(-48.2842712474619,0.,48.2842712474619));
#702=CARTESIAN_POINT('',(-37.6776695296637,3.,58.8908729652601));
#703=CARTESIAN_POINT('',(-37.6776695296637,0.,58.8908729652601));
#704=CARTESIAN_POINT('',(-48.2842712474619,3.,48.2842712474619));
#705=CARTESIAN_POINT('Origin',(-34.1421356237309,0.,55.3553390593274));
#706=CARTESIAN_POINT('',(-30.6066017177982,3.,58.8908729652601));
#707=CARTESIAN_POINT('Origin',(-34.1421356237309,3.,55.3553390593274));
#708=CARTESIAN_POINT('',(-30.6066017177982,0.,58.8908729652601));
#709=CARTESIAN_POINT('Origin',(68.2842712474619,0.,1.97215226305253E-30));
#710=CARTESIAN_POINT('',(68.2842712474619,3.,1.97215226305253E-30));
#711=CARTESIAN_POINT('Origin',(-34.142135623731,0.,62.4264068711929));
#712=CARTESIAN_POINT('',(-34.142135623731,3.,62.4264068711929));
#713=CARTESIAN_POINT('Origin',(10.,3.,31.2132034355964));
#714=CARTESIAN_POINT('polyline point',(68.2842712474619,0.,1.97215226305253E-30));
#715=CARTESIAN_POINT('polyline point',(0.,0.,0.));
#716=CARTESIAN_POINT('polyline point',(0.,0.,0.));
#717=CARTESIAN_POINT('polyline point',(-48.2842712474619,0.,48.2842712474619));
#718=CARTESIAN_POINT('polyline point',(-48.2842712474619,0.,48.2842712474619));
#719=CARTESIAN_POINT('polyline point',(-34.142135623731,0.,62.4264068711929));
#720=CARTESIAN_POINT('polyline point',(-34.142135623731,0.,62.4264068711929));
#721=CARTESIAN_POINT('polyline point',(8.28427124746191,0.,20.));
#722=CARTESIAN_POINT('polyline point',(8.28427124746191,0.,20.));
#723=CARTESIAN_POINT('polyline point',(68.2842712474619,0.,20.));
#724=CARTESIAN_POINT('polyline point',(68.2842712474619,0.,20.));
#725=CARTESIAN_POINT('polyline point',(68.2842712474619,0.,1.97215226305253E-30));
#726=CARTESIAN_POINT('',(0.,0.,0.));
#727=UNCERTAINTY_MEASURE_WITH_UNIT(LENGTH_MEASURE(0.01),#731,
'DISTANCE_ACCURACY_VALUE',
'Maximum model space distance between geometric entities at asserted c
onnectivities');
#728=UNCERTAINTY_MEASURE_WITH_UNIT(LENGTH_MEASURE(0.01),#731,
'DISTANCE_ACCURACY_VALUE',
'Maximum model space distance between geometric entities at asserted c
onnectivities');
#729=(
GEOMETRIC_REPRESENTATION_CONTEXT(3)
GLOBAL_UNCERTAINTY_ASSIGNED_CONTEXT((#727))
GLOBAL_UNIT_ASSIGNED_CONTEXT((#731,#733,#734))
REPRESENTATION_CONTEXT('','3D')
);
#730=(
GEOMETRIC_REPRESENTATION_CONTEXT(3)
GLOBAL_UNCERTAINTY_ASSIGNED_CONTEXT((#728))
GLOBAL_UNIT_ASSIGNED_CONTEXT((#731,#733,#734))
REPRESENTATION_CONTEXT('','3D')
);
#731=(
LENGTH_UNIT()
NAMED_UNIT(*)
SI_UNIT(.MILLI.,.METRE.)
);
#732=(
LENGTH_UNIT()
NAMED_UNIT(*)
SI_UNIT(.CENTI.,.METRE.)
);
#733=(
NAMED_UNIT(*)
PLANE_ANGLE_UNIT()
SI_UNIT($,.RADIAN.)
);
#734=(
NAMED_UNIT(*)
SI_UNIT($,.STERADIAN.)
SOLID_ANGLE_UNIT()
);
#735=SHAPE_DEFINITION_REPRESENTATION(#736,#737);
#736=PRODUCT_DEFINITION_SHAPE('',$,#739);
#737=SHAPE_REPRESENTATION('',(#438),#729);
#738=PRODUCT_DEFINITION_CONTEXT('part definition',#743,'design');
#739=PRODUCT_DEFINITION('Verbinder_45deg','Verbinder_45deg',#740,#738);
#740=PRODUCT_DEFINITION_FORMATION('',$,#745);
#741=PRODUCT_RELATED_PRODUCT_CATEGORY('Verbinder_45deg',
'Verbinder_45deg',(#745));
#742=APPLICATION_PROTOCOL_DEFINITION('international standard',
'automotive_design',2009,#743);
#743=APPLICATION_CONTEXT(
'Core Data for Automotive Mechanical Design Process');
#744=PRODUCT_CONTEXT('part definition',#743,'mechanical');
#745=PRODUCT('Verbinder_45deg','Verbinder_45deg',$,(#744));
#746=PRESENTATION_STYLE_ASSIGNMENT((#749));
#747=PRESENTATION_STYLE_ASSIGNMENT((#750));
#748=PRESENTATION_STYLE_ASSIGNMENT((#751));
#749=SURFACE_STYLE_USAGE(.BOTH.,#754);
#750=SURFACE_STYLE_USAGE(.BOTH.,#755);
#751=SURFACE_STYLE_USAGE(.BOTH.,#756);
#752=SURFACE_STYLE_RENDERING_WITH_PROPERTIES($,#766,(#753));
#753=SURFACE_STYLE_TRANSPARENT(0.);
#754=SURFACE_SIDE_STYLE('',(#757,#752));
#755=SURFACE_SIDE_STYLE('',(#758));
#756=SURFACE_SIDE_STYLE('',(#759));
#757=SURFACE_STYLE_FILL_AREA(#760);
#758=SURFACE_STYLE_FILL_AREA(#761);
#759=SURFACE_STYLE_FILL_AREA(#762);
#760=FILL_AREA_STYLE('',(#763));
#761=FILL_AREA_STYLE('',(#764));
#762=FILL_AREA_STYLE('',(#765));
#763=FILL_AREA_STYLE_COLOUR('',#766);
#764=FILL_AREA_STYLE_COLOUR('',#767);
#765=FILL_AREA_STYLE_COLOUR('',#768);
#766=COLOUR_RGB('',0.749019607843137,0.749019607843137,0.749019607843137);
#767=COLOUR_RGB('',1.,1.,0.);
#768=COLOUR_RGB('',0.,0.,0.);
ENDSEC;
END-ISO-10303-21;
